%TF.GenerationSoftware,KiCad,Pcbnew,9.0.9-1.fc43*%
%TF.CreationDate,2026-05-26T22:42:04+05:30*%
%TF.ProjectId,MetalBird,4d657461-6c42-4697-9264-2e6b69636164,rev?*%
%TF.SameCoordinates,Original*%
%TF.FileFunction,Copper,L1,Top*%
%TF.FilePolarity,Positive*%
%FSLAX46Y46*%
G04 Gerber Fmt 4.6, Leading zero omitted, Abs format (unit mm)*
G04 Created by KiCad (PCBNEW 9.0.9-1.fc43) date 2026-05-26 22:42:04*
%MOMM*%
%LPD*%
G01*
G04 APERTURE LIST*
G04 Aperture macros list*
%AMRoundRect*
0 Rectangle with rounded corners*
0 $1 Rounding radius*
0 $2 $3 $4 $5 $6 $7 $8 $9 X,Y pos of 4 corners*
0 Add a 4 corners polygon primitive as box body*
4,1,4,$2,$3,$4,$5,$6,$7,$8,$9,$2,$3,0*
0 Add four circle primitives for the rounded corners*
1,1,$1+$1,$2,$3*
1,1,$1+$1,$4,$5*
1,1,$1+$1,$6,$7*
1,1,$1+$1,$8,$9*
0 Add four rect primitives between the rounded corners*
20,1,$1+$1,$2,$3,$4,$5,0*
20,1,$1+$1,$4,$5,$6,$7,0*
20,1,$1+$1,$6,$7,$8,$9,0*
20,1,$1+$1,$8,$9,$2,$3,0*%
G04 Aperture macros list end*
%TA.AperFunction,SMDPad,CuDef*%
%ADD10RoundRect,0.225000X0.225000X0.250000X-0.225000X0.250000X-0.225000X-0.250000X0.225000X-0.250000X0*%
%TD*%
%TA.AperFunction,ComponentPad*%
%ADD11R,1.700000X1.700000*%
%TD*%
%TA.AperFunction,ComponentPad*%
%ADD12C,1.700000*%
%TD*%
%TA.AperFunction,SMDPad,CuDef*%
%ADD13RoundRect,0.225000X-0.225000X-0.250000X0.225000X-0.250000X0.225000X0.250000X-0.225000X0.250000X0*%
%TD*%
%TA.AperFunction,SMDPad,CuDef*%
%ADD14RoundRect,0.225000X-0.250000X0.225000X-0.250000X-0.225000X0.250000X-0.225000X0.250000X0.225000X0*%
%TD*%
%TA.AperFunction,SMDPad,CuDef*%
%ADD15RoundRect,0.250000X-0.325000X-0.650000X0.325000X-0.650000X0.325000X0.650000X-0.325000X0.650000X0*%
%TD*%
%TA.AperFunction,SMDPad,CuDef*%
%ADD16RoundRect,0.150000X0.587500X0.150000X-0.587500X0.150000X-0.587500X-0.150000X0.587500X-0.150000X0*%
%TD*%
%TA.AperFunction,SMDPad,CuDef*%
%ADD17RoundRect,0.225000X0.250000X-0.225000X0.250000X0.225000X-0.250000X0.225000X-0.250000X-0.225000X0*%
%TD*%
%TA.AperFunction,SMDPad,CuDef*%
%ADD18RoundRect,0.200000X-0.200000X-0.275000X0.200000X-0.275000X0.200000X0.275000X-0.200000X0.275000X0*%
%TD*%
%TA.AperFunction,SMDPad,CuDef*%
%ADD19RoundRect,0.200000X-0.275000X0.200000X-0.275000X-0.200000X0.275000X-0.200000X0.275000X0.200000X0*%
%TD*%
%TA.AperFunction,SMDPad,CuDef*%
%ADD20RoundRect,0.250000X0.325000X0.650000X-0.325000X0.650000X-0.325000X-0.650000X0.325000X-0.650000X0*%
%TD*%
%TA.AperFunction,SMDPad,CuDef*%
%ADD21RoundRect,0.050000X-0.285000X-0.100000X0.285000X-0.100000X0.285000X0.100000X-0.285000X0.100000X0*%
%TD*%
%TA.AperFunction,SMDPad,CuDef*%
%ADD22RoundRect,0.250000X-0.400000X0.525000X-0.400000X-0.525000X0.400000X-0.525000X0.400000X0.525000X0*%
%TD*%
%TA.AperFunction,SMDPad,CuDef*%
%ADD23RoundRect,0.250000X0.650000X-0.325000X0.650000X0.325000X-0.650000X0.325000X-0.650000X-0.325000X0*%
%TD*%
%TA.AperFunction,SMDPad,CuDef*%
%ADD24RoundRect,0.218750X-0.256250X0.218750X-0.256250X-0.218750X0.256250X-0.218750X0.256250X0.218750X0*%
%TD*%
%TA.AperFunction,SMDPad,CuDef*%
%ADD25RoundRect,0.200000X0.275000X-0.200000X0.275000X0.200000X-0.275000X0.200000X-0.275000X-0.200000X0*%
%TD*%
%TA.AperFunction,SMDPad,CuDef*%
%ADD26RoundRect,0.062500X-0.375000X-0.062500X0.375000X-0.062500X0.375000X0.062500X-0.375000X0.062500X0*%
%TD*%
%TA.AperFunction,SMDPad,CuDef*%
%ADD27RoundRect,0.062500X-0.062500X-0.375000X0.062500X-0.375000X0.062500X0.375000X-0.062500X0.375000X0*%
%TD*%
%TA.AperFunction,HeatsinkPad*%
%ADD28R,5.600000X5.600000*%
%TD*%
%TA.AperFunction,SMDPad,CuDef*%
%ADD29RoundRect,0.250000X-0.650000X0.325000X-0.650000X-0.325000X0.650000X-0.325000X0.650000X0.325000X0*%
%TD*%
%TA.AperFunction,SMDPad,CuDef*%
%ADD30RoundRect,0.250000X0.350000X-0.450000X0.350000X0.450000X-0.350000X0.450000X-0.350000X-0.450000X0*%
%TD*%
%TA.AperFunction,SMDPad,CuDef*%
%ADD31RoundRect,0.250000X-0.600000X-1.600000X0.600000X-1.600000X0.600000X1.600000X-0.600000X1.600000X0*%
%TD*%
%TA.AperFunction,SMDPad,CuDef*%
%ADD32R,0.350000X0.500000*%
%TD*%
%TA.AperFunction,SMDPad,CuDef*%
%ADD33RoundRect,0.200000X0.200000X0.275000X-0.200000X0.275000X-0.200000X-0.275000X0.200000X-0.275000X0*%
%TD*%
%TA.AperFunction,ComponentPad*%
%ADD34RoundRect,0.250000X-0.625000X0.350000X-0.625000X-0.350000X0.625000X-0.350000X0.625000X0.350000X0*%
%TD*%
%TA.AperFunction,ComponentPad*%
%ADD35O,1.750000X1.200000*%
%TD*%
%TA.AperFunction,SMDPad,CuDef*%
%ADD36RoundRect,0.375000X0.375000X-0.625000X0.375000X0.625000X-0.375000X0.625000X-0.375000X-0.625000X0*%
%TD*%
%TA.AperFunction,SMDPad,CuDef*%
%ADD37RoundRect,0.500000X1.400000X-0.500000X1.400000X0.500000X-1.400000X0.500000X-1.400000X-0.500000X0*%
%TD*%
%TA.AperFunction,SMDPad,CuDef*%
%ADD38RoundRect,0.075000X-0.350000X-0.075000X0.350000X-0.075000X0.350000X0.075000X-0.350000X0.075000X0*%
%TD*%
%TA.AperFunction,SMDPad,CuDef*%
%ADD39RoundRect,0.075000X0.075000X-0.350000X0.075000X0.350000X-0.075000X0.350000X-0.075000X-0.350000X0*%
%TD*%
%TA.AperFunction,ViaPad*%
%ADD40C,0.600000*%
%TD*%
%TA.AperFunction,Conductor*%
%ADD41C,1.000000*%
%TD*%
%TA.AperFunction,Conductor*%
%ADD42C,0.500000*%
%TD*%
%TA.AperFunction,Conductor*%
%ADD43C,0.200000*%
%TD*%
G04 APERTURE END LIST*
D10*
%TO.P,C25,1*%
%TO.N,Net-(U1-PA1)*%
X114575000Y-73700000D03*
%TO.P,C25,2*%
%TO.N,GND*%
X113025000Y-73700000D03*
%TD*%
D11*
%TO.P,J3,1,Pin_1*%
%TO.N,GND*%
X102000000Y-78920000D03*
D12*
%TO.P,J3,2,Pin_2*%
%TO.N,5V*%
X102000000Y-81460000D03*
%TO.P,J3,3,Pin_3*%
%TO.N,Net-(J3-Pin_3)*%
X102000000Y-84000000D03*
%TD*%
D13*
%TO.P,C1A1,1*%
%TO.N,GND*%
X113725000Y-80500000D03*
%TO.P,C1A1,2*%
%TO.N,7.4V*%
X115275000Y-80500000D03*
%TD*%
D14*
%TO.P,C22,1*%
%TO.N,3.3V*%
X117900000Y-55425000D03*
%TO.P,C22,2*%
%TO.N,GND*%
X117900000Y-56975000D03*
%TD*%
D11*
%TO.P,J2,1,Pin_1*%
%TO.N,3.3V*%
X129400000Y-51900000D03*
D12*
%TO.P,J2,2,Pin_2*%
%TO.N,SWDIO*%
X129400000Y-54440000D03*
%TO.P,J2,3,Pin_3*%
%TO.N,SWDCLK*%
X129400000Y-56980000D03*
%TO.P,J2,4,Pin_4*%
%TO.N,GND*%
X129400000Y-59520000D03*
%TD*%
D15*
%TO.P,C14,1*%
%TO.N,5V*%
X131625000Y-82300000D03*
%TO.P,C14,2*%
%TO.N,GND*%
X134575000Y-82300000D03*
%TD*%
D16*
%TO.P,Q1,1,D*%
%TO.N,7.4V*%
X108500000Y-78275000D03*
%TO.P,Q1,2,G*%
X108500000Y-76375000D03*
%TO.P,Q1,3,S*%
%TO.N,Net-(J1-Pin_1)*%
X106625000Y-77325000D03*
%TD*%
D11*
%TO.P,J4,1,Pin_1*%
%TO.N,GND*%
X102000000Y-51920000D03*
D12*
%TO.P,J4,2,Pin_2*%
%TO.N,5V*%
X102000000Y-54460000D03*
%TO.P,J4,3,Pin_3*%
%TO.N,Net-(J4-Pin_3)*%
X102000000Y-57000000D03*
%TD*%
D13*
%TO.P,C21,1*%
%TO.N,Net-(U3-CPOUT)*%
X112750000Y-50800000D03*
%TO.P,C21,2*%
%TO.N,GND*%
X114300000Y-50800000D03*
%TD*%
%TO.P,C12,1*%
%TO.N,GND*%
X106625000Y-70200000D03*
%TO.P,C12,2*%
%TO.N,Net-(U1-PH1)*%
X108175000Y-70200000D03*
%TD*%
D14*
%TO.P,C20,1*%
%TO.N,Net-(U3-REGOUT)*%
X112200000Y-58750000D03*
%TO.P,C20,2*%
%TO.N,GND*%
X112200000Y-60300000D03*
%TD*%
D17*
%TO.P,C6,1*%
%TO.N,3.3V*%
X117000000Y-61475000D03*
%TO.P,C6,2*%
%TO.N,GND*%
X117000000Y-59925000D03*
%TD*%
D18*
%TO.P,R4,1*%
%TO.N,Net-(MP2331H1-FB)*%
X119775000Y-80500000D03*
%TO.P,R4,2*%
%TO.N,Net-(C13-Pad1)*%
X121425000Y-80500000D03*
%TD*%
D19*
%TO.P,R2,1*%
%TO.N,GND*%
X118500000Y-59875000D03*
%TO.P,R2,2*%
%TO.N,Net-(U1-BOOT0)*%
X118500000Y-61525000D03*
%TD*%
D20*
%TO.P,C19,1*%
%TO.N,3.3V*%
X127375000Y-80100000D03*
%TO.P,C19,2*%
%TO.N,GND*%
X124425000Y-80100000D03*
%TD*%
D21*
%TO.P,MP2331H1,1,PG*%
%TO.N,Net-(MP2331H1-PG)*%
X118160000Y-81850000D03*
%TO.P,MP2331H1,2,IN*%
%TO.N,7.4V*%
X118160000Y-82350000D03*
%TO.P,MP2331H1,3,SW*%
%TO.N,Net-(MP2331H1-SW)*%
X118160000Y-82850000D03*
%TO.P,MP2331H1,4,GND*%
%TO.N,GND*%
X118160000Y-83350000D03*
%TO.P,MP2331H1,5,BST*%
%TO.N,Net-(MP2331H1-BST)*%
X119640000Y-83350000D03*
%TO.P,MP2331H1,6,EN*%
%TO.N,Net-(MP2331H1-EN)*%
X119640000Y-82850000D03*
%TO.P,MP2331H1,7,SS*%
%TO.N,Net-(MP2331H1-SS)*%
X119640000Y-82350000D03*
%TO.P,MP2331H1,8,FB*%
%TO.N,Net-(MP2331H1-FB)*%
X119640000Y-81850000D03*
%TD*%
D22*
%TO.P,SW1,1,A*%
%TO.N,GND*%
X125600000Y-51140000D03*
X125600000Y-59100000D03*
%TO.P,SW1,2,B*%
%TO.N,Net-(SW1-B)*%
X121100000Y-51140000D03*
X121100000Y-59100000D03*
%TD*%
D11*
%TO.P,J10,1,Pin_1*%
%TO.N,5V*%
X102000000Y-69920000D03*
D12*
%TO.P,J10,2,Pin_2*%
%TO.N,GND*%
X102000000Y-72460000D03*
%TO.P,J10,3,Pin_3*%
%TO.N,Video*%
X102000000Y-75000000D03*
%TD*%
D10*
%TO.P,C1,1*%
%TO.N,3.3V*%
X115000000Y-65000000D03*
%TO.P,C1,2*%
%TO.N,GND*%
X113450000Y-65000000D03*
%TD*%
D13*
%TO.P,C10,1*%
%TO.N,GND*%
X106625000Y-64200000D03*
%TO.P,C10,2*%
%TO.N,Net-(U1-PH0)*%
X108175000Y-64200000D03*
%TD*%
D11*
%TO.P,J8,1,Pin_1*%
%TO.N,5V*%
X107000000Y-52000000D03*
D12*
%TO.P,J8,2,Pin_2*%
%TO.N,GND*%
X107000000Y-54540000D03*
%TO.P,J8,3,Pin_3*%
%TO.N,USART1_TX*%
X107000000Y-57080000D03*
%TO.P,J8,4,Pin_4*%
%TO.N,USART1_RX*%
X107000000Y-59620000D03*
%TD*%
D13*
%TO.P,C15,1*%
%TO.N,GND*%
X111225000Y-69400000D03*
%TO.P,C15,2*%
%TO.N,3.3V*%
X112775000Y-69400000D03*
%TD*%
D10*
%TO.P,C8,1*%
%TO.N,3.3V*%
X112775000Y-70900000D03*
%TO.P,C8,2*%
%TO.N,GND*%
X111225000Y-70900000D03*
%TD*%
D23*
%TO.P,C2,1*%
%TO.N,GND*%
X114800000Y-85100000D03*
%TO.P,C2,2*%
%TO.N,7.4V*%
X114800000Y-82150000D03*
%TD*%
D18*
%TO.P,R3,1*%
%TO.N,Net-(MP2331H1-BST)*%
X121450000Y-83550000D03*
%TO.P,R3,2*%
%TO.N,Net-(C11-Pad1)*%
X123100000Y-83550000D03*
%TD*%
D24*
%TO.P,D2,1,K*%
%TO.N,GND*%
X128600000Y-63025000D03*
%TO.P,D2,2,A*%
%TO.N,Net-(D2-A)*%
X128600000Y-64600000D03*
%TD*%
D25*
%TO.P,R17,1*%
%TO.N,3.3V*%
X120200000Y-74225000D03*
%TO.P,R17,2*%
%TO.N,SCL*%
X120200000Y-72575000D03*
%TD*%
D26*
%TO.P,U1,1,VBAT*%
%TO.N,3.3V*%
X116462500Y-64650000D03*
%TO.P,U1,2,PC13*%
%TO.N,unconnected-(U1-PC13-Pad2)*%
X116462500Y-65150000D03*
%TO.P,U1,3,PC14*%
%TO.N,unconnected-(U1-PC14-Pad3)*%
X116462500Y-65650000D03*
%TO.P,U1,4,PC15*%
%TO.N,unconnected-(U1-PC15-Pad4)*%
X116462500Y-66150000D03*
%TO.P,U1,5,PH0*%
%TO.N,Net-(U1-PH0)*%
X116462500Y-66650000D03*
%TO.P,U1,6,PH1*%
%TO.N,Net-(U1-PH1)*%
X116462500Y-67150000D03*
%TO.P,U1,7,NRST*%
%TO.N,Net-(SW1-B)*%
X116462500Y-67650000D03*
%TO.P,U1,8,VSSA*%
%TO.N,GND*%
X116462500Y-68150000D03*
%TO.P,U1,9,VDDA*%
%TO.N,3.3V*%
X116462500Y-68650000D03*
%TO.P,U1,10,PA0*%
%TO.N,unconnected-(U1-PA0-Pad10)*%
X116462500Y-69150000D03*
%TO.P,U1,11,PA1*%
%TO.N,Net-(U1-PA1)*%
X116462500Y-69650000D03*
%TO.P,U1,12,PA2*%
%TO.N,USART2_TX*%
X116462500Y-70150000D03*
D27*
%TO.P,U1,13,PA3*%
%TO.N,USART2_RX*%
X117150000Y-70837500D03*
%TO.P,U1,14,PA4*%
%TO.N,unconnected-(U1-PA4-Pad14)*%
X117650000Y-70837500D03*
%TO.P,U1,15,PA5*%
%TO.N,unconnected-(U1-PA5-Pad15)*%
X118150000Y-70837500D03*
%TO.P,U1,16,PA6*%
%TO.N,unconnected-(U1-PA6-Pad16)*%
X118650000Y-70837500D03*
%TO.P,U1,17,PA7*%
%TO.N,unconnected-(U1-PA7-Pad17)*%
X119150000Y-70837500D03*
%TO.P,U1,18,PB0*%
%TO.N,unconnected-(U1-PB0-Pad18)*%
X119650000Y-70837500D03*
%TO.P,U1,19,PB1*%
%TO.N,unconnected-(U1-PB1-Pad19)*%
X120150000Y-70837500D03*
%TO.P,U1,20,PB2*%
%TO.N,unconnected-(U1-PB2-Pad20)*%
X120650000Y-70837500D03*
%TO.P,U1,21,PB10*%
%TO.N,SCL*%
X121150000Y-70837500D03*
%TO.P,U1,22,VCAP1*%
%TO.N,Net-(U1-VCAP1)*%
X121650000Y-70837500D03*
%TO.P,U1,23,VSS*%
%TO.N,GND*%
X122150000Y-70837500D03*
%TO.P,U1,24,VDD*%
%TO.N,3.3V*%
X122650000Y-70837500D03*
D26*
%TO.P,U1,25,PB12*%
%TO.N,unconnected-(U1-PB12-Pad25)*%
X123337500Y-70150000D03*
%TO.P,U1,26,PB13*%
%TO.N,Net-(U1-PB13)*%
X123337500Y-69650000D03*
%TO.P,U1,27,PB14*%
%TO.N,Net-(U1-PB14)*%
X123337500Y-69150000D03*
%TO.P,U1,28,PB15*%
%TO.N,unconnected-(U1-PB15-Pad28)*%
X123337500Y-68650000D03*
%TO.P,U1,29,PA8*%
%TO.N,Net-(J3-Pin_3)*%
X123337500Y-68150000D03*
%TO.P,U1,30,PA9*%
%TO.N,Net-(J4-Pin_3)*%
X123337500Y-67650000D03*
%TO.P,U1,31,PA10*%
%TO.N,Net-(J5-Pin_3)*%
X123337500Y-67150000D03*
%TO.P,U1,32,PA11*%
%TO.N,Net-(J6-Pin_3)*%
X123337500Y-66650000D03*
%TO.P,U1,33,PA12*%
%TO.N,unconnected-(U1-PA12-Pad33)*%
X123337500Y-66150000D03*
%TO.P,U1,34,PA13*%
%TO.N,SWDIO*%
X123337500Y-65650000D03*
%TO.P,U1,35,VSS*%
%TO.N,GND*%
X123337500Y-65150000D03*
%TO.P,U1,36,VDD*%
%TO.N,3.3V*%
X123337500Y-64650000D03*
D27*
%TO.P,U1,37,PA14*%
%TO.N,SWDCLK*%
X122650000Y-63962500D03*
%TO.P,U1,38,PA15*%
%TO.N,unconnected-(U1-PA15-Pad38)*%
X122150000Y-63962500D03*
%TO.P,U1,39,PB3*%
%TO.N,SDA*%
X121650000Y-63962500D03*
%TO.P,U1,40,PB4*%
%TO.N,INT*%
X121150000Y-63962500D03*
%TO.P,U1,41,PB5*%
%TO.N,unconnected-(U1-PB5-Pad41)*%
X120650000Y-63962500D03*
%TO.P,U1,42,PB6*%
%TO.N,USART1_TX*%
X120150000Y-63962500D03*
%TO.P,U1,43,PB7*%
%TO.N,USART1_RX*%
X119650000Y-63962500D03*
%TO.P,U1,44,BOOT0*%
%TO.N,Net-(U1-BOOT0)*%
X119150000Y-63962500D03*
%TO.P,U1,45,PB8*%
%TO.N,unconnected-(U1-PB8-Pad45)*%
X118650000Y-63962500D03*
%TO.P,U1,46,PB9*%
%TO.N,unconnected-(U1-PB9-Pad46)*%
X118150000Y-63962500D03*
%TO.P,U1,47,VSS*%
%TO.N,GND*%
X117650000Y-63962500D03*
%TO.P,U1,48,VDD*%
%TO.N,3.3V*%
X117150000Y-63962500D03*
D28*
%TO.P,U1,49,VSS*%
%TO.N,GND*%
X119900000Y-67400000D03*
%TD*%
D29*
%TO.P,C24,1*%
%TO.N,7.4V*%
X112400000Y-82150000D03*
%TO.P,C24,2*%
%TO.N,GND*%
X112400000Y-85100000D03*
%TD*%
D19*
%TO.P,R8,1*%
%TO.N,7.4V*%
X110300000Y-76550000D03*
%TO.P,R8,2*%
%TO.N,GND*%
X110300000Y-78200000D03*
%TD*%
D30*
%TO.P,Y1,1,1*%
%TO.N,Net-(U1-PH1)*%
X108250000Y-68400000D03*
%TO.P,Y1,2,2*%
%TO.N,Net-(U1-PH0)*%
X108250000Y-66200000D03*
%TO.P,Y1,3*%
%TO.N,N/C*%
X106550000Y-66200000D03*
%TO.P,Y1,4*%
X106550000Y-68400000D03*
%TD*%
D19*
%TO.P,R15,1*%
%TO.N,3.3V*%
X122300000Y-60875000D03*
%TO.P,R15,2*%
%TO.N,SDA*%
X122300000Y-62525000D03*
%TD*%
D31*
%TO.P,L1,1,1*%
%TO.N,Net-(MP2331H1-SW)*%
X126400000Y-83650000D03*
%TO.P,L1,2,2*%
%TO.N,5V*%
X129100000Y-83650000D03*
%TD*%
D13*
%TO.P,C7,1*%
%TO.N,Net-(MP2331H1-SS)*%
X121500000Y-82050000D03*
%TO.P,C7,2*%
%TO.N,GND*%
X123050000Y-82050000D03*
%TD*%
D32*
%TO.P,U4,1,GND*%
%TO.N,GND*%
X116250000Y-52575000D03*
%TO.P,U4,2,CSB*%
%TO.N,3.3V*%
X116900000Y-52575000D03*
%TO.P,U4,3,SDI*%
%TO.N,SDA*%
X117550000Y-52575000D03*
%TO.P,U4,4,SCK*%
%TO.N,SCL*%
X118200000Y-52575000D03*
%TO.P,U4,5,SDO*%
%TO.N,3.3V*%
X118200000Y-54175000D03*
%TO.P,U4,6,VDDIO*%
X117550000Y-54175000D03*
%TO.P,U4,7,GND*%
%TO.N,GND*%
X116900000Y-54175000D03*
%TO.P,U4,8,VDD*%
%TO.N,3.3V*%
X116250000Y-54175000D03*
%TD*%
D33*
%TO.P,R12,1*%
%TO.N,Net-(U1-PA1)*%
X114625000Y-75200000D03*
%TO.P,R12,2*%
%TO.N,GND*%
X112975000Y-75200000D03*
%TD*%
D19*
%TO.P,R1,1*%
%TO.N,Net-(MP2331H1-EN)*%
X116800000Y-80450000D03*
%TO.P,R1,2*%
%TO.N,7.4V*%
X116800000Y-82100000D03*
%TD*%
%TO.P,R14,1*%
%TO.N,Net-(D2-A)*%
X128600000Y-65987500D03*
%TO.P,R14,2*%
%TO.N,Net-(U1-PB14)*%
X128600000Y-67637500D03*
%TD*%
D17*
%TO.P,C13,1*%
%TO.N,Net-(C13-Pad1)*%
X121300000Y-79050000D03*
%TO.P,C13,2*%
%TO.N,5V*%
X121300000Y-77500000D03*
%TD*%
D19*
%TO.P,R7,1*%
%TO.N,5V*%
X122800000Y-77450000D03*
%TO.P,R7,2*%
%TO.N,Net-(C13-Pad1)*%
X122800000Y-79100000D03*
%TD*%
D11*
%TO.P,J6,1,Pin_1*%
%TO.N,GND*%
X134000000Y-73460000D03*
D12*
%TO.P,J6,2,Pin_2*%
%TO.N,5V*%
X134000000Y-76000000D03*
%TO.P,J6,3,Pin_3*%
%TO.N,Net-(J6-Pin_3)*%
X134000000Y-78540000D03*
%TD*%
D19*
%TO.P,R5,1*%
%TO.N,GND*%
X119800000Y-77450000D03*
%TO.P,R5,2*%
%TO.N,Net-(C13-Pad1)*%
X119800000Y-79100000D03*
%TD*%
D17*
%TO.P,C5,1*%
%TO.N,Net-(MP2331H1-PG)*%
X118340000Y-80600000D03*
%TO.P,C5,2*%
%TO.N,GND*%
X118340000Y-79050000D03*
%TD*%
%TO.P,C11,1*%
%TO.N,Net-(C11-Pad1)*%
X124500000Y-83500000D03*
%TO.P,C11,2*%
%TO.N,Net-(MP2331H1-SW)*%
X124500000Y-81950000D03*
%TD*%
D18*
%TO.P,R6,1*%
%TO.N,3.3V*%
X112575000Y-67900000D03*
%TO.P,R6,2*%
%TO.N,Net-(SW1-B)*%
X114225000Y-67900000D03*
%TD*%
D15*
%TO.P,C2A1,1*%
%TO.N,5V*%
X131650000Y-84650000D03*
%TO.P,C2A1,2*%
%TO.N,GND*%
X134600000Y-84650000D03*
%TD*%
D11*
%TO.P,J9,1,Pin_1*%
%TO.N,5V*%
X102000000Y-60920000D03*
D12*
%TO.P,J9,2,Pin_2*%
%TO.N,GND*%
X102000000Y-63460000D03*
%TO.P,J9,3,Pin_3*%
%TO.N,Video*%
X102000000Y-66000000D03*
%TD*%
D34*
%TO.P,J1,1,Pin_1*%
%TO.N,Net-(J1-Pin_1)*%
X108900000Y-81500000D03*
D35*
%TO.P,J1,2,Pin_2*%
%TO.N,GND*%
X108900000Y-83500000D03*
%TD*%
D24*
%TO.P,D1,1,K*%
%TO.N,GND*%
X130200000Y-63000000D03*
%TO.P,D1,2,A*%
%TO.N,Net-(D1-A)*%
X130200000Y-64575000D03*
%TD*%
D14*
%TO.P,C9,1*%
%TO.N,Net-(U1-VCAP1)*%
X121700000Y-72625000D03*
%TO.P,C9,2*%
%TO.N,GND*%
X121700000Y-74175000D03*
%TD*%
%TO.P,C18,1*%
%TO.N,GND*%
X114900000Y-54450000D03*
%TO.P,C18,2*%
%TO.N,3.3V*%
X114900000Y-56000000D03*
%TD*%
D10*
%TO.P,C16,1*%
%TO.N,5V*%
X130575000Y-80300000D03*
%TO.P,C16,2*%
%TO.N,GND*%
X129025000Y-80300000D03*
%TD*%
D11*
%TO.P,J5,1,Pin_1*%
%TO.N,GND*%
X134000000Y-51920000D03*
D12*
%TO.P,J5,2,Pin_2*%
%TO.N,5V*%
X134000000Y-54460000D03*
%TO.P,J5,3,Pin_3*%
%TO.N,Net-(J5-Pin_3)*%
X134000000Y-57000000D03*
%TD*%
D19*
%TO.P,R13,1*%
%TO.N,Net-(D1-A)*%
X130200000Y-66000000D03*
%TO.P,R13,2*%
%TO.N,Net-(U1-PB13)*%
X130200000Y-67650000D03*
%TD*%
D13*
%TO.P,C4,1*%
%TO.N,3.3V*%
X124425000Y-63500000D03*
%TO.P,C4,2*%
%TO.N,GND*%
X125975000Y-63500000D03*
%TD*%
D19*
%TO.P,R16,1*%
%TO.N,3.3V*%
X120790000Y-60875000D03*
%TO.P,R16,2*%
%TO.N,INT*%
X120790000Y-62525000D03*
%TD*%
D11*
%TO.P,J7,1,Pin_1*%
%TO.N,5V*%
X134000000Y-61380000D03*
D12*
%TO.P,J7,2,Pin_2*%
%TO.N,GND*%
X134000000Y-63920000D03*
%TO.P,J7,3,Pin_3*%
%TO.N,USART2_TX*%
X134000000Y-66460000D03*
%TO.P,J7,4,Pin_4*%
%TO.N,USART2_RX*%
X134000000Y-69000000D03*
%TD*%
D18*
%TO.P,R11,1*%
%TO.N,7.4V*%
X112975000Y-76800000D03*
%TO.P,R11,2*%
%TO.N,Net-(U1-PA1)*%
X114625000Y-76800000D03*
%TD*%
D36*
%TO.P,U2,1,GND*%
%TO.N,GND*%
X125400000Y-77650000D03*
%TO.P,U2,2,VO*%
%TO.N,3.3V*%
X127700000Y-77650000D03*
D37*
X127700000Y-71350000D03*
D36*
%TO.P,U2,3,VI*%
%TO.N,5V*%
X130000000Y-77650000D03*
%TD*%
D38*
%TO.P,U3,1,CLKIN*%
%TO.N,GND*%
X109500000Y-53500000D03*
%TO.P,U3,2,NC*%
%TO.N,unconnected-(U3-NC-Pad2)*%
X109500000Y-54000000D03*
%TO.P,U3,3,NC*%
%TO.N,unconnected-(U3-NC-Pad3)*%
X109500000Y-54500000D03*
%TO.P,U3,4,NC*%
%TO.N,unconnected-(U3-NC-Pad4)*%
X109500000Y-55000000D03*
%TO.P,U3,5,NC*%
%TO.N,unconnected-(U3-NC-Pad5)*%
X109500000Y-55500000D03*
%TO.P,U3,6,AUX_DA*%
%TO.N,unconnected-(U3-AUX_DA-Pad6)*%
X109500000Y-56000000D03*
D39*
%TO.P,U3,7,AUX_CL*%
%TO.N,unconnected-(U3-AUX_CL-Pad7)*%
X110200000Y-56700000D03*
%TO.P,U3,8,VLOGIC*%
%TO.N,3.3V*%
X110700000Y-56700000D03*
%TO.P,U3,9,AD0*%
%TO.N,GND*%
X111200000Y-56700000D03*
%TO.P,U3,10,REGOUT*%
%TO.N,Net-(U3-REGOUT)*%
X111700000Y-56700000D03*
%TO.P,U3,11,FSYNC*%
%TO.N,GND*%
X112200000Y-56700000D03*
%TO.P,U3,12,INT*%
%TO.N,INT*%
X112700000Y-56700000D03*
D38*
%TO.P,U3,13,VDD*%
%TO.N,3.3V*%
X113400000Y-56000000D03*
%TO.P,U3,14,NC*%
%TO.N,unconnected-(U3-NC-Pad14)*%
X113400000Y-55500000D03*
%TO.P,U3,15,NC*%
%TO.N,unconnected-(U3-NC-Pad15)*%
X113400000Y-55000000D03*
%TO.P,U3,16,NC*%
%TO.N,unconnected-(U3-NC-Pad16)*%
X113400000Y-54500000D03*
%TO.P,U3,17,NC*%
%TO.N,unconnected-(U3-NC-Pad17)*%
X113400000Y-54000000D03*
%TO.P,U3,18,GND*%
%TO.N,GND*%
X113400000Y-53500000D03*
D39*
%TO.P,U3,19,RESV*%
%TO.N,unconnected-(U3-RESV-Pad19)*%
X112700000Y-52800000D03*
%TO.P,U3,20,CPOUT*%
%TO.N,Net-(U3-CPOUT)*%
X112200000Y-52800000D03*
%TO.P,U3,21,RESV*%
%TO.N,unconnected-(U3-RESV-Pad21)*%
X111700000Y-52800000D03*
%TO.P,U3,22,RESV*%
%TO.N,unconnected-(U3-RESV-Pad22)*%
X111200000Y-52800000D03*
%TO.P,U3,23,SCL*%
%TO.N,SCL*%
X110700000Y-52800000D03*
%TO.P,U3,24,SDA*%
%TO.N,SDA*%
X110200000Y-52800000D03*
%TD*%
D17*
%TO.P,C17,1*%
%TO.N,GND*%
X109500000Y-59700000D03*
%TO.P,C17,2*%
%TO.N,3.3V*%
X109500000Y-58150000D03*
%TD*%
D14*
%TO.P,C3,1*%
%TO.N,3.3V*%
X123200000Y-72625000D03*
%TO.P,C3,2*%
%TO.N,GND*%
X123200000Y-74175000D03*
%TD*%
%TO.P,C23,1*%
%TO.N,3.3V*%
X116400000Y-55425000D03*
%TO.P,C23,2*%
%TO.N,GND*%
X116400000Y-56975000D03*
%TD*%
D40*
%TO.N,GND*%
X111200000Y-78900000D03*
X119300000Y-57800000D03*
X128800000Y-79200000D03*
X125600000Y-59700000D03*
X113700000Y-79500000D03*
X113700000Y-76000000D03*
X106600000Y-63400000D03*
X117900000Y-77800000D03*
X105500000Y-82000000D03*
X112800000Y-64900000D03*
X108200000Y-53400000D03*
X111000000Y-57800000D03*
X117500000Y-58800000D03*
X119800000Y-76400000D03*
X119900000Y-67400000D03*
X117400000Y-53400000D03*
X125400000Y-63300000D03*
X130900000Y-63500000D03*
X112700000Y-61500000D03*
X123100000Y-80600000D03*
X112300000Y-57700000D03*
X113100000Y-72300000D03*
X115500000Y-53500000D03*
X114500000Y-53500000D03*
X123700000Y-55200000D03*
X124300000Y-77700000D03*
X124600000Y-74300000D03*
X124300000Y-64600000D03*
X109500000Y-61000000D03*
X106200000Y-73500000D03*
X115400000Y-55000000D03*
X134600000Y-80700000D03*
%TO.N,5V*%
X104600000Y-84800000D03*
X126900000Y-76000000D03*
X128600000Y-76000000D03*
X129100000Y-84800000D03*
%TO.N,Net-(U1-PH0)*%
X112700000Y-66200000D03*
X114400000Y-66700000D03*
%TO.N,Net-(MP2331H1-SW)*%
X124400000Y-82300000D03*
X116800000Y-83200000D03*
%TO.N,Net-(U1-PH1)*%
X111600000Y-68300000D03*
X115400000Y-67300000D03*
%TO.N,Net-(U1-PA1)*%
X115200000Y-69900000D03*
X114600000Y-73300000D03*
%TO.N,SWDIO*%
X124300000Y-65500000D03*
%TO.N,SWDCLK*%
X123200000Y-63300000D03*
X128000000Y-58800000D03*
X125400000Y-62500000D03*
%TO.N,Net-(J3-Pin_3)*%
X124400000Y-68400000D03*
%TO.N,Net-(J4-Pin_3)*%
X105300000Y-70700000D03*
X111800000Y-75300000D03*
X105300000Y-63600000D03*
X110800000Y-74300000D03*
X125100000Y-71800000D03*
%TO.N,Net-(J5-Pin_3)*%
X131000000Y-58700000D03*
X130300000Y-61800000D03*
X124400000Y-67000000D03*
%TO.N,Net-(J6-Pin_3)*%
X124800000Y-66200000D03*
X130300000Y-71000000D03*
X130200000Y-73500000D03*
X131000000Y-76400000D03*
X126400000Y-66800000D03*
%TO.N,USART2_RX*%
X117100000Y-71900000D03*
X133900000Y-71100000D03*
X132600000Y-73200000D03*
%TO.N,USART2_TX*%
X118700000Y-73400000D03*
X131000000Y-66700000D03*
X128500000Y-74300000D03*
%TO.N,USART1_TX*%
X119800000Y-62500000D03*
%TO.N,USART1_RX*%
X119100000Y-60700000D03*
%TO.N,Video*%
X103800000Y-70400000D03*
X103800000Y-72800000D03*
%TO.N,Net-(MP2331H1-EN)*%
X120500000Y-82900000D03*
X116800000Y-79200000D03*
%TO.N,Net-(SW1-B)*%
X121100000Y-59700000D03*
X115400000Y-68200000D03*
%TO.N,Net-(U1-PB13)*%
X129100000Y-68600000D03*
X124600000Y-69900000D03*
%TO.N,Net-(U1-PB14)*%
X128200000Y-67600000D03*
X124800000Y-69100000D03*
%TO.N,SDA*%
X117500000Y-51200000D03*
X122700000Y-57600000D03*
X110400000Y-51100000D03*
X122400000Y-61800000D03*
X122700000Y-52500000D03*
%TO.N,INT*%
X114000000Y-58200000D03*
X115700000Y-58200000D03*
%TO.N,SCL*%
X111000000Y-51800000D03*
X121800000Y-57600000D03*
X121800000Y-52600000D03*
X118200000Y-52100000D03*
X119800000Y-72000000D03*
%TD*%
D41*
%TO.N,GND*%
X125600000Y-59700000D02*
X125600000Y-55200000D01*
D42*
X118340000Y-79050000D02*
X118340000Y-78240000D01*
X111225000Y-70900000D02*
X111225000Y-71175000D01*
X130200000Y-63000000D02*
X130400000Y-63000000D01*
X125975000Y-63500000D02*
X128125000Y-63500000D01*
X119800000Y-77450000D02*
X119800000Y-76400000D01*
X124425000Y-78625000D02*
X125400000Y-77650000D01*
X118340000Y-78910000D02*
X119800000Y-77450000D01*
X129025000Y-79425000D02*
X128800000Y-79200000D01*
D43*
X124300000Y-64639386D02*
X124300000Y-64600000D01*
D42*
X106625000Y-64200000D02*
X106625000Y-63425000D01*
X121700000Y-74175000D02*
X123200000Y-74175000D01*
X106625000Y-70200000D02*
X106625000Y-70725000D01*
X129025000Y-80300000D02*
X129025000Y-79425000D01*
X114900000Y-54500000D02*
X115400000Y-55000000D01*
D43*
X122150000Y-70837500D02*
X122150000Y-69650000D01*
X111200000Y-56700000D02*
X111200000Y-57600000D01*
X116900000Y-53900000D02*
X117400000Y-53400000D01*
D42*
X114300000Y-50800000D02*
X114900000Y-51400000D01*
D43*
X123337500Y-65150000D02*
X122150000Y-65150000D01*
D42*
X111000000Y-78900000D02*
X111200000Y-78900000D01*
D43*
X113400000Y-53500000D02*
X114500000Y-53500000D01*
X117650000Y-65150000D02*
X119900000Y-67400000D01*
X111000000Y-57800000D02*
X111300000Y-58100000D01*
D42*
X117000000Y-59300000D02*
X117500000Y-58800000D01*
D43*
X125400000Y-63300000D02*
X125775000Y-63300000D01*
D42*
X112900000Y-65000000D02*
X112800000Y-64900000D01*
D41*
X106900000Y-83500000D02*
X105500000Y-82100000D01*
D42*
X110300000Y-78200000D02*
X111000000Y-78900000D01*
X114800000Y-85100000D02*
X112400000Y-85100000D01*
X125600000Y-59100000D02*
X125600000Y-59700000D01*
X113025000Y-72375000D02*
X113100000Y-72300000D01*
X128600000Y-63025000D02*
X130175000Y-63025000D01*
X112200000Y-60300000D02*
X112700000Y-60800000D01*
X124425000Y-80100000D02*
X124425000Y-78625000D01*
X118450000Y-59925000D02*
X118500000Y-59875000D01*
D41*
X106200000Y-73500000D02*
X107800000Y-71900000D01*
D42*
X117000000Y-59925000D02*
X116875000Y-59925000D01*
X134575000Y-82300000D02*
X134575000Y-80725000D01*
X111225000Y-70900000D02*
X111225000Y-71900000D01*
X134575000Y-80725000D02*
X134600000Y-80700000D01*
X124475000Y-74175000D02*
X124600000Y-74300000D01*
D43*
X112200000Y-56700000D02*
X112200000Y-57600000D01*
D42*
X129400000Y-62200000D02*
X130200000Y-63000000D01*
X123600000Y-80100000D02*
X123100000Y-80600000D01*
D43*
X111300000Y-59400000D02*
X112200000Y-60300000D01*
D42*
X125400000Y-77650000D02*
X125350000Y-77700000D01*
X129400000Y-59520000D02*
X129400000Y-62200000D01*
X114900000Y-54450000D02*
X114900000Y-54500000D01*
X123050000Y-81475000D02*
X124425000Y-80100000D01*
X117000000Y-59925000D02*
X118450000Y-59925000D01*
X116400000Y-56975000D02*
X117900000Y-56975000D01*
D41*
X110900000Y-83500000D02*
X112400000Y-85000000D01*
D43*
X117650000Y-68150000D02*
X117800000Y-68000000D01*
D42*
X118500000Y-59800000D02*
X117500000Y-58800000D01*
D43*
X109500000Y-53500000D02*
X108300000Y-53500000D01*
D41*
X108900000Y-83500000D02*
X110900000Y-83500000D01*
D42*
X113025000Y-73700000D02*
X113025000Y-75150000D01*
X130400000Y-63000000D02*
X130900000Y-63500000D01*
X114900000Y-51400000D02*
X114900000Y-52900000D01*
D43*
X108300000Y-53500000D02*
X108200000Y-53400000D01*
X112200000Y-57600000D02*
X112300000Y-57700000D01*
X123789386Y-65150000D02*
X124300000Y-64639386D01*
D42*
X114800000Y-85100000D02*
X116510000Y-85100000D01*
X123200000Y-74175000D02*
X124475000Y-74175000D01*
X118400000Y-67400000D02*
X117800000Y-68000000D01*
D43*
X116900000Y-54175000D02*
X116900000Y-53900000D01*
D42*
X119900000Y-67400000D02*
X118400000Y-67400000D01*
X115925000Y-52900000D02*
X116250000Y-52575000D01*
X109500000Y-59700000D02*
X109500000Y-61000000D01*
D43*
X111300000Y-58100000D02*
X111300000Y-59400000D01*
D42*
X134575000Y-84625000D02*
X134600000Y-84650000D01*
X118500000Y-59875000D02*
X118500000Y-59800000D01*
X118340000Y-78240000D02*
X117900000Y-77800000D01*
D43*
X123337500Y-65150000D02*
X123789386Y-65150000D01*
D42*
X124425000Y-80100000D02*
X123600000Y-80100000D01*
X114900000Y-52900000D02*
X115925000Y-52900000D01*
D41*
X105500000Y-82100000D02*
X105500000Y-82000000D01*
D42*
X117000000Y-59925000D02*
X117000000Y-59300000D01*
X113450000Y-65000000D02*
X112900000Y-65000000D01*
X125350000Y-77700000D02*
X124300000Y-77700000D01*
D43*
X117650000Y-63962500D02*
X117650000Y-65150000D01*
D42*
X113725000Y-79525000D02*
X113700000Y-79500000D01*
X116510000Y-85100000D02*
X118160000Y-83450000D01*
X128125000Y-63500000D02*
X128600000Y-63025000D01*
D43*
X122150000Y-65150000D02*
X119900000Y-67400000D01*
D42*
X106625000Y-63425000D02*
X106600000Y-63400000D01*
X111225000Y-70900000D02*
X111225000Y-69400000D01*
D43*
X111200000Y-57600000D02*
X111000000Y-57800000D01*
X113400000Y-53500000D02*
X114000000Y-52900000D01*
D42*
X113700000Y-75925000D02*
X113700000Y-76000000D01*
D41*
X125600000Y-55200000D02*
X123700000Y-55200000D01*
X111225000Y-71900000D02*
X113025000Y-73700000D01*
D42*
X114900000Y-52900000D02*
X114900000Y-54450000D01*
X117900000Y-56975000D02*
X118475000Y-56975000D01*
D41*
X107800000Y-71900000D02*
X111225000Y-71900000D01*
D42*
X130175000Y-63025000D02*
X130200000Y-63000000D01*
X112975000Y-75200000D02*
X113700000Y-75925000D01*
D43*
X116462500Y-68150000D02*
X117650000Y-68150000D01*
D42*
X134575000Y-82300000D02*
X134575000Y-84625000D01*
D41*
X125600000Y-55200000D02*
X125600000Y-51140000D01*
D42*
X113025000Y-75150000D02*
X112975000Y-75200000D01*
D43*
X122150000Y-69650000D02*
X119900000Y-67400000D01*
D42*
X118340000Y-79050000D02*
X118340000Y-78910000D01*
D41*
X113025000Y-73700000D02*
X113025000Y-72375000D01*
X108900000Y-83500000D02*
X106900000Y-83500000D01*
D42*
X106625000Y-70725000D02*
X107800000Y-71900000D01*
X123050000Y-82050000D02*
X123050000Y-81475000D01*
X112700000Y-60800000D02*
X112700000Y-61500000D01*
X114900000Y-52900000D02*
X115500000Y-53500000D01*
D43*
X114000000Y-52900000D02*
X114900000Y-52900000D01*
X125775000Y-63300000D02*
X125975000Y-63500000D01*
D42*
X113725000Y-80500000D02*
X113725000Y-79525000D01*
X118475000Y-56975000D02*
X119300000Y-57800000D01*
%TO.N,3.3V*%
X127200000Y-54100000D02*
X129400000Y-51900000D01*
X110700000Y-59350000D02*
X109500000Y-58150000D01*
D43*
X123200000Y-71387500D02*
X123200000Y-72625000D01*
X124425000Y-63562500D02*
X123337500Y-64650000D01*
D42*
X123200000Y-72625000D02*
X126425000Y-72625000D01*
X115000000Y-65000000D02*
X112900000Y-62900000D01*
X114900000Y-60900000D02*
X112900000Y-62900000D01*
X112775000Y-69400000D02*
X112775000Y-68100000D01*
D43*
X117550000Y-55075000D02*
X117900000Y-55425000D01*
X116462500Y-68650000D02*
X115850000Y-68650000D01*
D42*
X117325000Y-74225000D02*
X114100000Y-71000000D01*
X124400000Y-62400000D02*
X124400000Y-63475000D01*
X120200000Y-74225000D02*
X121075000Y-75100000D01*
X112575000Y-67425000D02*
X115000000Y-65000000D01*
X126425000Y-72625000D02*
X127700000Y-71350000D01*
X124400000Y-63475000D02*
X124425000Y-63500000D01*
X127375000Y-80100000D02*
X127375000Y-77975000D01*
D43*
X118200000Y-54175000D02*
X118200000Y-55125000D01*
X110700000Y-57200000D02*
X109750000Y-58150000D01*
D42*
X115475000Y-61475000D02*
X117000000Y-61475000D01*
X112775000Y-68100000D02*
X112575000Y-67900000D01*
X125600000Y-67300000D02*
X125600000Y-64675000D01*
D43*
X117150000Y-61625000D02*
X117000000Y-61475000D01*
D42*
X122875000Y-60875000D02*
X124400000Y-62400000D01*
D43*
X110700000Y-56700000D02*
X110700000Y-57200000D01*
X115300000Y-69200000D02*
X112975000Y-69200000D01*
D42*
X122300000Y-60875000D02*
X120790000Y-60875000D01*
D43*
X116250000Y-53650000D02*
X116900000Y-53000000D01*
D42*
X112900000Y-62900000D02*
X110700000Y-60700000D01*
D43*
X117150000Y-63962500D02*
X117150000Y-61625000D01*
D42*
X114900000Y-60900000D02*
X115475000Y-61475000D01*
X120200000Y-74225000D02*
X117325000Y-74225000D01*
X122300000Y-60875000D02*
X122875000Y-60875000D01*
D43*
X116900000Y-53000000D02*
X116900000Y-52575000D01*
D42*
X112575000Y-67900000D02*
X112575000Y-67425000D01*
X127700000Y-75100000D02*
X127700000Y-77650000D01*
X127700000Y-69400000D02*
X125600000Y-67300000D01*
X114900000Y-56000000D02*
X114900000Y-60900000D01*
D43*
X109750000Y-58150000D02*
X109500000Y-58150000D01*
X116250000Y-55275000D02*
X116400000Y-55425000D01*
X116462500Y-64650000D02*
X115350000Y-64650000D01*
D42*
X127375000Y-77975000D02*
X127700000Y-77650000D01*
D43*
X117550000Y-54175000D02*
X117550000Y-55075000D01*
D42*
X114900000Y-56000000D02*
X115825000Y-56000000D01*
X112775000Y-70900000D02*
X112775000Y-69400000D01*
D43*
X113400000Y-56000000D02*
X114900000Y-56000000D01*
D42*
X114100000Y-71000000D02*
X112875000Y-71000000D01*
D43*
X115350000Y-64650000D02*
X115000000Y-65000000D01*
X115850000Y-68650000D02*
X115300000Y-69200000D01*
D42*
X127200000Y-59600000D02*
X127200000Y-54100000D01*
X127700000Y-71350000D02*
X127700000Y-69400000D01*
X127700000Y-71350000D02*
X127700000Y-75100000D01*
X116400000Y-55425000D02*
X117900000Y-55425000D01*
X125600000Y-64675000D02*
X124425000Y-63500000D01*
X124400000Y-62400000D02*
X127200000Y-59600000D01*
D43*
X124425000Y-63500000D02*
X124425000Y-63562500D01*
X122650000Y-70837500D02*
X123200000Y-71387500D01*
D42*
X112875000Y-71000000D02*
X112775000Y-70900000D01*
D43*
X118200000Y-55125000D02*
X117900000Y-55425000D01*
X112975000Y-69200000D02*
X112775000Y-69400000D01*
D42*
X115825000Y-56000000D02*
X116400000Y-55425000D01*
D43*
X116250000Y-54175000D02*
X116250000Y-55275000D01*
X116250000Y-54175000D02*
X116250000Y-53650000D01*
D42*
X121075000Y-75100000D02*
X127700000Y-75100000D01*
X110700000Y-60700000D02*
X110700000Y-59350000D01*
D41*
%TO.N,7.4V*%
X108500000Y-76375000D02*
X108500000Y-78275000D01*
X110300000Y-76550000D02*
X111600000Y-76550000D01*
X112400000Y-77350000D02*
X111600000Y-76550000D01*
X111600000Y-76550000D02*
X112725000Y-76550000D01*
X114850000Y-82100000D02*
X116800000Y-82100000D01*
X112725000Y-76550000D02*
X112975000Y-76800000D01*
D43*
X118160000Y-82350000D02*
X117050000Y-82350000D01*
D41*
X112400000Y-82150000D02*
X114800000Y-82150000D01*
D43*
X117050000Y-82350000D02*
X116800000Y-82100000D01*
D41*
X115275000Y-81675000D02*
X115275000Y-80500000D01*
X114800000Y-82150000D02*
X114850000Y-82100000D01*
X110125000Y-76375000D02*
X110300000Y-76550000D01*
X112400000Y-82150000D02*
X112400000Y-77350000D01*
X114800000Y-82150000D02*
X115275000Y-81675000D01*
X108500000Y-76375000D02*
X110125000Y-76375000D01*
D42*
%TO.N,5V*%
X129100000Y-83650000D02*
X129100000Y-84800000D01*
X123900000Y-76000000D02*
X126900000Y-76000000D01*
X130650000Y-83650000D02*
X131650000Y-84650000D01*
X130575000Y-78225000D02*
X130000000Y-77650000D01*
X122800000Y-77100000D02*
X123900000Y-76000000D01*
X130575000Y-81250000D02*
X131625000Y-82300000D01*
X131800000Y-56660000D02*
X134000000Y-54460000D01*
X104550000Y-54450000D02*
X107000000Y-52000000D01*
X128600000Y-76000000D02*
X128600000Y-76250000D01*
X104550000Y-82850000D02*
X104550000Y-72470000D01*
X132350000Y-77650000D02*
X134000000Y-76000000D01*
X104550000Y-57010000D02*
X102000000Y-54460000D01*
X130275000Y-83650000D02*
X131625000Y-82300000D01*
X122800000Y-77450000D02*
X122800000Y-77100000D01*
X122750000Y-77500000D02*
X122800000Y-77450000D01*
X130575000Y-80300000D02*
X130575000Y-81250000D01*
X104550000Y-72470000D02*
X102000000Y-69920000D01*
X104550000Y-63470000D02*
X104550000Y-57010000D01*
X104550000Y-57010000D02*
X104550000Y-54450000D01*
X121300000Y-77500000D02*
X122750000Y-77500000D01*
X104550000Y-63470000D02*
X102000000Y-60920000D01*
X103160000Y-81460000D02*
X102000000Y-81460000D01*
X130575000Y-80300000D02*
X130575000Y-78225000D01*
X128600000Y-76250000D02*
X130000000Y-77650000D01*
X104600000Y-82900000D02*
X104550000Y-82850000D01*
X130000000Y-77650000D02*
X131800000Y-77650000D01*
X129100000Y-83650000D02*
X130650000Y-83650000D01*
X104550000Y-82850000D02*
X103160000Y-81460000D01*
X104600000Y-84800000D02*
X104600000Y-82900000D01*
X131800000Y-77650000D02*
X131800000Y-63580000D01*
X131800000Y-63580000D02*
X134000000Y-61380000D01*
X131800000Y-77650000D02*
X132350000Y-77650000D01*
X131800000Y-63580000D02*
X131800000Y-56660000D01*
X129100000Y-83650000D02*
X130275000Y-83650000D01*
X104550000Y-72470000D02*
X104550000Y-63470000D01*
D43*
%TO.N,Net-(MP2331H1-PG)*%
X118160000Y-80780000D02*
X118340000Y-80600000D01*
X118160000Y-81850000D02*
X118160000Y-80780000D01*
%TO.N,Net-(MP2331H1-SS)*%
X120050000Y-82350000D02*
X120600000Y-81800000D01*
X120850000Y-82050000D02*
X121500000Y-82050000D01*
X120600000Y-81800000D02*
X120850000Y-82050000D01*
X119640000Y-82350000D02*
X120050000Y-82350000D01*
X121200000Y-82350000D02*
X121500000Y-82050000D01*
%TO.N,Net-(U1-VCAP1)*%
X121600000Y-72525000D02*
X121700000Y-72625000D01*
X121650000Y-70837500D02*
X121600000Y-70887500D01*
X121600000Y-70887500D02*
X121600000Y-72525000D01*
%TO.N,Net-(U1-PH0)*%
X108250000Y-66200000D02*
X108250000Y-64275000D01*
X114400000Y-66700000D02*
X116412500Y-66700000D01*
X108250000Y-66200000D02*
X112700000Y-66200000D01*
X108250000Y-64275000D02*
X108175000Y-64200000D01*
X116412500Y-66700000D02*
X116462500Y-66650000D01*
D42*
%TO.N,Net-(C11-Pad1)*%
X124450000Y-83550000D02*
X124500000Y-83500000D01*
X123100000Y-83550000D02*
X124450000Y-83550000D01*
%TO.N,Net-(MP2331H1-SW)*%
X124500000Y-81950000D02*
X124700000Y-81950000D01*
D43*
X118100000Y-82800000D02*
X117200000Y-82800000D01*
X118150000Y-82850000D02*
X118100000Y-82800000D01*
D42*
X124500000Y-82200000D02*
X124400000Y-82300000D01*
X124500000Y-81950000D02*
X124500000Y-82200000D01*
X124700000Y-81950000D02*
X126400000Y-83650000D01*
D43*
X118160000Y-82850000D02*
X118150000Y-82850000D01*
X117200000Y-82800000D02*
X116800000Y-83200000D01*
%TO.N,Net-(U1-PH1)*%
X115550000Y-67150000D02*
X116462500Y-67150000D01*
X108250000Y-68400000D02*
X108350000Y-68300000D01*
X108250000Y-70125000D02*
X108175000Y-70200000D01*
X108250000Y-68400000D02*
X108250000Y-70125000D01*
X108250000Y-70325000D02*
X108175000Y-70400000D01*
X115400000Y-67300000D02*
X115550000Y-67150000D01*
X108350000Y-68300000D02*
X111600000Y-68300000D01*
D42*
%TO.N,Net-(C13-Pad1)*%
X121300000Y-79050000D02*
X121350000Y-79100000D01*
X119800000Y-79100000D02*
X121250000Y-79100000D01*
X121425000Y-79175000D02*
X121300000Y-79050000D01*
X121350000Y-79100000D02*
X122800000Y-79100000D01*
X121250000Y-79100000D02*
X121300000Y-79050000D01*
X121425000Y-80500000D02*
X121425000Y-79175000D01*
D43*
%TO.N,Net-(U3-REGOUT)*%
X111700000Y-58250000D02*
X111700000Y-56700000D01*
X112200000Y-58750000D02*
X111700000Y-58250000D01*
%TO.N,Net-(U3-CPOUT)*%
X112200000Y-51350000D02*
X112200000Y-52800000D01*
X112750000Y-50800000D02*
X112200000Y-51350000D01*
%TO.N,Net-(U1-PA1)*%
X114575000Y-75150000D02*
X114625000Y-75200000D01*
X114575000Y-73325000D02*
X114600000Y-73300000D01*
X114575000Y-73700000D02*
X114575000Y-73325000D01*
X114625000Y-75200000D02*
X114625000Y-76800000D01*
X115450000Y-69650000D02*
X116462500Y-69650000D01*
X114575000Y-73700000D02*
X114575000Y-75150000D01*
X115200000Y-69900000D02*
X115450000Y-69650000D01*
%TO.N,Net-(D1-A)*%
X130200000Y-64575000D02*
X130200000Y-66000000D01*
%TO.N,Net-(D2-A)*%
X128600000Y-64600000D02*
X128600000Y-65987500D01*
D41*
%TO.N,Net-(J1-Pin_1)*%
X106000000Y-80900000D02*
X106000000Y-77950000D01*
X108900000Y-81500000D02*
X108300000Y-80900000D01*
X106000000Y-77950000D02*
X106625000Y-77325000D01*
X108300000Y-80900000D02*
X106000000Y-80900000D01*
D43*
%TO.N,SWDIO*%
X124150000Y-65650000D02*
X123337500Y-65650000D01*
X124300000Y-65500000D02*
X124150000Y-65650000D01*
%TO.N,SWDCLK*%
X122650000Y-63850000D02*
X122650000Y-63962500D01*
X128000000Y-58800000D02*
X128000000Y-59900000D01*
X123200000Y-63300000D02*
X122650000Y-63850000D01*
X128000000Y-59900000D02*
X125400000Y-62500000D01*
%TO.N,Net-(J3-Pin_3)*%
X124400000Y-68400000D02*
X124150000Y-68150000D01*
X124150000Y-68150000D02*
X123337500Y-68150000D01*
%TO.N,Net-(J4-Pin_3)*%
X124550000Y-67650000D02*
X123337500Y-67650000D01*
X125400000Y-71500000D02*
X125400000Y-68500000D01*
X110800000Y-74300000D02*
X111800000Y-75300000D01*
X125400000Y-68500000D02*
X124550000Y-67650000D01*
X105300000Y-63600000D02*
X105300000Y-70700000D01*
X125100000Y-71800000D02*
X125400000Y-71500000D01*
%TO.N,Net-(J5-Pin_3)*%
X124250000Y-67150000D02*
X123337500Y-67150000D01*
X124400000Y-67000000D02*
X124250000Y-67150000D01*
X131000000Y-61100000D02*
X130300000Y-61800000D01*
X131000000Y-58700000D02*
X131000000Y-61100000D01*
%TO.N,Net-(J6-Pin_3)*%
X130000000Y-75400000D02*
X130000000Y-73700000D01*
X123789386Y-66650000D02*
X123337500Y-66650000D01*
X131000000Y-76400000D02*
X130000000Y-75400000D01*
X130300000Y-71000000D02*
X130300000Y-70700000D01*
X130300000Y-70700000D02*
X126400000Y-66800000D01*
X124800000Y-66200000D02*
X124239386Y-66200000D01*
X130000000Y-73700000D02*
X130200000Y-73500000D01*
X124239386Y-66200000D02*
X123789386Y-66650000D01*
%TO.N,USART2_RX*%
X117100000Y-70887500D02*
X117150000Y-70837500D01*
X132600000Y-72400000D02*
X132600000Y-73200000D01*
X133900000Y-71100000D02*
X132600000Y-72400000D01*
X117100000Y-71900000D02*
X117100000Y-70887500D01*
%TO.N,USART2_TX*%
X118700000Y-73400000D02*
X117600000Y-73400000D01*
X131000000Y-66700000D02*
X131000000Y-71800000D01*
X115850000Y-70150000D02*
X116462500Y-70150000D01*
X131000000Y-71800000D02*
X128500000Y-74300000D01*
X117600000Y-73400000D02*
X115100000Y-70900000D01*
X115100000Y-70900000D02*
X115850000Y-70150000D01*
%TO.N,USART1_TX*%
X120150000Y-63250000D02*
X120150000Y-63962500D01*
X119800000Y-62800000D02*
X120200000Y-63200000D01*
X120200000Y-63200000D02*
X120150000Y-63250000D01*
X119800000Y-62500000D02*
X119800000Y-62800000D01*
%TO.N,USART1_RX*%
X119275736Y-60875736D02*
X119275736Y-62175735D01*
X119650000Y-63250000D02*
X119650000Y-63962500D01*
X119224265Y-62175735D02*
X118900000Y-62500000D01*
X118900000Y-62500000D02*
X119650000Y-63250000D01*
X119275736Y-62175735D02*
X119224265Y-62175735D01*
X119100000Y-60700000D02*
X119275736Y-60875736D01*
D42*
%TO.N,Video*%
X102000000Y-66000000D02*
X103800000Y-67800000D01*
X103800000Y-73200000D02*
X102000000Y-75000000D01*
X103800000Y-67800000D02*
X103800000Y-70400000D01*
X103800000Y-72800000D02*
X103800000Y-73200000D01*
D43*
%TO.N,Net-(MP2331H1-FB)*%
X119640000Y-80635000D02*
X119775000Y-80500000D01*
X119640000Y-81850000D02*
X119640000Y-80635000D01*
%TO.N,Net-(MP2331H1-EN)*%
X120500000Y-82900000D02*
X119690000Y-82900000D01*
X119690000Y-82900000D02*
X119640000Y-82850000D01*
X116800000Y-80450000D02*
X116800000Y-79200000D01*
%TO.N,Net-(MP2331H1-BST)*%
X119850000Y-83350000D02*
X120500000Y-84000000D01*
X121250000Y-83350000D02*
X121450000Y-83550000D01*
X120950000Y-83550000D02*
X121450000Y-83550000D01*
X119640000Y-83350000D02*
X119850000Y-83350000D01*
X120500000Y-84000000D02*
X120950000Y-83550000D01*
%TO.N,Net-(U1-BOOT0)*%
X118500000Y-61525000D02*
X118500000Y-63000000D01*
X118500000Y-63000000D02*
X118700000Y-63200000D01*
X119000000Y-63200000D02*
X119150000Y-63350000D01*
X118700000Y-63200000D02*
X119000000Y-63200000D01*
X119150000Y-63350000D02*
X119150000Y-63962500D01*
%TO.N,Net-(SW1-B)*%
X121100000Y-51140000D02*
X121100000Y-59100000D01*
X114225000Y-67900000D02*
X115100000Y-67900000D01*
X115950000Y-67650000D02*
X116462500Y-67650000D01*
X121100000Y-59100000D02*
X121100000Y-59700000D01*
X115100000Y-67900000D02*
X115400000Y-68200000D01*
X115400000Y-68200000D02*
X115950000Y-67650000D01*
%TO.N,Net-(U1-PB13)*%
X124350000Y-69650000D02*
X123337500Y-69650000D01*
X129100000Y-68600000D02*
X129250000Y-68600000D01*
X129250000Y-68600000D02*
X130200000Y-67650000D01*
X124600000Y-69900000D02*
X124350000Y-69650000D01*
%TO.N,Net-(U1-PB14)*%
X128237500Y-67637500D02*
X128200000Y-67600000D01*
X128600000Y-67637500D02*
X128237500Y-67637500D01*
X124800000Y-69100000D02*
X123387500Y-69100000D01*
X123387500Y-69100000D02*
X123337500Y-69150000D01*
%TO.N,SDA*%
X122400000Y-61800000D02*
X122400000Y-62425000D01*
X121650000Y-63175000D02*
X121650000Y-63962500D01*
X110200000Y-51300000D02*
X110400000Y-51100000D01*
X122400000Y-62425000D02*
X122300000Y-62525000D01*
X122700000Y-52500000D02*
X122700000Y-57600000D01*
X122300000Y-62525000D02*
X121650000Y-63175000D01*
X117500000Y-51200000D02*
X117500000Y-52525000D01*
X110200000Y-52800000D02*
X110200000Y-51300000D01*
X117500000Y-52525000D02*
X117550000Y-52575000D01*
%TO.N,INT*%
X115700000Y-58200000D02*
X118600000Y-58200000D01*
X119700000Y-61435000D02*
X120790000Y-62525000D01*
X112700000Y-56700000D02*
X114000000Y-58000000D01*
X118600000Y-58200000D02*
X119700000Y-59300000D01*
X114000000Y-58000000D02*
X114000000Y-58200000D01*
X120790000Y-62525000D02*
X121150000Y-62885000D01*
X119700000Y-59300000D02*
X119700000Y-61435000D01*
X121150000Y-62885000D02*
X121150000Y-63962500D01*
%TO.N,SCL*%
X110700000Y-52800000D02*
X110700000Y-52100000D01*
X118200000Y-52100000D02*
X118200000Y-52575000D01*
X121150000Y-70837500D02*
X121150000Y-71625000D01*
X119800000Y-72175000D02*
X120200000Y-72575000D01*
X110700000Y-52100000D02*
X111000000Y-51800000D01*
X121150000Y-71625000D02*
X120200000Y-72575000D01*
X119800000Y-72000000D02*
X119800000Y-72175000D01*
X121800000Y-52600000D02*
X121800000Y-57600000D01*
%TD*%
M02*
