M48
; DRILL file {KiCad 9.0.9-1.fc43} date 2026-05-26T22:44:51+0530
; FORMAT={-:-/ absolute / metric / decimal}
; #@! TF.CreationDate,2026-05-26T22:44:51+05:30
; #@! TF.GenerationSoftware,Kicad,Pcbnew,9.0.9-1.fc43
; #@! TF.FileFunction,Plated,1,2,PTH
FMAT,2
METRIC
; #@! TA.AperFunction,Plated,PTH,ViaDrill
T1C0.300
; #@! TA.AperFunction,Plated,PTH,ComponentDrill
T2C0.750
; #@! TA.AperFunction,Plated,PTH,ComponentDrill
T3C1.000
%
G90
G05
T1
X103.8Y-70.4
X103.8Y-72.8
X104.6Y-84.8
X105.3Y-63.6
X105.3Y-70.7
X105.5Y-82.0
X106.2Y-73.5
X106.6Y-63.4
X108.2Y-53.4
X109.5Y-61.0
X110.4Y-51.1
X110.8Y-74.3
X111.0Y-51.8
X111.0Y-57.8
X111.2Y-78.9
X111.6Y-68.3
X111.8Y-75.3
X112.3Y-57.7
X112.7Y-61.5
X112.7Y-66.2
X112.8Y-64.9
X113.1Y-72.3
X113.7Y-76.0
X113.7Y-79.5
X114.0Y-58.2
X114.4Y-66.7
X114.5Y-53.5
X114.6Y-73.3
X115.2Y-69.9
X115.4Y-55.0
X115.4Y-67.3
X115.4Y-68.2
X115.5Y-53.5
X115.7Y-58.2
X116.8Y-79.2
X116.8Y-83.2
X117.1Y-71.9
X117.4Y-53.4
X117.5Y-51.2
X117.5Y-58.8
X117.9Y-77.8
X118.2Y-52.1
X118.7Y-73.4
X119.1Y-60.7
X119.3Y-57.8
X119.8Y-62.5
X119.8Y-72.0
X119.8Y-76.4
X119.9Y-67.4
X120.5Y-82.9
X121.1Y-59.7
X121.8Y-52.6
X121.8Y-57.6
X122.4Y-61.8
X122.7Y-52.5
X122.7Y-57.6
X123.1Y-80.6
X123.2Y-63.3
X123.7Y-55.2
X124.3Y-64.6
X124.3Y-65.5
X124.3Y-77.7
X124.4Y-67.0
X124.4Y-68.4
X124.4Y-82.3
X124.6Y-69.9
X124.6Y-74.3
X124.8Y-66.2
X124.8Y-69.1
X125.1Y-71.8
X125.4Y-62.5
X125.4Y-63.3
X125.6Y-59.7
X126.4Y-66.8
X126.9Y-76.0
X128.0Y-58.8
X128.2Y-67.6
X128.5Y-74.3
X128.6Y-76.0
X128.8Y-79.2
X129.1Y-68.6
X129.1Y-84.8
X130.2Y-73.5
X130.3Y-61.8
X130.3Y-71.0
X130.9Y-63.5
X131.0Y-58.7
X131.0Y-66.7
X131.0Y-76.4
X132.6Y-73.2
X133.9Y-71.1
X134.6Y-80.7
T2
X108.9Y-81.5
X108.9Y-83.5
T3
X102.0Y-51.92
X102.0Y-54.46
X102.0Y-57.0
X102.0Y-60.92
X102.0Y-63.46
X102.0Y-66.0
X102.0Y-69.92
X102.0Y-72.46
X102.0Y-75.0
X102.0Y-78.92
X102.0Y-81.46
X102.0Y-84.0
X107.0Y-52.0
X107.0Y-54.54
X107.0Y-57.08
X107.0Y-59.62
X129.4Y-51.9
X129.4Y-54.44
X129.4Y-56.98
X129.4Y-59.52
X134.0Y-51.92
X134.0Y-54.46
X134.0Y-57.0
X134.0Y-61.38
X134.0Y-63.92
X134.0Y-66.46
X134.0Y-69.0
X134.0Y-73.46
X134.0Y-76.0
X134.0Y-78.54
M30
