%TF.GenerationSoftware,KiCad,Pcbnew,9.0.9-1.fc43*%
%TF.CreationDate,2026-05-26T22:42:04+05:30*%
%TF.ProjectId,MetalBird,4d657461-6c42-4697-9264-2e6b69636164,rev?*%
%TF.SameCoordinates,Original*%
%TF.FileFunction,Legend,Top*%
%TF.FilePolarity,Positive*%
%FSLAX46Y46*%
G04 Gerber Fmt 4.6, Leading zero omitted, Abs format (unit mm)*
G04 Created by KiCad (PCBNEW 9.0.9-1.fc43) date 2026-05-26 22:42:04*
%MOMM*%
%LPD*%
G01*
G04 APERTURE LIST*
%ADD10C,0.150000*%
%ADD11C,0.120000*%
%ADD12C,0.100000*%
G04 APERTURE END LIST*
D10*
X113157142Y-74059580D02*
X113109523Y-74107200D01*
X113109523Y-74107200D02*
X112966666Y-74154819D01*
X112966666Y-74154819D02*
X112871428Y-74154819D01*
X112871428Y-74154819D02*
X112728571Y-74107200D01*
X112728571Y-74107200D02*
X112633333Y-74011961D01*
X112633333Y-74011961D02*
X112585714Y-73916723D01*
X112585714Y-73916723D02*
X112538095Y-73726247D01*
X112538095Y-73726247D02*
X112538095Y-73583390D01*
X112538095Y-73583390D02*
X112585714Y-73392914D01*
X112585714Y-73392914D02*
X112633333Y-73297676D01*
X112633333Y-73297676D02*
X112728571Y-73202438D01*
X112728571Y-73202438D02*
X112871428Y-73154819D01*
X112871428Y-73154819D02*
X112966666Y-73154819D01*
X112966666Y-73154819D02*
X113109523Y-73202438D01*
X113109523Y-73202438D02*
X113157142Y-73250057D01*
X113538095Y-73250057D02*
X113585714Y-73202438D01*
X113585714Y-73202438D02*
X113680952Y-73154819D01*
X113680952Y-73154819D02*
X113919047Y-73154819D01*
X113919047Y-73154819D02*
X114014285Y-73202438D01*
X114014285Y-73202438D02*
X114061904Y-73250057D01*
X114061904Y-73250057D02*
X114109523Y-73345295D01*
X114109523Y-73345295D02*
X114109523Y-73440533D01*
X114109523Y-73440533D02*
X114061904Y-73583390D01*
X114061904Y-73583390D02*
X113490476Y-74154819D01*
X113490476Y-74154819D02*
X114109523Y-74154819D01*
X115014285Y-73154819D02*
X114538095Y-73154819D01*
X114538095Y-73154819D02*
X114490476Y-73631009D01*
X114490476Y-73631009D02*
X114538095Y-73583390D01*
X114538095Y-73583390D02*
X114633333Y-73535771D01*
X114633333Y-73535771D02*
X114871428Y-73535771D01*
X114871428Y-73535771D02*
X114966666Y-73583390D01*
X114966666Y-73583390D02*
X115014285Y-73631009D01*
X115014285Y-73631009D02*
X115061904Y-73726247D01*
X115061904Y-73726247D02*
X115061904Y-73964342D01*
X115061904Y-73964342D02*
X115014285Y-74059580D01*
X115014285Y-74059580D02*
X114966666Y-74107200D01*
X114966666Y-74107200D02*
X114871428Y-74154819D01*
X114871428Y-74154819D02*
X114633333Y-74154819D01*
X114633333Y-74154819D02*
X114538095Y-74107200D01*
X114538095Y-74107200D02*
X114490476Y-74059580D01*
X101666666Y-80914819D02*
X101666666Y-81629104D01*
X101666666Y-81629104D02*
X101619047Y-81771961D01*
X101619047Y-81771961D02*
X101523809Y-81867200D01*
X101523809Y-81867200D02*
X101380952Y-81914819D01*
X101380952Y-81914819D02*
X101285714Y-81914819D01*
X102047619Y-80914819D02*
X102666666Y-80914819D01*
X102666666Y-80914819D02*
X102333333Y-81295771D01*
X102333333Y-81295771D02*
X102476190Y-81295771D01*
X102476190Y-81295771D02*
X102571428Y-81343390D01*
X102571428Y-81343390D02*
X102619047Y-81391009D01*
X102619047Y-81391009D02*
X102666666Y-81486247D01*
X102666666Y-81486247D02*
X102666666Y-81724342D01*
X102666666Y-81724342D02*
X102619047Y-81819580D01*
X102619047Y-81819580D02*
X102571428Y-81867200D01*
X102571428Y-81867200D02*
X102476190Y-81914819D01*
X102476190Y-81914819D02*
X102190476Y-81914819D01*
X102190476Y-81914819D02*
X102095238Y-81867200D01*
X102095238Y-81867200D02*
X102047619Y-81819580D01*
X113428571Y-80859580D02*
X113380952Y-80907200D01*
X113380952Y-80907200D02*
X113238095Y-80954819D01*
X113238095Y-80954819D02*
X113142857Y-80954819D01*
X113142857Y-80954819D02*
X113000000Y-80907200D01*
X113000000Y-80907200D02*
X112904762Y-80811961D01*
X112904762Y-80811961D02*
X112857143Y-80716723D01*
X112857143Y-80716723D02*
X112809524Y-80526247D01*
X112809524Y-80526247D02*
X112809524Y-80383390D01*
X112809524Y-80383390D02*
X112857143Y-80192914D01*
X112857143Y-80192914D02*
X112904762Y-80097676D01*
X112904762Y-80097676D02*
X113000000Y-80002438D01*
X113000000Y-80002438D02*
X113142857Y-79954819D01*
X113142857Y-79954819D02*
X113238095Y-79954819D01*
X113238095Y-79954819D02*
X113380952Y-80002438D01*
X113380952Y-80002438D02*
X113428571Y-80050057D01*
X114380952Y-80954819D02*
X113809524Y-80954819D01*
X114095238Y-80954819D02*
X114095238Y-79954819D01*
X114095238Y-79954819D02*
X114000000Y-80097676D01*
X114000000Y-80097676D02*
X113904762Y-80192914D01*
X113904762Y-80192914D02*
X113809524Y-80240533D01*
X114761905Y-80669104D02*
X115238095Y-80669104D01*
X114666667Y-80954819D02*
X115000000Y-79954819D01*
X115000000Y-79954819D02*
X115333333Y-80954819D01*
X116190476Y-80954819D02*
X115619048Y-80954819D01*
X115904762Y-80954819D02*
X115904762Y-79954819D01*
X115904762Y-79954819D02*
X115809524Y-80097676D01*
X115809524Y-80097676D02*
X115714286Y-80192914D01*
X115714286Y-80192914D02*
X115619048Y-80240533D01*
X118259580Y-56842857D02*
X118307200Y-56890476D01*
X118307200Y-56890476D02*
X118354819Y-57033333D01*
X118354819Y-57033333D02*
X118354819Y-57128571D01*
X118354819Y-57128571D02*
X118307200Y-57271428D01*
X118307200Y-57271428D02*
X118211961Y-57366666D01*
X118211961Y-57366666D02*
X118116723Y-57414285D01*
X118116723Y-57414285D02*
X117926247Y-57461904D01*
X117926247Y-57461904D02*
X117783390Y-57461904D01*
X117783390Y-57461904D02*
X117592914Y-57414285D01*
X117592914Y-57414285D02*
X117497676Y-57366666D01*
X117497676Y-57366666D02*
X117402438Y-57271428D01*
X117402438Y-57271428D02*
X117354819Y-57128571D01*
X117354819Y-57128571D02*
X117354819Y-57033333D01*
X117354819Y-57033333D02*
X117402438Y-56890476D01*
X117402438Y-56890476D02*
X117450057Y-56842857D01*
X117450057Y-56461904D02*
X117402438Y-56414285D01*
X117402438Y-56414285D02*
X117354819Y-56319047D01*
X117354819Y-56319047D02*
X117354819Y-56080952D01*
X117354819Y-56080952D02*
X117402438Y-55985714D01*
X117402438Y-55985714D02*
X117450057Y-55938095D01*
X117450057Y-55938095D02*
X117545295Y-55890476D01*
X117545295Y-55890476D02*
X117640533Y-55890476D01*
X117640533Y-55890476D02*
X117783390Y-55938095D01*
X117783390Y-55938095D02*
X118354819Y-56509523D01*
X118354819Y-56509523D02*
X118354819Y-55890476D01*
X117450057Y-55509523D02*
X117402438Y-55461904D01*
X117402438Y-55461904D02*
X117354819Y-55366666D01*
X117354819Y-55366666D02*
X117354819Y-55128571D01*
X117354819Y-55128571D02*
X117402438Y-55033333D01*
X117402438Y-55033333D02*
X117450057Y-54985714D01*
X117450057Y-54985714D02*
X117545295Y-54938095D01*
X117545295Y-54938095D02*
X117640533Y-54938095D01*
X117640533Y-54938095D02*
X117783390Y-54985714D01*
X117783390Y-54985714D02*
X118354819Y-55557142D01*
X118354819Y-55557142D02*
X118354819Y-54938095D01*
X129066666Y-55164819D02*
X129066666Y-55879104D01*
X129066666Y-55879104D02*
X129019047Y-56021961D01*
X129019047Y-56021961D02*
X128923809Y-56117200D01*
X128923809Y-56117200D02*
X128780952Y-56164819D01*
X128780952Y-56164819D02*
X128685714Y-56164819D01*
X129495238Y-55260057D02*
X129542857Y-55212438D01*
X129542857Y-55212438D02*
X129638095Y-55164819D01*
X129638095Y-55164819D02*
X129876190Y-55164819D01*
X129876190Y-55164819D02*
X129971428Y-55212438D01*
X129971428Y-55212438D02*
X130019047Y-55260057D01*
X130019047Y-55260057D02*
X130066666Y-55355295D01*
X130066666Y-55355295D02*
X130066666Y-55450533D01*
X130066666Y-55450533D02*
X130019047Y-55593390D01*
X130019047Y-55593390D02*
X129447619Y-56164819D01*
X129447619Y-56164819D02*
X130066666Y-56164819D01*
X132457142Y-82659580D02*
X132409523Y-82707200D01*
X132409523Y-82707200D02*
X132266666Y-82754819D01*
X132266666Y-82754819D02*
X132171428Y-82754819D01*
X132171428Y-82754819D02*
X132028571Y-82707200D01*
X132028571Y-82707200D02*
X131933333Y-82611961D01*
X131933333Y-82611961D02*
X131885714Y-82516723D01*
X131885714Y-82516723D02*
X131838095Y-82326247D01*
X131838095Y-82326247D02*
X131838095Y-82183390D01*
X131838095Y-82183390D02*
X131885714Y-81992914D01*
X131885714Y-81992914D02*
X131933333Y-81897676D01*
X131933333Y-81897676D02*
X132028571Y-81802438D01*
X132028571Y-81802438D02*
X132171428Y-81754819D01*
X132171428Y-81754819D02*
X132266666Y-81754819D01*
X132266666Y-81754819D02*
X132409523Y-81802438D01*
X132409523Y-81802438D02*
X132457142Y-81850057D01*
X133409523Y-82754819D02*
X132838095Y-82754819D01*
X133123809Y-82754819D02*
X133123809Y-81754819D01*
X133123809Y-81754819D02*
X133028571Y-81897676D01*
X133028571Y-81897676D02*
X132933333Y-81992914D01*
X132933333Y-81992914D02*
X132838095Y-82040533D01*
X134266666Y-82088152D02*
X134266666Y-82754819D01*
X134028571Y-81707200D02*
X133790476Y-82421485D01*
X133790476Y-82421485D02*
X134409523Y-82421485D01*
X107467261Y-77875057D02*
X107372023Y-77827438D01*
X107372023Y-77827438D02*
X107276785Y-77732200D01*
X107276785Y-77732200D02*
X107133928Y-77589342D01*
X107133928Y-77589342D02*
X107038690Y-77541723D01*
X107038690Y-77541723D02*
X106943452Y-77541723D01*
X106991071Y-77779819D02*
X106895833Y-77732200D01*
X106895833Y-77732200D02*
X106800595Y-77636961D01*
X106800595Y-77636961D02*
X106752976Y-77446485D01*
X106752976Y-77446485D02*
X106752976Y-77113152D01*
X106752976Y-77113152D02*
X106800595Y-76922676D01*
X106800595Y-76922676D02*
X106895833Y-76827438D01*
X106895833Y-76827438D02*
X106991071Y-76779819D01*
X106991071Y-76779819D02*
X107181547Y-76779819D01*
X107181547Y-76779819D02*
X107276785Y-76827438D01*
X107276785Y-76827438D02*
X107372023Y-76922676D01*
X107372023Y-76922676D02*
X107419642Y-77113152D01*
X107419642Y-77113152D02*
X107419642Y-77446485D01*
X107419642Y-77446485D02*
X107372023Y-77636961D01*
X107372023Y-77636961D02*
X107276785Y-77732200D01*
X107276785Y-77732200D02*
X107181547Y-77779819D01*
X107181547Y-77779819D02*
X106991071Y-77779819D01*
X108372023Y-77779819D02*
X107800595Y-77779819D01*
X108086309Y-77779819D02*
X108086309Y-76779819D01*
X108086309Y-76779819D02*
X107991071Y-76922676D01*
X107991071Y-76922676D02*
X107895833Y-77017914D01*
X107895833Y-77017914D02*
X107800595Y-77065533D01*
X101666666Y-53914819D02*
X101666666Y-54629104D01*
X101666666Y-54629104D02*
X101619047Y-54771961D01*
X101619047Y-54771961D02*
X101523809Y-54867200D01*
X101523809Y-54867200D02*
X101380952Y-54914819D01*
X101380952Y-54914819D02*
X101285714Y-54914819D01*
X102571428Y-54248152D02*
X102571428Y-54914819D01*
X102333333Y-53867200D02*
X102095238Y-54581485D01*
X102095238Y-54581485D02*
X102714285Y-54581485D01*
X112882142Y-51159580D02*
X112834523Y-51207200D01*
X112834523Y-51207200D02*
X112691666Y-51254819D01*
X112691666Y-51254819D02*
X112596428Y-51254819D01*
X112596428Y-51254819D02*
X112453571Y-51207200D01*
X112453571Y-51207200D02*
X112358333Y-51111961D01*
X112358333Y-51111961D02*
X112310714Y-51016723D01*
X112310714Y-51016723D02*
X112263095Y-50826247D01*
X112263095Y-50826247D02*
X112263095Y-50683390D01*
X112263095Y-50683390D02*
X112310714Y-50492914D01*
X112310714Y-50492914D02*
X112358333Y-50397676D01*
X112358333Y-50397676D02*
X112453571Y-50302438D01*
X112453571Y-50302438D02*
X112596428Y-50254819D01*
X112596428Y-50254819D02*
X112691666Y-50254819D01*
X112691666Y-50254819D02*
X112834523Y-50302438D01*
X112834523Y-50302438D02*
X112882142Y-50350057D01*
X113263095Y-50350057D02*
X113310714Y-50302438D01*
X113310714Y-50302438D02*
X113405952Y-50254819D01*
X113405952Y-50254819D02*
X113644047Y-50254819D01*
X113644047Y-50254819D02*
X113739285Y-50302438D01*
X113739285Y-50302438D02*
X113786904Y-50350057D01*
X113786904Y-50350057D02*
X113834523Y-50445295D01*
X113834523Y-50445295D02*
X113834523Y-50540533D01*
X113834523Y-50540533D02*
X113786904Y-50683390D01*
X113786904Y-50683390D02*
X113215476Y-51254819D01*
X113215476Y-51254819D02*
X113834523Y-51254819D01*
X114786904Y-51254819D02*
X114215476Y-51254819D01*
X114501190Y-51254819D02*
X114501190Y-50254819D01*
X114501190Y-50254819D02*
X114405952Y-50397676D01*
X114405952Y-50397676D02*
X114310714Y-50492914D01*
X114310714Y-50492914D02*
X114215476Y-50540533D01*
X106757142Y-70559580D02*
X106709523Y-70607200D01*
X106709523Y-70607200D02*
X106566666Y-70654819D01*
X106566666Y-70654819D02*
X106471428Y-70654819D01*
X106471428Y-70654819D02*
X106328571Y-70607200D01*
X106328571Y-70607200D02*
X106233333Y-70511961D01*
X106233333Y-70511961D02*
X106185714Y-70416723D01*
X106185714Y-70416723D02*
X106138095Y-70226247D01*
X106138095Y-70226247D02*
X106138095Y-70083390D01*
X106138095Y-70083390D02*
X106185714Y-69892914D01*
X106185714Y-69892914D02*
X106233333Y-69797676D01*
X106233333Y-69797676D02*
X106328571Y-69702438D01*
X106328571Y-69702438D02*
X106471428Y-69654819D01*
X106471428Y-69654819D02*
X106566666Y-69654819D01*
X106566666Y-69654819D02*
X106709523Y-69702438D01*
X106709523Y-69702438D02*
X106757142Y-69750057D01*
X107709523Y-70654819D02*
X107138095Y-70654819D01*
X107423809Y-70654819D02*
X107423809Y-69654819D01*
X107423809Y-69654819D02*
X107328571Y-69797676D01*
X107328571Y-69797676D02*
X107233333Y-69892914D01*
X107233333Y-69892914D02*
X107138095Y-69940533D01*
X108090476Y-69750057D02*
X108138095Y-69702438D01*
X108138095Y-69702438D02*
X108233333Y-69654819D01*
X108233333Y-69654819D02*
X108471428Y-69654819D01*
X108471428Y-69654819D02*
X108566666Y-69702438D01*
X108566666Y-69702438D02*
X108614285Y-69750057D01*
X108614285Y-69750057D02*
X108661904Y-69845295D01*
X108661904Y-69845295D02*
X108661904Y-69940533D01*
X108661904Y-69940533D02*
X108614285Y-70083390D01*
X108614285Y-70083390D02*
X108042857Y-70654819D01*
X108042857Y-70654819D02*
X108661904Y-70654819D01*
X112559580Y-60167857D02*
X112607200Y-60215476D01*
X112607200Y-60215476D02*
X112654819Y-60358333D01*
X112654819Y-60358333D02*
X112654819Y-60453571D01*
X112654819Y-60453571D02*
X112607200Y-60596428D01*
X112607200Y-60596428D02*
X112511961Y-60691666D01*
X112511961Y-60691666D02*
X112416723Y-60739285D01*
X112416723Y-60739285D02*
X112226247Y-60786904D01*
X112226247Y-60786904D02*
X112083390Y-60786904D01*
X112083390Y-60786904D02*
X111892914Y-60739285D01*
X111892914Y-60739285D02*
X111797676Y-60691666D01*
X111797676Y-60691666D02*
X111702438Y-60596428D01*
X111702438Y-60596428D02*
X111654819Y-60453571D01*
X111654819Y-60453571D02*
X111654819Y-60358333D01*
X111654819Y-60358333D02*
X111702438Y-60215476D01*
X111702438Y-60215476D02*
X111750057Y-60167857D01*
X111750057Y-59786904D02*
X111702438Y-59739285D01*
X111702438Y-59739285D02*
X111654819Y-59644047D01*
X111654819Y-59644047D02*
X111654819Y-59405952D01*
X111654819Y-59405952D02*
X111702438Y-59310714D01*
X111702438Y-59310714D02*
X111750057Y-59263095D01*
X111750057Y-59263095D02*
X111845295Y-59215476D01*
X111845295Y-59215476D02*
X111940533Y-59215476D01*
X111940533Y-59215476D02*
X112083390Y-59263095D01*
X112083390Y-59263095D02*
X112654819Y-59834523D01*
X112654819Y-59834523D02*
X112654819Y-59215476D01*
X111654819Y-58596428D02*
X111654819Y-58501190D01*
X111654819Y-58501190D02*
X111702438Y-58405952D01*
X111702438Y-58405952D02*
X111750057Y-58358333D01*
X111750057Y-58358333D02*
X111845295Y-58310714D01*
X111845295Y-58310714D02*
X112035771Y-58263095D01*
X112035771Y-58263095D02*
X112273866Y-58263095D01*
X112273866Y-58263095D02*
X112464342Y-58310714D01*
X112464342Y-58310714D02*
X112559580Y-58358333D01*
X112559580Y-58358333D02*
X112607200Y-58405952D01*
X112607200Y-58405952D02*
X112654819Y-58501190D01*
X112654819Y-58501190D02*
X112654819Y-58596428D01*
X112654819Y-58596428D02*
X112607200Y-58691666D01*
X112607200Y-58691666D02*
X112559580Y-58739285D01*
X112559580Y-58739285D02*
X112464342Y-58786904D01*
X112464342Y-58786904D02*
X112273866Y-58834523D01*
X112273866Y-58834523D02*
X112035771Y-58834523D01*
X112035771Y-58834523D02*
X111845295Y-58786904D01*
X111845295Y-58786904D02*
X111750057Y-58739285D01*
X111750057Y-58739285D02*
X111702438Y-58691666D01*
X111702438Y-58691666D02*
X111654819Y-58596428D01*
X117359580Y-60866666D02*
X117407200Y-60914285D01*
X117407200Y-60914285D02*
X117454819Y-61057142D01*
X117454819Y-61057142D02*
X117454819Y-61152380D01*
X117454819Y-61152380D02*
X117407200Y-61295237D01*
X117407200Y-61295237D02*
X117311961Y-61390475D01*
X117311961Y-61390475D02*
X117216723Y-61438094D01*
X117216723Y-61438094D02*
X117026247Y-61485713D01*
X117026247Y-61485713D02*
X116883390Y-61485713D01*
X116883390Y-61485713D02*
X116692914Y-61438094D01*
X116692914Y-61438094D02*
X116597676Y-61390475D01*
X116597676Y-61390475D02*
X116502438Y-61295237D01*
X116502438Y-61295237D02*
X116454819Y-61152380D01*
X116454819Y-61152380D02*
X116454819Y-61057142D01*
X116454819Y-61057142D02*
X116502438Y-60914285D01*
X116502438Y-60914285D02*
X116550057Y-60866666D01*
X116454819Y-60009523D02*
X116454819Y-60199999D01*
X116454819Y-60199999D02*
X116502438Y-60295237D01*
X116502438Y-60295237D02*
X116550057Y-60342856D01*
X116550057Y-60342856D02*
X116692914Y-60438094D01*
X116692914Y-60438094D02*
X116883390Y-60485713D01*
X116883390Y-60485713D02*
X117264342Y-60485713D01*
X117264342Y-60485713D02*
X117359580Y-60438094D01*
X117359580Y-60438094D02*
X117407200Y-60390475D01*
X117407200Y-60390475D02*
X117454819Y-60295237D01*
X117454819Y-60295237D02*
X117454819Y-60104761D01*
X117454819Y-60104761D02*
X117407200Y-60009523D01*
X117407200Y-60009523D02*
X117359580Y-59961904D01*
X117359580Y-59961904D02*
X117264342Y-59914285D01*
X117264342Y-59914285D02*
X117026247Y-59914285D01*
X117026247Y-59914285D02*
X116931009Y-59961904D01*
X116931009Y-59961904D02*
X116883390Y-60009523D01*
X116883390Y-60009523D02*
X116835771Y-60104761D01*
X116835771Y-60104761D02*
X116835771Y-60295237D01*
X116835771Y-60295237D02*
X116883390Y-60390475D01*
X116883390Y-60390475D02*
X116931009Y-60438094D01*
X116931009Y-60438094D02*
X117026247Y-60485713D01*
X120433333Y-80954819D02*
X120100000Y-80478628D01*
X119861905Y-80954819D02*
X119861905Y-79954819D01*
X119861905Y-79954819D02*
X120242857Y-79954819D01*
X120242857Y-79954819D02*
X120338095Y-80002438D01*
X120338095Y-80002438D02*
X120385714Y-80050057D01*
X120385714Y-80050057D02*
X120433333Y-80145295D01*
X120433333Y-80145295D02*
X120433333Y-80288152D01*
X120433333Y-80288152D02*
X120385714Y-80383390D01*
X120385714Y-80383390D02*
X120338095Y-80431009D01*
X120338095Y-80431009D02*
X120242857Y-80478628D01*
X120242857Y-80478628D02*
X119861905Y-80478628D01*
X121290476Y-80288152D02*
X121290476Y-80954819D01*
X121052381Y-79907200D02*
X120814286Y-80621485D01*
X120814286Y-80621485D02*
X121433333Y-80621485D01*
X118954819Y-60866666D02*
X118478628Y-61199999D01*
X118954819Y-61438094D02*
X117954819Y-61438094D01*
X117954819Y-61438094D02*
X117954819Y-61057142D01*
X117954819Y-61057142D02*
X118002438Y-60961904D01*
X118002438Y-60961904D02*
X118050057Y-60914285D01*
X118050057Y-60914285D02*
X118145295Y-60866666D01*
X118145295Y-60866666D02*
X118288152Y-60866666D01*
X118288152Y-60866666D02*
X118383390Y-60914285D01*
X118383390Y-60914285D02*
X118431009Y-60961904D01*
X118431009Y-60961904D02*
X118478628Y-61057142D01*
X118478628Y-61057142D02*
X118478628Y-61438094D01*
X118050057Y-60485713D02*
X118002438Y-60438094D01*
X118002438Y-60438094D02*
X117954819Y-60342856D01*
X117954819Y-60342856D02*
X117954819Y-60104761D01*
X117954819Y-60104761D02*
X118002438Y-60009523D01*
X118002438Y-60009523D02*
X118050057Y-59961904D01*
X118050057Y-59961904D02*
X118145295Y-59914285D01*
X118145295Y-59914285D02*
X118240533Y-59914285D01*
X118240533Y-59914285D02*
X118383390Y-59961904D01*
X118383390Y-59961904D02*
X118954819Y-60533332D01*
X118954819Y-60533332D02*
X118954819Y-59914285D01*
X125257142Y-80459580D02*
X125209523Y-80507200D01*
X125209523Y-80507200D02*
X125066666Y-80554819D01*
X125066666Y-80554819D02*
X124971428Y-80554819D01*
X124971428Y-80554819D02*
X124828571Y-80507200D01*
X124828571Y-80507200D02*
X124733333Y-80411961D01*
X124733333Y-80411961D02*
X124685714Y-80316723D01*
X124685714Y-80316723D02*
X124638095Y-80126247D01*
X124638095Y-80126247D02*
X124638095Y-79983390D01*
X124638095Y-79983390D02*
X124685714Y-79792914D01*
X124685714Y-79792914D02*
X124733333Y-79697676D01*
X124733333Y-79697676D02*
X124828571Y-79602438D01*
X124828571Y-79602438D02*
X124971428Y-79554819D01*
X124971428Y-79554819D02*
X125066666Y-79554819D01*
X125066666Y-79554819D02*
X125209523Y-79602438D01*
X125209523Y-79602438D02*
X125257142Y-79650057D01*
X126209523Y-80554819D02*
X125638095Y-80554819D01*
X125923809Y-80554819D02*
X125923809Y-79554819D01*
X125923809Y-79554819D02*
X125828571Y-79697676D01*
X125828571Y-79697676D02*
X125733333Y-79792914D01*
X125733333Y-79792914D02*
X125638095Y-79840533D01*
X126685714Y-80554819D02*
X126876190Y-80554819D01*
X126876190Y-80554819D02*
X126971428Y-80507200D01*
X126971428Y-80507200D02*
X127019047Y-80459580D01*
X127019047Y-80459580D02*
X127114285Y-80316723D01*
X127114285Y-80316723D02*
X127161904Y-80126247D01*
X127161904Y-80126247D02*
X127161904Y-79745295D01*
X127161904Y-79745295D02*
X127114285Y-79650057D01*
X127114285Y-79650057D02*
X127066666Y-79602438D01*
X127066666Y-79602438D02*
X126971428Y-79554819D01*
X126971428Y-79554819D02*
X126780952Y-79554819D01*
X126780952Y-79554819D02*
X126685714Y-79602438D01*
X126685714Y-79602438D02*
X126638095Y-79650057D01*
X126638095Y-79650057D02*
X126590476Y-79745295D01*
X126590476Y-79745295D02*
X126590476Y-79983390D01*
X126590476Y-79983390D02*
X126638095Y-80078628D01*
X126638095Y-80078628D02*
X126685714Y-80126247D01*
X126685714Y-80126247D02*
X126780952Y-80173866D01*
X126780952Y-80173866D02*
X126971428Y-80173866D01*
X126971428Y-80173866D02*
X127066666Y-80126247D01*
X127066666Y-80126247D02*
X127114285Y-80078628D01*
X127114285Y-80078628D02*
X127161904Y-79983390D01*
X123757200Y-56453332D02*
X123804819Y-56310475D01*
X123804819Y-56310475D02*
X123804819Y-56072380D01*
X123804819Y-56072380D02*
X123757200Y-55977142D01*
X123757200Y-55977142D02*
X123709580Y-55929523D01*
X123709580Y-55929523D02*
X123614342Y-55881904D01*
X123614342Y-55881904D02*
X123519104Y-55881904D01*
X123519104Y-55881904D02*
X123423866Y-55929523D01*
X123423866Y-55929523D02*
X123376247Y-55977142D01*
X123376247Y-55977142D02*
X123328628Y-56072380D01*
X123328628Y-56072380D02*
X123281009Y-56262856D01*
X123281009Y-56262856D02*
X123233390Y-56358094D01*
X123233390Y-56358094D02*
X123185771Y-56405713D01*
X123185771Y-56405713D02*
X123090533Y-56453332D01*
X123090533Y-56453332D02*
X122995295Y-56453332D01*
X122995295Y-56453332D02*
X122900057Y-56405713D01*
X122900057Y-56405713D02*
X122852438Y-56358094D01*
X122852438Y-56358094D02*
X122804819Y-56262856D01*
X122804819Y-56262856D02*
X122804819Y-56024761D01*
X122804819Y-56024761D02*
X122852438Y-55881904D01*
X122804819Y-55548570D02*
X123804819Y-55310475D01*
X123804819Y-55310475D02*
X123090533Y-55119999D01*
X123090533Y-55119999D02*
X123804819Y-54929523D01*
X123804819Y-54929523D02*
X122804819Y-54691428D01*
X123804819Y-53786666D02*
X123804819Y-54358094D01*
X123804819Y-54072380D02*
X122804819Y-54072380D01*
X122804819Y-54072380D02*
X122947676Y-54167618D01*
X122947676Y-54167618D02*
X123042914Y-54262856D01*
X123042914Y-54262856D02*
X123090533Y-54358094D01*
X101190476Y-71914819D02*
X101190476Y-72629104D01*
X101190476Y-72629104D02*
X101142857Y-72771961D01*
X101142857Y-72771961D02*
X101047619Y-72867200D01*
X101047619Y-72867200D02*
X100904762Y-72914819D01*
X100904762Y-72914819D02*
X100809524Y-72914819D01*
X102190476Y-72914819D02*
X101619048Y-72914819D01*
X101904762Y-72914819D02*
X101904762Y-71914819D01*
X101904762Y-71914819D02*
X101809524Y-72057676D01*
X101809524Y-72057676D02*
X101714286Y-72152914D01*
X101714286Y-72152914D02*
X101619048Y-72200533D01*
X102809524Y-71914819D02*
X102904762Y-71914819D01*
X102904762Y-71914819D02*
X103000000Y-71962438D01*
X103000000Y-71962438D02*
X103047619Y-72010057D01*
X103047619Y-72010057D02*
X103095238Y-72105295D01*
X103095238Y-72105295D02*
X103142857Y-72295771D01*
X103142857Y-72295771D02*
X103142857Y-72533866D01*
X103142857Y-72533866D02*
X103095238Y-72724342D01*
X103095238Y-72724342D02*
X103047619Y-72819580D01*
X103047619Y-72819580D02*
X103000000Y-72867200D01*
X103000000Y-72867200D02*
X102904762Y-72914819D01*
X102904762Y-72914819D02*
X102809524Y-72914819D01*
X102809524Y-72914819D02*
X102714286Y-72867200D01*
X102714286Y-72867200D02*
X102666667Y-72819580D01*
X102666667Y-72819580D02*
X102619048Y-72724342D01*
X102619048Y-72724342D02*
X102571429Y-72533866D01*
X102571429Y-72533866D02*
X102571429Y-72295771D01*
X102571429Y-72295771D02*
X102619048Y-72105295D01*
X102619048Y-72105295D02*
X102666667Y-72010057D01*
X102666667Y-72010057D02*
X102714286Y-71962438D01*
X102714286Y-71962438D02*
X102809524Y-71914819D01*
X114058333Y-65359580D02*
X114010714Y-65407200D01*
X114010714Y-65407200D02*
X113867857Y-65454819D01*
X113867857Y-65454819D02*
X113772619Y-65454819D01*
X113772619Y-65454819D02*
X113629762Y-65407200D01*
X113629762Y-65407200D02*
X113534524Y-65311961D01*
X113534524Y-65311961D02*
X113486905Y-65216723D01*
X113486905Y-65216723D02*
X113439286Y-65026247D01*
X113439286Y-65026247D02*
X113439286Y-64883390D01*
X113439286Y-64883390D02*
X113486905Y-64692914D01*
X113486905Y-64692914D02*
X113534524Y-64597676D01*
X113534524Y-64597676D02*
X113629762Y-64502438D01*
X113629762Y-64502438D02*
X113772619Y-64454819D01*
X113772619Y-64454819D02*
X113867857Y-64454819D01*
X113867857Y-64454819D02*
X114010714Y-64502438D01*
X114010714Y-64502438D02*
X114058333Y-64550057D01*
X115010714Y-65454819D02*
X114439286Y-65454819D01*
X114725000Y-65454819D02*
X114725000Y-64454819D01*
X114725000Y-64454819D02*
X114629762Y-64597676D01*
X114629762Y-64597676D02*
X114534524Y-64692914D01*
X114534524Y-64692914D02*
X114439286Y-64740533D01*
X106757142Y-64559580D02*
X106709523Y-64607200D01*
X106709523Y-64607200D02*
X106566666Y-64654819D01*
X106566666Y-64654819D02*
X106471428Y-64654819D01*
X106471428Y-64654819D02*
X106328571Y-64607200D01*
X106328571Y-64607200D02*
X106233333Y-64511961D01*
X106233333Y-64511961D02*
X106185714Y-64416723D01*
X106185714Y-64416723D02*
X106138095Y-64226247D01*
X106138095Y-64226247D02*
X106138095Y-64083390D01*
X106138095Y-64083390D02*
X106185714Y-63892914D01*
X106185714Y-63892914D02*
X106233333Y-63797676D01*
X106233333Y-63797676D02*
X106328571Y-63702438D01*
X106328571Y-63702438D02*
X106471428Y-63654819D01*
X106471428Y-63654819D02*
X106566666Y-63654819D01*
X106566666Y-63654819D02*
X106709523Y-63702438D01*
X106709523Y-63702438D02*
X106757142Y-63750057D01*
X107709523Y-64654819D02*
X107138095Y-64654819D01*
X107423809Y-64654819D02*
X107423809Y-63654819D01*
X107423809Y-63654819D02*
X107328571Y-63797676D01*
X107328571Y-63797676D02*
X107233333Y-63892914D01*
X107233333Y-63892914D02*
X107138095Y-63940533D01*
X108328571Y-63654819D02*
X108423809Y-63654819D01*
X108423809Y-63654819D02*
X108519047Y-63702438D01*
X108519047Y-63702438D02*
X108566666Y-63750057D01*
X108566666Y-63750057D02*
X108614285Y-63845295D01*
X108614285Y-63845295D02*
X108661904Y-64035771D01*
X108661904Y-64035771D02*
X108661904Y-64273866D01*
X108661904Y-64273866D02*
X108614285Y-64464342D01*
X108614285Y-64464342D02*
X108566666Y-64559580D01*
X108566666Y-64559580D02*
X108519047Y-64607200D01*
X108519047Y-64607200D02*
X108423809Y-64654819D01*
X108423809Y-64654819D02*
X108328571Y-64654819D01*
X108328571Y-64654819D02*
X108233333Y-64607200D01*
X108233333Y-64607200D02*
X108185714Y-64559580D01*
X108185714Y-64559580D02*
X108138095Y-64464342D01*
X108138095Y-64464342D02*
X108090476Y-64273866D01*
X108090476Y-64273866D02*
X108090476Y-64035771D01*
X108090476Y-64035771D02*
X108138095Y-63845295D01*
X108138095Y-63845295D02*
X108185714Y-63750057D01*
X108185714Y-63750057D02*
X108233333Y-63702438D01*
X108233333Y-63702438D02*
X108328571Y-63654819D01*
X106666666Y-55264819D02*
X106666666Y-55979104D01*
X106666666Y-55979104D02*
X106619047Y-56121961D01*
X106619047Y-56121961D02*
X106523809Y-56217200D01*
X106523809Y-56217200D02*
X106380952Y-56264819D01*
X106380952Y-56264819D02*
X106285714Y-56264819D01*
X107285714Y-55693390D02*
X107190476Y-55645771D01*
X107190476Y-55645771D02*
X107142857Y-55598152D01*
X107142857Y-55598152D02*
X107095238Y-55502914D01*
X107095238Y-55502914D02*
X107095238Y-55455295D01*
X107095238Y-55455295D02*
X107142857Y-55360057D01*
X107142857Y-55360057D02*
X107190476Y-55312438D01*
X107190476Y-55312438D02*
X107285714Y-55264819D01*
X107285714Y-55264819D02*
X107476190Y-55264819D01*
X107476190Y-55264819D02*
X107571428Y-55312438D01*
X107571428Y-55312438D02*
X107619047Y-55360057D01*
X107619047Y-55360057D02*
X107666666Y-55455295D01*
X107666666Y-55455295D02*
X107666666Y-55502914D01*
X107666666Y-55502914D02*
X107619047Y-55598152D01*
X107619047Y-55598152D02*
X107571428Y-55645771D01*
X107571428Y-55645771D02*
X107476190Y-55693390D01*
X107476190Y-55693390D02*
X107285714Y-55693390D01*
X107285714Y-55693390D02*
X107190476Y-55741009D01*
X107190476Y-55741009D02*
X107142857Y-55788628D01*
X107142857Y-55788628D02*
X107095238Y-55883866D01*
X107095238Y-55883866D02*
X107095238Y-56074342D01*
X107095238Y-56074342D02*
X107142857Y-56169580D01*
X107142857Y-56169580D02*
X107190476Y-56217200D01*
X107190476Y-56217200D02*
X107285714Y-56264819D01*
X107285714Y-56264819D02*
X107476190Y-56264819D01*
X107476190Y-56264819D02*
X107571428Y-56217200D01*
X107571428Y-56217200D02*
X107619047Y-56169580D01*
X107619047Y-56169580D02*
X107666666Y-56074342D01*
X107666666Y-56074342D02*
X107666666Y-55883866D01*
X107666666Y-55883866D02*
X107619047Y-55788628D01*
X107619047Y-55788628D02*
X107571428Y-55741009D01*
X107571428Y-55741009D02*
X107476190Y-55693390D01*
X111357142Y-69759580D02*
X111309523Y-69807200D01*
X111309523Y-69807200D02*
X111166666Y-69854819D01*
X111166666Y-69854819D02*
X111071428Y-69854819D01*
X111071428Y-69854819D02*
X110928571Y-69807200D01*
X110928571Y-69807200D02*
X110833333Y-69711961D01*
X110833333Y-69711961D02*
X110785714Y-69616723D01*
X110785714Y-69616723D02*
X110738095Y-69426247D01*
X110738095Y-69426247D02*
X110738095Y-69283390D01*
X110738095Y-69283390D02*
X110785714Y-69092914D01*
X110785714Y-69092914D02*
X110833333Y-68997676D01*
X110833333Y-68997676D02*
X110928571Y-68902438D01*
X110928571Y-68902438D02*
X111071428Y-68854819D01*
X111071428Y-68854819D02*
X111166666Y-68854819D01*
X111166666Y-68854819D02*
X111309523Y-68902438D01*
X111309523Y-68902438D02*
X111357142Y-68950057D01*
X112309523Y-69854819D02*
X111738095Y-69854819D01*
X112023809Y-69854819D02*
X112023809Y-68854819D01*
X112023809Y-68854819D02*
X111928571Y-68997676D01*
X111928571Y-68997676D02*
X111833333Y-69092914D01*
X111833333Y-69092914D02*
X111738095Y-69140533D01*
X113214285Y-68854819D02*
X112738095Y-68854819D01*
X112738095Y-68854819D02*
X112690476Y-69331009D01*
X112690476Y-69331009D02*
X112738095Y-69283390D01*
X112738095Y-69283390D02*
X112833333Y-69235771D01*
X112833333Y-69235771D02*
X113071428Y-69235771D01*
X113071428Y-69235771D02*
X113166666Y-69283390D01*
X113166666Y-69283390D02*
X113214285Y-69331009D01*
X113214285Y-69331009D02*
X113261904Y-69426247D01*
X113261904Y-69426247D02*
X113261904Y-69664342D01*
X113261904Y-69664342D02*
X113214285Y-69759580D01*
X113214285Y-69759580D02*
X113166666Y-69807200D01*
X113166666Y-69807200D02*
X113071428Y-69854819D01*
X113071428Y-69854819D02*
X112833333Y-69854819D01*
X112833333Y-69854819D02*
X112738095Y-69807200D01*
X112738095Y-69807200D02*
X112690476Y-69759580D01*
X111833333Y-71259580D02*
X111785714Y-71307200D01*
X111785714Y-71307200D02*
X111642857Y-71354819D01*
X111642857Y-71354819D02*
X111547619Y-71354819D01*
X111547619Y-71354819D02*
X111404762Y-71307200D01*
X111404762Y-71307200D02*
X111309524Y-71211961D01*
X111309524Y-71211961D02*
X111261905Y-71116723D01*
X111261905Y-71116723D02*
X111214286Y-70926247D01*
X111214286Y-70926247D02*
X111214286Y-70783390D01*
X111214286Y-70783390D02*
X111261905Y-70592914D01*
X111261905Y-70592914D02*
X111309524Y-70497676D01*
X111309524Y-70497676D02*
X111404762Y-70402438D01*
X111404762Y-70402438D02*
X111547619Y-70354819D01*
X111547619Y-70354819D02*
X111642857Y-70354819D01*
X111642857Y-70354819D02*
X111785714Y-70402438D01*
X111785714Y-70402438D02*
X111833333Y-70450057D01*
X112404762Y-70783390D02*
X112309524Y-70735771D01*
X112309524Y-70735771D02*
X112261905Y-70688152D01*
X112261905Y-70688152D02*
X112214286Y-70592914D01*
X112214286Y-70592914D02*
X112214286Y-70545295D01*
X112214286Y-70545295D02*
X112261905Y-70450057D01*
X112261905Y-70450057D02*
X112309524Y-70402438D01*
X112309524Y-70402438D02*
X112404762Y-70354819D01*
X112404762Y-70354819D02*
X112595238Y-70354819D01*
X112595238Y-70354819D02*
X112690476Y-70402438D01*
X112690476Y-70402438D02*
X112738095Y-70450057D01*
X112738095Y-70450057D02*
X112785714Y-70545295D01*
X112785714Y-70545295D02*
X112785714Y-70592914D01*
X112785714Y-70592914D02*
X112738095Y-70688152D01*
X112738095Y-70688152D02*
X112690476Y-70735771D01*
X112690476Y-70735771D02*
X112595238Y-70783390D01*
X112595238Y-70783390D02*
X112404762Y-70783390D01*
X112404762Y-70783390D02*
X112309524Y-70831009D01*
X112309524Y-70831009D02*
X112261905Y-70878628D01*
X112261905Y-70878628D02*
X112214286Y-70973866D01*
X112214286Y-70973866D02*
X112214286Y-71164342D01*
X112214286Y-71164342D02*
X112261905Y-71259580D01*
X112261905Y-71259580D02*
X112309524Y-71307200D01*
X112309524Y-71307200D02*
X112404762Y-71354819D01*
X112404762Y-71354819D02*
X112595238Y-71354819D01*
X112595238Y-71354819D02*
X112690476Y-71307200D01*
X112690476Y-71307200D02*
X112738095Y-71259580D01*
X112738095Y-71259580D02*
X112785714Y-71164342D01*
X112785714Y-71164342D02*
X112785714Y-70973866D01*
X112785714Y-70973866D02*
X112738095Y-70878628D01*
X112738095Y-70878628D02*
X112690476Y-70831009D01*
X112690476Y-70831009D02*
X112595238Y-70783390D01*
X115159580Y-83791666D02*
X115207200Y-83839285D01*
X115207200Y-83839285D02*
X115254819Y-83982142D01*
X115254819Y-83982142D02*
X115254819Y-84077380D01*
X115254819Y-84077380D02*
X115207200Y-84220237D01*
X115207200Y-84220237D02*
X115111961Y-84315475D01*
X115111961Y-84315475D02*
X115016723Y-84363094D01*
X115016723Y-84363094D02*
X114826247Y-84410713D01*
X114826247Y-84410713D02*
X114683390Y-84410713D01*
X114683390Y-84410713D02*
X114492914Y-84363094D01*
X114492914Y-84363094D02*
X114397676Y-84315475D01*
X114397676Y-84315475D02*
X114302438Y-84220237D01*
X114302438Y-84220237D02*
X114254819Y-84077380D01*
X114254819Y-84077380D02*
X114254819Y-83982142D01*
X114254819Y-83982142D02*
X114302438Y-83839285D01*
X114302438Y-83839285D02*
X114350057Y-83791666D01*
X114350057Y-83410713D02*
X114302438Y-83363094D01*
X114302438Y-83363094D02*
X114254819Y-83267856D01*
X114254819Y-83267856D02*
X114254819Y-83029761D01*
X114254819Y-83029761D02*
X114302438Y-82934523D01*
X114302438Y-82934523D02*
X114350057Y-82886904D01*
X114350057Y-82886904D02*
X114445295Y-82839285D01*
X114445295Y-82839285D02*
X114540533Y-82839285D01*
X114540533Y-82839285D02*
X114683390Y-82886904D01*
X114683390Y-82886904D02*
X115254819Y-83458332D01*
X115254819Y-83458332D02*
X115254819Y-82839285D01*
X122108333Y-84004819D02*
X121775000Y-83528628D01*
X121536905Y-84004819D02*
X121536905Y-83004819D01*
X121536905Y-83004819D02*
X121917857Y-83004819D01*
X121917857Y-83004819D02*
X122013095Y-83052438D01*
X122013095Y-83052438D02*
X122060714Y-83100057D01*
X122060714Y-83100057D02*
X122108333Y-83195295D01*
X122108333Y-83195295D02*
X122108333Y-83338152D01*
X122108333Y-83338152D02*
X122060714Y-83433390D01*
X122060714Y-83433390D02*
X122013095Y-83481009D01*
X122013095Y-83481009D02*
X121917857Y-83528628D01*
X121917857Y-83528628D02*
X121536905Y-83528628D01*
X122441667Y-83004819D02*
X123060714Y-83004819D01*
X123060714Y-83004819D02*
X122727381Y-83385771D01*
X122727381Y-83385771D02*
X122870238Y-83385771D01*
X122870238Y-83385771D02*
X122965476Y-83433390D01*
X122965476Y-83433390D02*
X123013095Y-83481009D01*
X123013095Y-83481009D02*
X123060714Y-83576247D01*
X123060714Y-83576247D02*
X123060714Y-83814342D01*
X123060714Y-83814342D02*
X123013095Y-83909580D01*
X123013095Y-83909580D02*
X122965476Y-83957200D01*
X122965476Y-83957200D02*
X122870238Y-84004819D01*
X122870238Y-84004819D02*
X122584524Y-84004819D01*
X122584524Y-84004819D02*
X122489286Y-83957200D01*
X122489286Y-83957200D02*
X122441667Y-83909580D01*
X129054819Y-64530594D02*
X128054819Y-64530594D01*
X128054819Y-64530594D02*
X128054819Y-64292499D01*
X128054819Y-64292499D02*
X128102438Y-64149642D01*
X128102438Y-64149642D02*
X128197676Y-64054404D01*
X128197676Y-64054404D02*
X128292914Y-64006785D01*
X128292914Y-64006785D02*
X128483390Y-63959166D01*
X128483390Y-63959166D02*
X128626247Y-63959166D01*
X128626247Y-63959166D02*
X128816723Y-64006785D01*
X128816723Y-64006785D02*
X128911961Y-64054404D01*
X128911961Y-64054404D02*
X129007200Y-64149642D01*
X129007200Y-64149642D02*
X129054819Y-64292499D01*
X129054819Y-64292499D02*
X129054819Y-64530594D01*
X128150057Y-63578213D02*
X128102438Y-63530594D01*
X128102438Y-63530594D02*
X128054819Y-63435356D01*
X128054819Y-63435356D02*
X128054819Y-63197261D01*
X128054819Y-63197261D02*
X128102438Y-63102023D01*
X128102438Y-63102023D02*
X128150057Y-63054404D01*
X128150057Y-63054404D02*
X128245295Y-63006785D01*
X128245295Y-63006785D02*
X128340533Y-63006785D01*
X128340533Y-63006785D02*
X128483390Y-63054404D01*
X128483390Y-63054404D02*
X129054819Y-63625832D01*
X129054819Y-63625832D02*
X129054819Y-63006785D01*
X120654819Y-74042857D02*
X120178628Y-74376190D01*
X120654819Y-74614285D02*
X119654819Y-74614285D01*
X119654819Y-74614285D02*
X119654819Y-74233333D01*
X119654819Y-74233333D02*
X119702438Y-74138095D01*
X119702438Y-74138095D02*
X119750057Y-74090476D01*
X119750057Y-74090476D02*
X119845295Y-74042857D01*
X119845295Y-74042857D02*
X119988152Y-74042857D01*
X119988152Y-74042857D02*
X120083390Y-74090476D01*
X120083390Y-74090476D02*
X120131009Y-74138095D01*
X120131009Y-74138095D02*
X120178628Y-74233333D01*
X120178628Y-74233333D02*
X120178628Y-74614285D01*
X120654819Y-73090476D02*
X120654819Y-73661904D01*
X120654819Y-73376190D02*
X119654819Y-73376190D01*
X119654819Y-73376190D02*
X119797676Y-73471428D01*
X119797676Y-73471428D02*
X119892914Y-73566666D01*
X119892914Y-73566666D02*
X119940533Y-73661904D01*
X119654819Y-72757142D02*
X119654819Y-72090476D01*
X119654819Y-72090476D02*
X120654819Y-72519047D01*
X118950595Y-66854819D02*
X118950595Y-67664342D01*
X118950595Y-67664342D02*
X118998214Y-67759580D01*
X118998214Y-67759580D02*
X119045833Y-67807200D01*
X119045833Y-67807200D02*
X119141071Y-67854819D01*
X119141071Y-67854819D02*
X119331547Y-67854819D01*
X119331547Y-67854819D02*
X119426785Y-67807200D01*
X119426785Y-67807200D02*
X119474404Y-67759580D01*
X119474404Y-67759580D02*
X119522023Y-67664342D01*
X119522023Y-67664342D02*
X119522023Y-66854819D01*
X120522023Y-67854819D02*
X119950595Y-67854819D01*
X120236309Y-67854819D02*
X120236309Y-66854819D01*
X120236309Y-66854819D02*
X120141071Y-66997676D01*
X120141071Y-66997676D02*
X120045833Y-67092914D01*
X120045833Y-67092914D02*
X119950595Y-67140533D01*
X112759580Y-84267857D02*
X112807200Y-84315476D01*
X112807200Y-84315476D02*
X112854819Y-84458333D01*
X112854819Y-84458333D02*
X112854819Y-84553571D01*
X112854819Y-84553571D02*
X112807200Y-84696428D01*
X112807200Y-84696428D02*
X112711961Y-84791666D01*
X112711961Y-84791666D02*
X112616723Y-84839285D01*
X112616723Y-84839285D02*
X112426247Y-84886904D01*
X112426247Y-84886904D02*
X112283390Y-84886904D01*
X112283390Y-84886904D02*
X112092914Y-84839285D01*
X112092914Y-84839285D02*
X111997676Y-84791666D01*
X111997676Y-84791666D02*
X111902438Y-84696428D01*
X111902438Y-84696428D02*
X111854819Y-84553571D01*
X111854819Y-84553571D02*
X111854819Y-84458333D01*
X111854819Y-84458333D02*
X111902438Y-84315476D01*
X111902438Y-84315476D02*
X111950057Y-84267857D01*
X111950057Y-83886904D02*
X111902438Y-83839285D01*
X111902438Y-83839285D02*
X111854819Y-83744047D01*
X111854819Y-83744047D02*
X111854819Y-83505952D01*
X111854819Y-83505952D02*
X111902438Y-83410714D01*
X111902438Y-83410714D02*
X111950057Y-83363095D01*
X111950057Y-83363095D02*
X112045295Y-83315476D01*
X112045295Y-83315476D02*
X112140533Y-83315476D01*
X112140533Y-83315476D02*
X112283390Y-83363095D01*
X112283390Y-83363095D02*
X112854819Y-83934523D01*
X112854819Y-83934523D02*
X112854819Y-83315476D01*
X112188152Y-82458333D02*
X112854819Y-82458333D01*
X111807200Y-82696428D02*
X112521485Y-82934523D01*
X112521485Y-82934523D02*
X112521485Y-82315476D01*
X110754819Y-77541666D02*
X110278628Y-77874999D01*
X110754819Y-78113094D02*
X109754819Y-78113094D01*
X109754819Y-78113094D02*
X109754819Y-77732142D01*
X109754819Y-77732142D02*
X109802438Y-77636904D01*
X109802438Y-77636904D02*
X109850057Y-77589285D01*
X109850057Y-77589285D02*
X109945295Y-77541666D01*
X109945295Y-77541666D02*
X110088152Y-77541666D01*
X110088152Y-77541666D02*
X110183390Y-77589285D01*
X110183390Y-77589285D02*
X110231009Y-77636904D01*
X110231009Y-77636904D02*
X110278628Y-77732142D01*
X110278628Y-77732142D02*
X110278628Y-78113094D01*
X110183390Y-76970237D02*
X110135771Y-77065475D01*
X110135771Y-77065475D02*
X110088152Y-77113094D01*
X110088152Y-77113094D02*
X109992914Y-77160713D01*
X109992914Y-77160713D02*
X109945295Y-77160713D01*
X109945295Y-77160713D02*
X109850057Y-77113094D01*
X109850057Y-77113094D02*
X109802438Y-77065475D01*
X109802438Y-77065475D02*
X109754819Y-76970237D01*
X109754819Y-76970237D02*
X109754819Y-76779761D01*
X109754819Y-76779761D02*
X109802438Y-76684523D01*
X109802438Y-76684523D02*
X109850057Y-76636904D01*
X109850057Y-76636904D02*
X109945295Y-76589285D01*
X109945295Y-76589285D02*
X109992914Y-76589285D01*
X109992914Y-76589285D02*
X110088152Y-76636904D01*
X110088152Y-76636904D02*
X110135771Y-76684523D01*
X110135771Y-76684523D02*
X110183390Y-76779761D01*
X110183390Y-76779761D02*
X110183390Y-76970237D01*
X110183390Y-76970237D02*
X110231009Y-77065475D01*
X110231009Y-77065475D02*
X110278628Y-77113094D01*
X110278628Y-77113094D02*
X110373866Y-77160713D01*
X110373866Y-77160713D02*
X110564342Y-77160713D01*
X110564342Y-77160713D02*
X110659580Y-77113094D01*
X110659580Y-77113094D02*
X110707200Y-77065475D01*
X110707200Y-77065475D02*
X110754819Y-76970237D01*
X110754819Y-76970237D02*
X110754819Y-76779761D01*
X110754819Y-76779761D02*
X110707200Y-76684523D01*
X110707200Y-76684523D02*
X110659580Y-76636904D01*
X110659580Y-76636904D02*
X110564342Y-76589285D01*
X110564342Y-76589285D02*
X110373866Y-76589285D01*
X110373866Y-76589285D02*
X110278628Y-76636904D01*
X110278628Y-76636904D02*
X110231009Y-76684523D01*
X110231009Y-76684523D02*
X110183390Y-76779761D01*
X107378628Y-67776190D02*
X107854819Y-67776190D01*
X106854819Y-68109523D02*
X107378628Y-67776190D01*
X107378628Y-67776190D02*
X106854819Y-67442857D01*
X107854819Y-66585714D02*
X107854819Y-67157142D01*
X107854819Y-66871428D02*
X106854819Y-66871428D01*
X106854819Y-66871428D02*
X106997676Y-66966666D01*
X106997676Y-66966666D02*
X107092914Y-67061904D01*
X107092914Y-67061904D02*
X107140533Y-67157142D01*
X122754819Y-62342857D02*
X122278628Y-62676190D01*
X122754819Y-62914285D02*
X121754819Y-62914285D01*
X121754819Y-62914285D02*
X121754819Y-62533333D01*
X121754819Y-62533333D02*
X121802438Y-62438095D01*
X121802438Y-62438095D02*
X121850057Y-62390476D01*
X121850057Y-62390476D02*
X121945295Y-62342857D01*
X121945295Y-62342857D02*
X122088152Y-62342857D01*
X122088152Y-62342857D02*
X122183390Y-62390476D01*
X122183390Y-62390476D02*
X122231009Y-62438095D01*
X122231009Y-62438095D02*
X122278628Y-62533333D01*
X122278628Y-62533333D02*
X122278628Y-62914285D01*
X122754819Y-61390476D02*
X122754819Y-61961904D01*
X122754819Y-61676190D02*
X121754819Y-61676190D01*
X121754819Y-61676190D02*
X121897676Y-61771428D01*
X121897676Y-61771428D02*
X121992914Y-61866666D01*
X121992914Y-61866666D02*
X122040533Y-61961904D01*
X121754819Y-60485714D02*
X121754819Y-60961904D01*
X121754819Y-60961904D02*
X122231009Y-61009523D01*
X122231009Y-61009523D02*
X122183390Y-60961904D01*
X122183390Y-60961904D02*
X122135771Y-60866666D01*
X122135771Y-60866666D02*
X122135771Y-60628571D01*
X122135771Y-60628571D02*
X122183390Y-60533333D01*
X122183390Y-60533333D02*
X122231009Y-60485714D01*
X122231009Y-60485714D02*
X122326247Y-60438095D01*
X122326247Y-60438095D02*
X122564342Y-60438095D01*
X122564342Y-60438095D02*
X122659580Y-60485714D01*
X122659580Y-60485714D02*
X122707200Y-60533333D01*
X122707200Y-60533333D02*
X122754819Y-60628571D01*
X122754819Y-60628571D02*
X122754819Y-60866666D01*
X122754819Y-60866666D02*
X122707200Y-60961904D01*
X122707200Y-60961904D02*
X122659580Y-61009523D01*
X127583333Y-84104819D02*
X127107143Y-84104819D01*
X127107143Y-84104819D02*
X127107143Y-83104819D01*
X128440476Y-84104819D02*
X127869048Y-84104819D01*
X128154762Y-84104819D02*
X128154762Y-83104819D01*
X128154762Y-83104819D02*
X128059524Y-83247676D01*
X128059524Y-83247676D02*
X127964286Y-83342914D01*
X127964286Y-83342914D02*
X127869048Y-83390533D01*
X122108333Y-82409580D02*
X122060714Y-82457200D01*
X122060714Y-82457200D02*
X121917857Y-82504819D01*
X121917857Y-82504819D02*
X121822619Y-82504819D01*
X121822619Y-82504819D02*
X121679762Y-82457200D01*
X121679762Y-82457200D02*
X121584524Y-82361961D01*
X121584524Y-82361961D02*
X121536905Y-82266723D01*
X121536905Y-82266723D02*
X121489286Y-82076247D01*
X121489286Y-82076247D02*
X121489286Y-81933390D01*
X121489286Y-81933390D02*
X121536905Y-81742914D01*
X121536905Y-81742914D02*
X121584524Y-81647676D01*
X121584524Y-81647676D02*
X121679762Y-81552438D01*
X121679762Y-81552438D02*
X121822619Y-81504819D01*
X121822619Y-81504819D02*
X121917857Y-81504819D01*
X121917857Y-81504819D02*
X122060714Y-81552438D01*
X122060714Y-81552438D02*
X122108333Y-81600057D01*
X122441667Y-81504819D02*
X123108333Y-81504819D01*
X123108333Y-81504819D02*
X122679762Y-82504819D01*
X116370595Y-52737319D02*
X116370595Y-53546842D01*
X116370595Y-53546842D02*
X116418214Y-53642080D01*
X116418214Y-53642080D02*
X116465833Y-53689700D01*
X116465833Y-53689700D02*
X116561071Y-53737319D01*
X116561071Y-53737319D02*
X116751547Y-53737319D01*
X116751547Y-53737319D02*
X116846785Y-53689700D01*
X116846785Y-53689700D02*
X116894404Y-53642080D01*
X116894404Y-53642080D02*
X116942023Y-53546842D01*
X116942023Y-53546842D02*
X116942023Y-52737319D01*
X117846785Y-53070652D02*
X117846785Y-53737319D01*
X117608690Y-52689700D02*
X117370595Y-53403985D01*
X117370595Y-53403985D02*
X117989642Y-53403985D01*
X113157142Y-75654819D02*
X112823809Y-75178628D01*
X112585714Y-75654819D02*
X112585714Y-74654819D01*
X112585714Y-74654819D02*
X112966666Y-74654819D01*
X112966666Y-74654819D02*
X113061904Y-74702438D01*
X113061904Y-74702438D02*
X113109523Y-74750057D01*
X113109523Y-74750057D02*
X113157142Y-74845295D01*
X113157142Y-74845295D02*
X113157142Y-74988152D01*
X113157142Y-74988152D02*
X113109523Y-75083390D01*
X113109523Y-75083390D02*
X113061904Y-75131009D01*
X113061904Y-75131009D02*
X112966666Y-75178628D01*
X112966666Y-75178628D02*
X112585714Y-75178628D01*
X114109523Y-75654819D02*
X113538095Y-75654819D01*
X113823809Y-75654819D02*
X113823809Y-74654819D01*
X113823809Y-74654819D02*
X113728571Y-74797676D01*
X113728571Y-74797676D02*
X113633333Y-74892914D01*
X113633333Y-74892914D02*
X113538095Y-74940533D01*
X114490476Y-74750057D02*
X114538095Y-74702438D01*
X114538095Y-74702438D02*
X114633333Y-74654819D01*
X114633333Y-74654819D02*
X114871428Y-74654819D01*
X114871428Y-74654819D02*
X114966666Y-74702438D01*
X114966666Y-74702438D02*
X115014285Y-74750057D01*
X115014285Y-74750057D02*
X115061904Y-74845295D01*
X115061904Y-74845295D02*
X115061904Y-74940533D01*
X115061904Y-74940533D02*
X115014285Y-75083390D01*
X115014285Y-75083390D02*
X114442857Y-75654819D01*
X114442857Y-75654819D02*
X115061904Y-75654819D01*
X117254819Y-81441666D02*
X116778628Y-81774999D01*
X117254819Y-82013094D02*
X116254819Y-82013094D01*
X116254819Y-82013094D02*
X116254819Y-81632142D01*
X116254819Y-81632142D02*
X116302438Y-81536904D01*
X116302438Y-81536904D02*
X116350057Y-81489285D01*
X116350057Y-81489285D02*
X116445295Y-81441666D01*
X116445295Y-81441666D02*
X116588152Y-81441666D01*
X116588152Y-81441666D02*
X116683390Y-81489285D01*
X116683390Y-81489285D02*
X116731009Y-81536904D01*
X116731009Y-81536904D02*
X116778628Y-81632142D01*
X116778628Y-81632142D02*
X116778628Y-82013094D01*
X117254819Y-80489285D02*
X117254819Y-81060713D01*
X117254819Y-80774999D02*
X116254819Y-80774999D01*
X116254819Y-80774999D02*
X116397676Y-80870237D01*
X116397676Y-80870237D02*
X116492914Y-80965475D01*
X116492914Y-80965475D02*
X116540533Y-81060713D01*
X129054819Y-67455357D02*
X128578628Y-67788690D01*
X129054819Y-68026785D02*
X128054819Y-68026785D01*
X128054819Y-68026785D02*
X128054819Y-67645833D01*
X128054819Y-67645833D02*
X128102438Y-67550595D01*
X128102438Y-67550595D02*
X128150057Y-67502976D01*
X128150057Y-67502976D02*
X128245295Y-67455357D01*
X128245295Y-67455357D02*
X128388152Y-67455357D01*
X128388152Y-67455357D02*
X128483390Y-67502976D01*
X128483390Y-67502976D02*
X128531009Y-67550595D01*
X128531009Y-67550595D02*
X128578628Y-67645833D01*
X128578628Y-67645833D02*
X128578628Y-68026785D01*
X129054819Y-66502976D02*
X129054819Y-67074404D01*
X129054819Y-66788690D02*
X128054819Y-66788690D01*
X128054819Y-66788690D02*
X128197676Y-66883928D01*
X128197676Y-66883928D02*
X128292914Y-66979166D01*
X128292914Y-66979166D02*
X128340533Y-67074404D01*
X128388152Y-65645833D02*
X129054819Y-65645833D01*
X128007200Y-65883928D02*
X128721485Y-66122023D01*
X128721485Y-66122023D02*
X128721485Y-65502976D01*
X121659580Y-78917857D02*
X121707200Y-78965476D01*
X121707200Y-78965476D02*
X121754819Y-79108333D01*
X121754819Y-79108333D02*
X121754819Y-79203571D01*
X121754819Y-79203571D02*
X121707200Y-79346428D01*
X121707200Y-79346428D02*
X121611961Y-79441666D01*
X121611961Y-79441666D02*
X121516723Y-79489285D01*
X121516723Y-79489285D02*
X121326247Y-79536904D01*
X121326247Y-79536904D02*
X121183390Y-79536904D01*
X121183390Y-79536904D02*
X120992914Y-79489285D01*
X120992914Y-79489285D02*
X120897676Y-79441666D01*
X120897676Y-79441666D02*
X120802438Y-79346428D01*
X120802438Y-79346428D02*
X120754819Y-79203571D01*
X120754819Y-79203571D02*
X120754819Y-79108333D01*
X120754819Y-79108333D02*
X120802438Y-78965476D01*
X120802438Y-78965476D02*
X120850057Y-78917857D01*
X121754819Y-77965476D02*
X121754819Y-78536904D01*
X121754819Y-78251190D02*
X120754819Y-78251190D01*
X120754819Y-78251190D02*
X120897676Y-78346428D01*
X120897676Y-78346428D02*
X120992914Y-78441666D01*
X120992914Y-78441666D02*
X121040533Y-78536904D01*
X120754819Y-77632142D02*
X120754819Y-77013095D01*
X120754819Y-77013095D02*
X121135771Y-77346428D01*
X121135771Y-77346428D02*
X121135771Y-77203571D01*
X121135771Y-77203571D02*
X121183390Y-77108333D01*
X121183390Y-77108333D02*
X121231009Y-77060714D01*
X121231009Y-77060714D02*
X121326247Y-77013095D01*
X121326247Y-77013095D02*
X121564342Y-77013095D01*
X121564342Y-77013095D02*
X121659580Y-77060714D01*
X121659580Y-77060714D02*
X121707200Y-77108333D01*
X121707200Y-77108333D02*
X121754819Y-77203571D01*
X121754819Y-77203571D02*
X121754819Y-77489285D01*
X121754819Y-77489285D02*
X121707200Y-77584523D01*
X121707200Y-77584523D02*
X121659580Y-77632142D01*
X123254819Y-78441666D02*
X122778628Y-78774999D01*
X123254819Y-79013094D02*
X122254819Y-79013094D01*
X122254819Y-79013094D02*
X122254819Y-78632142D01*
X122254819Y-78632142D02*
X122302438Y-78536904D01*
X122302438Y-78536904D02*
X122350057Y-78489285D01*
X122350057Y-78489285D02*
X122445295Y-78441666D01*
X122445295Y-78441666D02*
X122588152Y-78441666D01*
X122588152Y-78441666D02*
X122683390Y-78489285D01*
X122683390Y-78489285D02*
X122731009Y-78536904D01*
X122731009Y-78536904D02*
X122778628Y-78632142D01*
X122778628Y-78632142D02*
X122778628Y-79013094D01*
X122254819Y-78108332D02*
X122254819Y-77441666D01*
X122254819Y-77441666D02*
X123254819Y-77870237D01*
X133666666Y-75454819D02*
X133666666Y-76169104D01*
X133666666Y-76169104D02*
X133619047Y-76311961D01*
X133619047Y-76311961D02*
X133523809Y-76407200D01*
X133523809Y-76407200D02*
X133380952Y-76454819D01*
X133380952Y-76454819D02*
X133285714Y-76454819D01*
X134571428Y-75454819D02*
X134380952Y-75454819D01*
X134380952Y-75454819D02*
X134285714Y-75502438D01*
X134285714Y-75502438D02*
X134238095Y-75550057D01*
X134238095Y-75550057D02*
X134142857Y-75692914D01*
X134142857Y-75692914D02*
X134095238Y-75883390D01*
X134095238Y-75883390D02*
X134095238Y-76264342D01*
X134095238Y-76264342D02*
X134142857Y-76359580D01*
X134142857Y-76359580D02*
X134190476Y-76407200D01*
X134190476Y-76407200D02*
X134285714Y-76454819D01*
X134285714Y-76454819D02*
X134476190Y-76454819D01*
X134476190Y-76454819D02*
X134571428Y-76407200D01*
X134571428Y-76407200D02*
X134619047Y-76359580D01*
X134619047Y-76359580D02*
X134666666Y-76264342D01*
X134666666Y-76264342D02*
X134666666Y-76026247D01*
X134666666Y-76026247D02*
X134619047Y-75931009D01*
X134619047Y-75931009D02*
X134571428Y-75883390D01*
X134571428Y-75883390D02*
X134476190Y-75835771D01*
X134476190Y-75835771D02*
X134285714Y-75835771D01*
X134285714Y-75835771D02*
X134190476Y-75883390D01*
X134190476Y-75883390D02*
X134142857Y-75931009D01*
X134142857Y-75931009D02*
X134095238Y-76026247D01*
X120254819Y-78441666D02*
X119778628Y-78774999D01*
X120254819Y-79013094D02*
X119254819Y-79013094D01*
X119254819Y-79013094D02*
X119254819Y-78632142D01*
X119254819Y-78632142D02*
X119302438Y-78536904D01*
X119302438Y-78536904D02*
X119350057Y-78489285D01*
X119350057Y-78489285D02*
X119445295Y-78441666D01*
X119445295Y-78441666D02*
X119588152Y-78441666D01*
X119588152Y-78441666D02*
X119683390Y-78489285D01*
X119683390Y-78489285D02*
X119731009Y-78536904D01*
X119731009Y-78536904D02*
X119778628Y-78632142D01*
X119778628Y-78632142D02*
X119778628Y-79013094D01*
X119254819Y-77536904D02*
X119254819Y-78013094D01*
X119254819Y-78013094D02*
X119731009Y-78060713D01*
X119731009Y-78060713D02*
X119683390Y-78013094D01*
X119683390Y-78013094D02*
X119635771Y-77917856D01*
X119635771Y-77917856D02*
X119635771Y-77679761D01*
X119635771Y-77679761D02*
X119683390Y-77584523D01*
X119683390Y-77584523D02*
X119731009Y-77536904D01*
X119731009Y-77536904D02*
X119826247Y-77489285D01*
X119826247Y-77489285D02*
X120064342Y-77489285D01*
X120064342Y-77489285D02*
X120159580Y-77536904D01*
X120159580Y-77536904D02*
X120207200Y-77584523D01*
X120207200Y-77584523D02*
X120254819Y-77679761D01*
X120254819Y-77679761D02*
X120254819Y-77917856D01*
X120254819Y-77917856D02*
X120207200Y-78013094D01*
X120207200Y-78013094D02*
X120159580Y-78060713D01*
X118699580Y-79991666D02*
X118747200Y-80039285D01*
X118747200Y-80039285D02*
X118794819Y-80182142D01*
X118794819Y-80182142D02*
X118794819Y-80277380D01*
X118794819Y-80277380D02*
X118747200Y-80420237D01*
X118747200Y-80420237D02*
X118651961Y-80515475D01*
X118651961Y-80515475D02*
X118556723Y-80563094D01*
X118556723Y-80563094D02*
X118366247Y-80610713D01*
X118366247Y-80610713D02*
X118223390Y-80610713D01*
X118223390Y-80610713D02*
X118032914Y-80563094D01*
X118032914Y-80563094D02*
X117937676Y-80515475D01*
X117937676Y-80515475D02*
X117842438Y-80420237D01*
X117842438Y-80420237D02*
X117794819Y-80277380D01*
X117794819Y-80277380D02*
X117794819Y-80182142D01*
X117794819Y-80182142D02*
X117842438Y-80039285D01*
X117842438Y-80039285D02*
X117890057Y-79991666D01*
X117794819Y-79086904D02*
X117794819Y-79563094D01*
X117794819Y-79563094D02*
X118271009Y-79610713D01*
X118271009Y-79610713D02*
X118223390Y-79563094D01*
X118223390Y-79563094D02*
X118175771Y-79467856D01*
X118175771Y-79467856D02*
X118175771Y-79229761D01*
X118175771Y-79229761D02*
X118223390Y-79134523D01*
X118223390Y-79134523D02*
X118271009Y-79086904D01*
X118271009Y-79086904D02*
X118366247Y-79039285D01*
X118366247Y-79039285D02*
X118604342Y-79039285D01*
X118604342Y-79039285D02*
X118699580Y-79086904D01*
X118699580Y-79086904D02*
X118747200Y-79134523D01*
X118747200Y-79134523D02*
X118794819Y-79229761D01*
X118794819Y-79229761D02*
X118794819Y-79467856D01*
X118794819Y-79467856D02*
X118747200Y-79563094D01*
X118747200Y-79563094D02*
X118699580Y-79610713D01*
X124859580Y-83367857D02*
X124907200Y-83415476D01*
X124907200Y-83415476D02*
X124954819Y-83558333D01*
X124954819Y-83558333D02*
X124954819Y-83653571D01*
X124954819Y-83653571D02*
X124907200Y-83796428D01*
X124907200Y-83796428D02*
X124811961Y-83891666D01*
X124811961Y-83891666D02*
X124716723Y-83939285D01*
X124716723Y-83939285D02*
X124526247Y-83986904D01*
X124526247Y-83986904D02*
X124383390Y-83986904D01*
X124383390Y-83986904D02*
X124192914Y-83939285D01*
X124192914Y-83939285D02*
X124097676Y-83891666D01*
X124097676Y-83891666D02*
X124002438Y-83796428D01*
X124002438Y-83796428D02*
X123954819Y-83653571D01*
X123954819Y-83653571D02*
X123954819Y-83558333D01*
X123954819Y-83558333D02*
X124002438Y-83415476D01*
X124002438Y-83415476D02*
X124050057Y-83367857D01*
X124954819Y-82415476D02*
X124954819Y-82986904D01*
X124954819Y-82701190D02*
X123954819Y-82701190D01*
X123954819Y-82701190D02*
X124097676Y-82796428D01*
X124097676Y-82796428D02*
X124192914Y-82891666D01*
X124192914Y-82891666D02*
X124240533Y-82986904D01*
X124954819Y-81463095D02*
X124954819Y-82034523D01*
X124954819Y-81748809D02*
X123954819Y-81748809D01*
X123954819Y-81748809D02*
X124097676Y-81844047D01*
X124097676Y-81844047D02*
X124192914Y-81939285D01*
X124192914Y-81939285D02*
X124240533Y-82034523D01*
X113233333Y-68354819D02*
X112900000Y-67878628D01*
X112661905Y-68354819D02*
X112661905Y-67354819D01*
X112661905Y-67354819D02*
X113042857Y-67354819D01*
X113042857Y-67354819D02*
X113138095Y-67402438D01*
X113138095Y-67402438D02*
X113185714Y-67450057D01*
X113185714Y-67450057D02*
X113233333Y-67545295D01*
X113233333Y-67545295D02*
X113233333Y-67688152D01*
X113233333Y-67688152D02*
X113185714Y-67783390D01*
X113185714Y-67783390D02*
X113138095Y-67831009D01*
X113138095Y-67831009D02*
X113042857Y-67878628D01*
X113042857Y-67878628D02*
X112661905Y-67878628D01*
X114090476Y-67354819D02*
X113900000Y-67354819D01*
X113900000Y-67354819D02*
X113804762Y-67402438D01*
X113804762Y-67402438D02*
X113757143Y-67450057D01*
X113757143Y-67450057D02*
X113661905Y-67592914D01*
X113661905Y-67592914D02*
X113614286Y-67783390D01*
X113614286Y-67783390D02*
X113614286Y-68164342D01*
X113614286Y-68164342D02*
X113661905Y-68259580D01*
X113661905Y-68259580D02*
X113709524Y-68307200D01*
X113709524Y-68307200D02*
X113804762Y-68354819D01*
X113804762Y-68354819D02*
X113995238Y-68354819D01*
X113995238Y-68354819D02*
X114090476Y-68307200D01*
X114090476Y-68307200D02*
X114138095Y-68259580D01*
X114138095Y-68259580D02*
X114185714Y-68164342D01*
X114185714Y-68164342D02*
X114185714Y-67926247D01*
X114185714Y-67926247D02*
X114138095Y-67831009D01*
X114138095Y-67831009D02*
X114090476Y-67783390D01*
X114090476Y-67783390D02*
X113995238Y-67735771D01*
X113995238Y-67735771D02*
X113804762Y-67735771D01*
X113804762Y-67735771D02*
X113709524Y-67783390D01*
X113709524Y-67783390D02*
X113661905Y-67831009D01*
X113661905Y-67831009D02*
X113614286Y-67926247D01*
X132053571Y-85009580D02*
X132005952Y-85057200D01*
X132005952Y-85057200D02*
X131863095Y-85104819D01*
X131863095Y-85104819D02*
X131767857Y-85104819D01*
X131767857Y-85104819D02*
X131625000Y-85057200D01*
X131625000Y-85057200D02*
X131529762Y-84961961D01*
X131529762Y-84961961D02*
X131482143Y-84866723D01*
X131482143Y-84866723D02*
X131434524Y-84676247D01*
X131434524Y-84676247D02*
X131434524Y-84533390D01*
X131434524Y-84533390D02*
X131482143Y-84342914D01*
X131482143Y-84342914D02*
X131529762Y-84247676D01*
X131529762Y-84247676D02*
X131625000Y-84152438D01*
X131625000Y-84152438D02*
X131767857Y-84104819D01*
X131767857Y-84104819D02*
X131863095Y-84104819D01*
X131863095Y-84104819D02*
X132005952Y-84152438D01*
X132005952Y-84152438D02*
X132053571Y-84200057D01*
X132434524Y-84200057D02*
X132482143Y-84152438D01*
X132482143Y-84152438D02*
X132577381Y-84104819D01*
X132577381Y-84104819D02*
X132815476Y-84104819D01*
X132815476Y-84104819D02*
X132910714Y-84152438D01*
X132910714Y-84152438D02*
X132958333Y-84200057D01*
X132958333Y-84200057D02*
X133005952Y-84295295D01*
X133005952Y-84295295D02*
X133005952Y-84390533D01*
X133005952Y-84390533D02*
X132958333Y-84533390D01*
X132958333Y-84533390D02*
X132386905Y-85104819D01*
X132386905Y-85104819D02*
X133005952Y-85104819D01*
X133386905Y-84819104D02*
X133863095Y-84819104D01*
X133291667Y-85104819D02*
X133625000Y-84104819D01*
X133625000Y-84104819D02*
X133958333Y-85104819D01*
X134815476Y-85104819D02*
X134244048Y-85104819D01*
X134529762Y-85104819D02*
X134529762Y-84104819D01*
X134529762Y-84104819D02*
X134434524Y-84247676D01*
X134434524Y-84247676D02*
X134339286Y-84342914D01*
X134339286Y-84342914D02*
X134244048Y-84390533D01*
X101666666Y-62914819D02*
X101666666Y-63629104D01*
X101666666Y-63629104D02*
X101619047Y-63771961D01*
X101619047Y-63771961D02*
X101523809Y-63867200D01*
X101523809Y-63867200D02*
X101380952Y-63914819D01*
X101380952Y-63914819D02*
X101285714Y-63914819D01*
X102190476Y-63914819D02*
X102380952Y-63914819D01*
X102380952Y-63914819D02*
X102476190Y-63867200D01*
X102476190Y-63867200D02*
X102523809Y-63819580D01*
X102523809Y-63819580D02*
X102619047Y-63676723D01*
X102619047Y-63676723D02*
X102666666Y-63486247D01*
X102666666Y-63486247D02*
X102666666Y-63105295D01*
X102666666Y-63105295D02*
X102619047Y-63010057D01*
X102619047Y-63010057D02*
X102571428Y-62962438D01*
X102571428Y-62962438D02*
X102476190Y-62914819D01*
X102476190Y-62914819D02*
X102285714Y-62914819D01*
X102285714Y-62914819D02*
X102190476Y-62962438D01*
X102190476Y-62962438D02*
X102142857Y-63010057D01*
X102142857Y-63010057D02*
X102095238Y-63105295D01*
X102095238Y-63105295D02*
X102095238Y-63343390D01*
X102095238Y-63343390D02*
X102142857Y-63438628D01*
X102142857Y-63438628D02*
X102190476Y-63486247D01*
X102190476Y-63486247D02*
X102285714Y-63533866D01*
X102285714Y-63533866D02*
X102476190Y-63533866D01*
X102476190Y-63533866D02*
X102571428Y-63486247D01*
X102571428Y-63486247D02*
X102619047Y-63438628D01*
X102619047Y-63438628D02*
X102666666Y-63343390D01*
X107804819Y-82833333D02*
X108519104Y-82833333D01*
X108519104Y-82833333D02*
X108661961Y-82880952D01*
X108661961Y-82880952D02*
X108757200Y-82976190D01*
X108757200Y-82976190D02*
X108804819Y-83119047D01*
X108804819Y-83119047D02*
X108804819Y-83214285D01*
X108804819Y-81833333D02*
X108804819Y-82404761D01*
X108804819Y-82119047D02*
X107804819Y-82119047D01*
X107804819Y-82119047D02*
X107947676Y-82214285D01*
X107947676Y-82214285D02*
X108042914Y-82309523D01*
X108042914Y-82309523D02*
X108090533Y-82404761D01*
X130654819Y-64505594D02*
X129654819Y-64505594D01*
X129654819Y-64505594D02*
X129654819Y-64267499D01*
X129654819Y-64267499D02*
X129702438Y-64124642D01*
X129702438Y-64124642D02*
X129797676Y-64029404D01*
X129797676Y-64029404D02*
X129892914Y-63981785D01*
X129892914Y-63981785D02*
X130083390Y-63934166D01*
X130083390Y-63934166D02*
X130226247Y-63934166D01*
X130226247Y-63934166D02*
X130416723Y-63981785D01*
X130416723Y-63981785D02*
X130511961Y-64029404D01*
X130511961Y-64029404D02*
X130607200Y-64124642D01*
X130607200Y-64124642D02*
X130654819Y-64267499D01*
X130654819Y-64267499D02*
X130654819Y-64505594D01*
X130654819Y-62981785D02*
X130654819Y-63553213D01*
X130654819Y-63267499D02*
X129654819Y-63267499D01*
X129654819Y-63267499D02*
X129797676Y-63362737D01*
X129797676Y-63362737D02*
X129892914Y-63457975D01*
X129892914Y-63457975D02*
X129940533Y-63553213D01*
X122059580Y-73566666D02*
X122107200Y-73614285D01*
X122107200Y-73614285D02*
X122154819Y-73757142D01*
X122154819Y-73757142D02*
X122154819Y-73852380D01*
X122154819Y-73852380D02*
X122107200Y-73995237D01*
X122107200Y-73995237D02*
X122011961Y-74090475D01*
X122011961Y-74090475D02*
X121916723Y-74138094D01*
X121916723Y-74138094D02*
X121726247Y-74185713D01*
X121726247Y-74185713D02*
X121583390Y-74185713D01*
X121583390Y-74185713D02*
X121392914Y-74138094D01*
X121392914Y-74138094D02*
X121297676Y-74090475D01*
X121297676Y-74090475D02*
X121202438Y-73995237D01*
X121202438Y-73995237D02*
X121154819Y-73852380D01*
X121154819Y-73852380D02*
X121154819Y-73757142D01*
X121154819Y-73757142D02*
X121202438Y-73614285D01*
X121202438Y-73614285D02*
X121250057Y-73566666D01*
X122154819Y-73090475D02*
X122154819Y-72899999D01*
X122154819Y-72899999D02*
X122107200Y-72804761D01*
X122107200Y-72804761D02*
X122059580Y-72757142D01*
X122059580Y-72757142D02*
X121916723Y-72661904D01*
X121916723Y-72661904D02*
X121726247Y-72614285D01*
X121726247Y-72614285D02*
X121345295Y-72614285D01*
X121345295Y-72614285D02*
X121250057Y-72661904D01*
X121250057Y-72661904D02*
X121202438Y-72709523D01*
X121202438Y-72709523D02*
X121154819Y-72804761D01*
X121154819Y-72804761D02*
X121154819Y-72995237D01*
X121154819Y-72995237D02*
X121202438Y-73090475D01*
X121202438Y-73090475D02*
X121250057Y-73138094D01*
X121250057Y-73138094D02*
X121345295Y-73185713D01*
X121345295Y-73185713D02*
X121583390Y-73185713D01*
X121583390Y-73185713D02*
X121678628Y-73138094D01*
X121678628Y-73138094D02*
X121726247Y-73090475D01*
X121726247Y-73090475D02*
X121773866Y-72995237D01*
X121773866Y-72995237D02*
X121773866Y-72804761D01*
X121773866Y-72804761D02*
X121726247Y-72709523D01*
X121726247Y-72709523D02*
X121678628Y-72661904D01*
X121678628Y-72661904D02*
X121583390Y-72614285D01*
X115259580Y-55867857D02*
X115307200Y-55915476D01*
X115307200Y-55915476D02*
X115354819Y-56058333D01*
X115354819Y-56058333D02*
X115354819Y-56153571D01*
X115354819Y-56153571D02*
X115307200Y-56296428D01*
X115307200Y-56296428D02*
X115211961Y-56391666D01*
X115211961Y-56391666D02*
X115116723Y-56439285D01*
X115116723Y-56439285D02*
X114926247Y-56486904D01*
X114926247Y-56486904D02*
X114783390Y-56486904D01*
X114783390Y-56486904D02*
X114592914Y-56439285D01*
X114592914Y-56439285D02*
X114497676Y-56391666D01*
X114497676Y-56391666D02*
X114402438Y-56296428D01*
X114402438Y-56296428D02*
X114354819Y-56153571D01*
X114354819Y-56153571D02*
X114354819Y-56058333D01*
X114354819Y-56058333D02*
X114402438Y-55915476D01*
X114402438Y-55915476D02*
X114450057Y-55867857D01*
X115354819Y-54915476D02*
X115354819Y-55486904D01*
X115354819Y-55201190D02*
X114354819Y-55201190D01*
X114354819Y-55201190D02*
X114497676Y-55296428D01*
X114497676Y-55296428D02*
X114592914Y-55391666D01*
X114592914Y-55391666D02*
X114640533Y-55486904D01*
X114783390Y-54344047D02*
X114735771Y-54439285D01*
X114735771Y-54439285D02*
X114688152Y-54486904D01*
X114688152Y-54486904D02*
X114592914Y-54534523D01*
X114592914Y-54534523D02*
X114545295Y-54534523D01*
X114545295Y-54534523D02*
X114450057Y-54486904D01*
X114450057Y-54486904D02*
X114402438Y-54439285D01*
X114402438Y-54439285D02*
X114354819Y-54344047D01*
X114354819Y-54344047D02*
X114354819Y-54153571D01*
X114354819Y-54153571D02*
X114402438Y-54058333D01*
X114402438Y-54058333D02*
X114450057Y-54010714D01*
X114450057Y-54010714D02*
X114545295Y-53963095D01*
X114545295Y-53963095D02*
X114592914Y-53963095D01*
X114592914Y-53963095D02*
X114688152Y-54010714D01*
X114688152Y-54010714D02*
X114735771Y-54058333D01*
X114735771Y-54058333D02*
X114783390Y-54153571D01*
X114783390Y-54153571D02*
X114783390Y-54344047D01*
X114783390Y-54344047D02*
X114831009Y-54439285D01*
X114831009Y-54439285D02*
X114878628Y-54486904D01*
X114878628Y-54486904D02*
X114973866Y-54534523D01*
X114973866Y-54534523D02*
X115164342Y-54534523D01*
X115164342Y-54534523D02*
X115259580Y-54486904D01*
X115259580Y-54486904D02*
X115307200Y-54439285D01*
X115307200Y-54439285D02*
X115354819Y-54344047D01*
X115354819Y-54344047D02*
X115354819Y-54153571D01*
X115354819Y-54153571D02*
X115307200Y-54058333D01*
X115307200Y-54058333D02*
X115259580Y-54010714D01*
X115259580Y-54010714D02*
X115164342Y-53963095D01*
X115164342Y-53963095D02*
X114973866Y-53963095D01*
X114973866Y-53963095D02*
X114878628Y-54010714D01*
X114878628Y-54010714D02*
X114831009Y-54058333D01*
X114831009Y-54058333D02*
X114783390Y-54153571D01*
X129157142Y-80659580D02*
X129109523Y-80707200D01*
X129109523Y-80707200D02*
X128966666Y-80754819D01*
X128966666Y-80754819D02*
X128871428Y-80754819D01*
X128871428Y-80754819D02*
X128728571Y-80707200D01*
X128728571Y-80707200D02*
X128633333Y-80611961D01*
X128633333Y-80611961D02*
X128585714Y-80516723D01*
X128585714Y-80516723D02*
X128538095Y-80326247D01*
X128538095Y-80326247D02*
X128538095Y-80183390D01*
X128538095Y-80183390D02*
X128585714Y-79992914D01*
X128585714Y-79992914D02*
X128633333Y-79897676D01*
X128633333Y-79897676D02*
X128728571Y-79802438D01*
X128728571Y-79802438D02*
X128871428Y-79754819D01*
X128871428Y-79754819D02*
X128966666Y-79754819D01*
X128966666Y-79754819D02*
X129109523Y-79802438D01*
X129109523Y-79802438D02*
X129157142Y-79850057D01*
X130109523Y-80754819D02*
X129538095Y-80754819D01*
X129823809Y-80754819D02*
X129823809Y-79754819D01*
X129823809Y-79754819D02*
X129728571Y-79897676D01*
X129728571Y-79897676D02*
X129633333Y-79992914D01*
X129633333Y-79992914D02*
X129538095Y-80040533D01*
X130966666Y-79754819D02*
X130776190Y-79754819D01*
X130776190Y-79754819D02*
X130680952Y-79802438D01*
X130680952Y-79802438D02*
X130633333Y-79850057D01*
X130633333Y-79850057D02*
X130538095Y-79992914D01*
X130538095Y-79992914D02*
X130490476Y-80183390D01*
X130490476Y-80183390D02*
X130490476Y-80564342D01*
X130490476Y-80564342D02*
X130538095Y-80659580D01*
X130538095Y-80659580D02*
X130585714Y-80707200D01*
X130585714Y-80707200D02*
X130680952Y-80754819D01*
X130680952Y-80754819D02*
X130871428Y-80754819D01*
X130871428Y-80754819D02*
X130966666Y-80707200D01*
X130966666Y-80707200D02*
X131014285Y-80659580D01*
X131014285Y-80659580D02*
X131061904Y-80564342D01*
X131061904Y-80564342D02*
X131061904Y-80326247D01*
X131061904Y-80326247D02*
X131014285Y-80231009D01*
X131014285Y-80231009D02*
X130966666Y-80183390D01*
X130966666Y-80183390D02*
X130871428Y-80135771D01*
X130871428Y-80135771D02*
X130680952Y-80135771D01*
X130680952Y-80135771D02*
X130585714Y-80183390D01*
X130585714Y-80183390D02*
X130538095Y-80231009D01*
X130538095Y-80231009D02*
X130490476Y-80326247D01*
X133666666Y-53914819D02*
X133666666Y-54629104D01*
X133666666Y-54629104D02*
X133619047Y-54771961D01*
X133619047Y-54771961D02*
X133523809Y-54867200D01*
X133523809Y-54867200D02*
X133380952Y-54914819D01*
X133380952Y-54914819D02*
X133285714Y-54914819D01*
X134619047Y-53914819D02*
X134142857Y-53914819D01*
X134142857Y-53914819D02*
X134095238Y-54391009D01*
X134095238Y-54391009D02*
X134142857Y-54343390D01*
X134142857Y-54343390D02*
X134238095Y-54295771D01*
X134238095Y-54295771D02*
X134476190Y-54295771D01*
X134476190Y-54295771D02*
X134571428Y-54343390D01*
X134571428Y-54343390D02*
X134619047Y-54391009D01*
X134619047Y-54391009D02*
X134666666Y-54486247D01*
X134666666Y-54486247D02*
X134666666Y-54724342D01*
X134666666Y-54724342D02*
X134619047Y-54819580D01*
X134619047Y-54819580D02*
X134571428Y-54867200D01*
X134571428Y-54867200D02*
X134476190Y-54914819D01*
X134476190Y-54914819D02*
X134238095Y-54914819D01*
X134238095Y-54914819D02*
X134142857Y-54867200D01*
X134142857Y-54867200D02*
X134095238Y-54819580D01*
X130654819Y-67467857D02*
X130178628Y-67801190D01*
X130654819Y-68039285D02*
X129654819Y-68039285D01*
X129654819Y-68039285D02*
X129654819Y-67658333D01*
X129654819Y-67658333D02*
X129702438Y-67563095D01*
X129702438Y-67563095D02*
X129750057Y-67515476D01*
X129750057Y-67515476D02*
X129845295Y-67467857D01*
X129845295Y-67467857D02*
X129988152Y-67467857D01*
X129988152Y-67467857D02*
X130083390Y-67515476D01*
X130083390Y-67515476D02*
X130131009Y-67563095D01*
X130131009Y-67563095D02*
X130178628Y-67658333D01*
X130178628Y-67658333D02*
X130178628Y-68039285D01*
X130654819Y-66515476D02*
X130654819Y-67086904D01*
X130654819Y-66801190D02*
X129654819Y-66801190D01*
X129654819Y-66801190D02*
X129797676Y-66896428D01*
X129797676Y-66896428D02*
X129892914Y-66991666D01*
X129892914Y-66991666D02*
X129940533Y-67086904D01*
X129654819Y-66182142D02*
X129654819Y-65563095D01*
X129654819Y-65563095D02*
X130035771Y-65896428D01*
X130035771Y-65896428D02*
X130035771Y-65753571D01*
X130035771Y-65753571D02*
X130083390Y-65658333D01*
X130083390Y-65658333D02*
X130131009Y-65610714D01*
X130131009Y-65610714D02*
X130226247Y-65563095D01*
X130226247Y-65563095D02*
X130464342Y-65563095D01*
X130464342Y-65563095D02*
X130559580Y-65610714D01*
X130559580Y-65610714D02*
X130607200Y-65658333D01*
X130607200Y-65658333D02*
X130654819Y-65753571D01*
X130654819Y-65753571D02*
X130654819Y-66039285D01*
X130654819Y-66039285D02*
X130607200Y-66134523D01*
X130607200Y-66134523D02*
X130559580Y-66182142D01*
X125033333Y-63859580D02*
X124985714Y-63907200D01*
X124985714Y-63907200D02*
X124842857Y-63954819D01*
X124842857Y-63954819D02*
X124747619Y-63954819D01*
X124747619Y-63954819D02*
X124604762Y-63907200D01*
X124604762Y-63907200D02*
X124509524Y-63811961D01*
X124509524Y-63811961D02*
X124461905Y-63716723D01*
X124461905Y-63716723D02*
X124414286Y-63526247D01*
X124414286Y-63526247D02*
X124414286Y-63383390D01*
X124414286Y-63383390D02*
X124461905Y-63192914D01*
X124461905Y-63192914D02*
X124509524Y-63097676D01*
X124509524Y-63097676D02*
X124604762Y-63002438D01*
X124604762Y-63002438D02*
X124747619Y-62954819D01*
X124747619Y-62954819D02*
X124842857Y-62954819D01*
X124842857Y-62954819D02*
X124985714Y-63002438D01*
X124985714Y-63002438D02*
X125033333Y-63050057D01*
X125890476Y-63288152D02*
X125890476Y-63954819D01*
X125652381Y-62907200D02*
X125414286Y-63621485D01*
X125414286Y-63621485D02*
X126033333Y-63621485D01*
X121244819Y-62342857D02*
X120768628Y-62676190D01*
X121244819Y-62914285D02*
X120244819Y-62914285D01*
X120244819Y-62914285D02*
X120244819Y-62533333D01*
X120244819Y-62533333D02*
X120292438Y-62438095D01*
X120292438Y-62438095D02*
X120340057Y-62390476D01*
X120340057Y-62390476D02*
X120435295Y-62342857D01*
X120435295Y-62342857D02*
X120578152Y-62342857D01*
X120578152Y-62342857D02*
X120673390Y-62390476D01*
X120673390Y-62390476D02*
X120721009Y-62438095D01*
X120721009Y-62438095D02*
X120768628Y-62533333D01*
X120768628Y-62533333D02*
X120768628Y-62914285D01*
X121244819Y-61390476D02*
X121244819Y-61961904D01*
X121244819Y-61676190D02*
X120244819Y-61676190D01*
X120244819Y-61676190D02*
X120387676Y-61771428D01*
X120387676Y-61771428D02*
X120482914Y-61866666D01*
X120482914Y-61866666D02*
X120530533Y-61961904D01*
X120244819Y-60533333D02*
X120244819Y-60723809D01*
X120244819Y-60723809D02*
X120292438Y-60819047D01*
X120292438Y-60819047D02*
X120340057Y-60866666D01*
X120340057Y-60866666D02*
X120482914Y-60961904D01*
X120482914Y-60961904D02*
X120673390Y-61009523D01*
X120673390Y-61009523D02*
X121054342Y-61009523D01*
X121054342Y-61009523D02*
X121149580Y-60961904D01*
X121149580Y-60961904D02*
X121197200Y-60914285D01*
X121197200Y-60914285D02*
X121244819Y-60819047D01*
X121244819Y-60819047D02*
X121244819Y-60628571D01*
X121244819Y-60628571D02*
X121197200Y-60533333D01*
X121197200Y-60533333D02*
X121149580Y-60485714D01*
X121149580Y-60485714D02*
X121054342Y-60438095D01*
X121054342Y-60438095D02*
X120816247Y-60438095D01*
X120816247Y-60438095D02*
X120721009Y-60485714D01*
X120721009Y-60485714D02*
X120673390Y-60533333D01*
X120673390Y-60533333D02*
X120625771Y-60628571D01*
X120625771Y-60628571D02*
X120625771Y-60819047D01*
X120625771Y-60819047D02*
X120673390Y-60914285D01*
X120673390Y-60914285D02*
X120721009Y-60961904D01*
X120721009Y-60961904D02*
X120816247Y-61009523D01*
X133666666Y-64644819D02*
X133666666Y-65359104D01*
X133666666Y-65359104D02*
X133619047Y-65501961D01*
X133619047Y-65501961D02*
X133523809Y-65597200D01*
X133523809Y-65597200D02*
X133380952Y-65644819D01*
X133380952Y-65644819D02*
X133285714Y-65644819D01*
X134047619Y-64644819D02*
X134714285Y-64644819D01*
X134714285Y-64644819D02*
X134285714Y-65644819D01*
X113157142Y-77254819D02*
X112823809Y-76778628D01*
X112585714Y-77254819D02*
X112585714Y-76254819D01*
X112585714Y-76254819D02*
X112966666Y-76254819D01*
X112966666Y-76254819D02*
X113061904Y-76302438D01*
X113061904Y-76302438D02*
X113109523Y-76350057D01*
X113109523Y-76350057D02*
X113157142Y-76445295D01*
X113157142Y-76445295D02*
X113157142Y-76588152D01*
X113157142Y-76588152D02*
X113109523Y-76683390D01*
X113109523Y-76683390D02*
X113061904Y-76731009D01*
X113061904Y-76731009D02*
X112966666Y-76778628D01*
X112966666Y-76778628D02*
X112585714Y-76778628D01*
X114109523Y-77254819D02*
X113538095Y-77254819D01*
X113823809Y-77254819D02*
X113823809Y-76254819D01*
X113823809Y-76254819D02*
X113728571Y-76397676D01*
X113728571Y-76397676D02*
X113633333Y-76492914D01*
X113633333Y-76492914D02*
X113538095Y-76540533D01*
X115061904Y-77254819D02*
X114490476Y-77254819D01*
X114776190Y-77254819D02*
X114776190Y-76254819D01*
X114776190Y-76254819D02*
X114680952Y-76397676D01*
X114680952Y-76397676D02*
X114585714Y-76492914D01*
X114585714Y-76492914D02*
X114490476Y-76540533D01*
X127117319Y-75261904D02*
X127926842Y-75261904D01*
X127926842Y-75261904D02*
X128022080Y-75214285D01*
X128022080Y-75214285D02*
X128069700Y-75166666D01*
X128069700Y-75166666D02*
X128117319Y-75071428D01*
X128117319Y-75071428D02*
X128117319Y-74880952D01*
X128117319Y-74880952D02*
X128069700Y-74785714D01*
X128069700Y-74785714D02*
X128022080Y-74738095D01*
X128022080Y-74738095D02*
X127926842Y-74690476D01*
X127926842Y-74690476D02*
X127117319Y-74690476D01*
X127212557Y-74261904D02*
X127164938Y-74214285D01*
X127164938Y-74214285D02*
X127117319Y-74119047D01*
X127117319Y-74119047D02*
X127117319Y-73880952D01*
X127117319Y-73880952D02*
X127164938Y-73785714D01*
X127164938Y-73785714D02*
X127212557Y-73738095D01*
X127212557Y-73738095D02*
X127307795Y-73690476D01*
X127307795Y-73690476D02*
X127403033Y-73690476D01*
X127403033Y-73690476D02*
X127545890Y-73738095D01*
X127545890Y-73738095D02*
X128117319Y-74309523D01*
X128117319Y-74309523D02*
X128117319Y-73690476D01*
X110688095Y-54204819D02*
X110688095Y-55014342D01*
X110688095Y-55014342D02*
X110735714Y-55109580D01*
X110735714Y-55109580D02*
X110783333Y-55157200D01*
X110783333Y-55157200D02*
X110878571Y-55204819D01*
X110878571Y-55204819D02*
X111069047Y-55204819D01*
X111069047Y-55204819D02*
X111164285Y-55157200D01*
X111164285Y-55157200D02*
X111211904Y-55109580D01*
X111211904Y-55109580D02*
X111259523Y-55014342D01*
X111259523Y-55014342D02*
X111259523Y-54204819D01*
X111640476Y-54204819D02*
X112259523Y-54204819D01*
X112259523Y-54204819D02*
X111926190Y-54585771D01*
X111926190Y-54585771D02*
X112069047Y-54585771D01*
X112069047Y-54585771D02*
X112164285Y-54633390D01*
X112164285Y-54633390D02*
X112211904Y-54681009D01*
X112211904Y-54681009D02*
X112259523Y-54776247D01*
X112259523Y-54776247D02*
X112259523Y-55014342D01*
X112259523Y-55014342D02*
X112211904Y-55109580D01*
X112211904Y-55109580D02*
X112164285Y-55157200D01*
X112164285Y-55157200D02*
X112069047Y-55204819D01*
X112069047Y-55204819D02*
X111783333Y-55204819D01*
X111783333Y-55204819D02*
X111688095Y-55157200D01*
X111688095Y-55157200D02*
X111640476Y-55109580D01*
X109859580Y-59567857D02*
X109907200Y-59615476D01*
X109907200Y-59615476D02*
X109954819Y-59758333D01*
X109954819Y-59758333D02*
X109954819Y-59853571D01*
X109954819Y-59853571D02*
X109907200Y-59996428D01*
X109907200Y-59996428D02*
X109811961Y-60091666D01*
X109811961Y-60091666D02*
X109716723Y-60139285D01*
X109716723Y-60139285D02*
X109526247Y-60186904D01*
X109526247Y-60186904D02*
X109383390Y-60186904D01*
X109383390Y-60186904D02*
X109192914Y-60139285D01*
X109192914Y-60139285D02*
X109097676Y-60091666D01*
X109097676Y-60091666D02*
X109002438Y-59996428D01*
X109002438Y-59996428D02*
X108954819Y-59853571D01*
X108954819Y-59853571D02*
X108954819Y-59758333D01*
X108954819Y-59758333D02*
X109002438Y-59615476D01*
X109002438Y-59615476D02*
X109050057Y-59567857D01*
X109954819Y-58615476D02*
X109954819Y-59186904D01*
X109954819Y-58901190D02*
X108954819Y-58901190D01*
X108954819Y-58901190D02*
X109097676Y-58996428D01*
X109097676Y-58996428D02*
X109192914Y-59091666D01*
X109192914Y-59091666D02*
X109240533Y-59186904D01*
X108954819Y-58282142D02*
X108954819Y-57615476D01*
X108954819Y-57615476D02*
X109954819Y-58044047D01*
X123559580Y-73566666D02*
X123607200Y-73614285D01*
X123607200Y-73614285D02*
X123654819Y-73757142D01*
X123654819Y-73757142D02*
X123654819Y-73852380D01*
X123654819Y-73852380D02*
X123607200Y-73995237D01*
X123607200Y-73995237D02*
X123511961Y-74090475D01*
X123511961Y-74090475D02*
X123416723Y-74138094D01*
X123416723Y-74138094D02*
X123226247Y-74185713D01*
X123226247Y-74185713D02*
X123083390Y-74185713D01*
X123083390Y-74185713D02*
X122892914Y-74138094D01*
X122892914Y-74138094D02*
X122797676Y-74090475D01*
X122797676Y-74090475D02*
X122702438Y-73995237D01*
X122702438Y-73995237D02*
X122654819Y-73852380D01*
X122654819Y-73852380D02*
X122654819Y-73757142D01*
X122654819Y-73757142D02*
X122702438Y-73614285D01*
X122702438Y-73614285D02*
X122750057Y-73566666D01*
X122654819Y-73233332D02*
X122654819Y-72614285D01*
X122654819Y-72614285D02*
X123035771Y-72947618D01*
X123035771Y-72947618D02*
X123035771Y-72804761D01*
X123035771Y-72804761D02*
X123083390Y-72709523D01*
X123083390Y-72709523D02*
X123131009Y-72661904D01*
X123131009Y-72661904D02*
X123226247Y-72614285D01*
X123226247Y-72614285D02*
X123464342Y-72614285D01*
X123464342Y-72614285D02*
X123559580Y-72661904D01*
X123559580Y-72661904D02*
X123607200Y-72709523D01*
X123607200Y-72709523D02*
X123654819Y-72804761D01*
X123654819Y-72804761D02*
X123654819Y-73090475D01*
X123654819Y-73090475D02*
X123607200Y-73185713D01*
X123607200Y-73185713D02*
X123559580Y-73233332D01*
X116759580Y-56842857D02*
X116807200Y-56890476D01*
X116807200Y-56890476D02*
X116854819Y-57033333D01*
X116854819Y-57033333D02*
X116854819Y-57128571D01*
X116854819Y-57128571D02*
X116807200Y-57271428D01*
X116807200Y-57271428D02*
X116711961Y-57366666D01*
X116711961Y-57366666D02*
X116616723Y-57414285D01*
X116616723Y-57414285D02*
X116426247Y-57461904D01*
X116426247Y-57461904D02*
X116283390Y-57461904D01*
X116283390Y-57461904D02*
X116092914Y-57414285D01*
X116092914Y-57414285D02*
X115997676Y-57366666D01*
X115997676Y-57366666D02*
X115902438Y-57271428D01*
X115902438Y-57271428D02*
X115854819Y-57128571D01*
X115854819Y-57128571D02*
X115854819Y-57033333D01*
X115854819Y-57033333D02*
X115902438Y-56890476D01*
X115902438Y-56890476D02*
X115950057Y-56842857D01*
X115950057Y-56461904D02*
X115902438Y-56414285D01*
X115902438Y-56414285D02*
X115854819Y-56319047D01*
X115854819Y-56319047D02*
X115854819Y-56080952D01*
X115854819Y-56080952D02*
X115902438Y-55985714D01*
X115902438Y-55985714D02*
X115950057Y-55938095D01*
X115950057Y-55938095D02*
X116045295Y-55890476D01*
X116045295Y-55890476D02*
X116140533Y-55890476D01*
X116140533Y-55890476D02*
X116283390Y-55938095D01*
X116283390Y-55938095D02*
X116854819Y-56509523D01*
X116854819Y-56509523D02*
X116854819Y-55890476D01*
X115854819Y-55557142D02*
X115854819Y-54938095D01*
X115854819Y-54938095D02*
X116235771Y-55271428D01*
X116235771Y-55271428D02*
X116235771Y-55128571D01*
X116235771Y-55128571D02*
X116283390Y-55033333D01*
X116283390Y-55033333D02*
X116331009Y-54985714D01*
X116331009Y-54985714D02*
X116426247Y-54938095D01*
X116426247Y-54938095D02*
X116664342Y-54938095D01*
X116664342Y-54938095D02*
X116759580Y-54985714D01*
X116759580Y-54985714D02*
X116807200Y-55033333D01*
X116807200Y-55033333D02*
X116854819Y-55128571D01*
X116854819Y-55128571D02*
X116854819Y-55414285D01*
X116854819Y-55414285D02*
X116807200Y-55509523D01*
X116807200Y-55509523D02*
X116759580Y-55557142D01*
D11*
%TO.C,C25*%
X113940580Y-73190000D02*
X113659420Y-73190000D01*
X113940580Y-74210000D02*
X113659420Y-74210000D01*
%TO.C,J3*%
X100620000Y-77540000D02*
X102000000Y-77540000D01*
X100620000Y-78920000D02*
X100620000Y-77540000D01*
X100620000Y-80190000D02*
X100620000Y-85380000D01*
X100620000Y-80190000D02*
X103380000Y-80190000D01*
X100620000Y-85380000D02*
X103380000Y-85380000D01*
X103380000Y-80190000D02*
X103380000Y-85380000D01*
%TO.C,C1A1*%
X114359420Y-79990000D02*
X114640580Y-79990000D01*
X114359420Y-81010000D02*
X114640580Y-81010000D01*
%TO.C,C22*%
X117390000Y-56059420D02*
X117390000Y-56340580D01*
X118410000Y-56059420D02*
X118410000Y-56340580D01*
%TO.C,J2*%
X128020000Y-50520000D02*
X129400000Y-50520000D01*
X128020000Y-51900000D02*
X128020000Y-50520000D01*
X128020000Y-53170000D02*
X128020000Y-60900000D01*
X128020000Y-53170000D02*
X130780000Y-53170000D01*
X128020000Y-60900000D02*
X130780000Y-60900000D01*
X130780000Y-53170000D02*
X130780000Y-60900000D01*
%TO.C,C14*%
X132388748Y-81390000D02*
X133811252Y-81390000D01*
X132388748Y-83210000D02*
X133811252Y-83210000D01*
%TO.C,Q1*%
X106802500Y-75765000D02*
X108322500Y-75765000D01*
X106802500Y-76765000D02*
X106802500Y-75765000D01*
X106802500Y-78885000D02*
X106802500Y-77885000D01*
X108322500Y-75765000D02*
X108322500Y-75815000D01*
X108322500Y-76935000D02*
X108322500Y-77715000D01*
X108322500Y-78835000D02*
X108322500Y-78885000D01*
X108322500Y-78885000D02*
X106802500Y-78885000D01*
X108862500Y-77705000D02*
X108622500Y-77375000D01*
X109102500Y-77375000D01*
X108862500Y-77705000D01*
G36*
X108862500Y-77705000D02*
G01*
X108622500Y-77375000D01*
X109102500Y-77375000D01*
X108862500Y-77705000D01*
G37*
%TO.C,J4*%
X100620000Y-50540000D02*
X102000000Y-50540000D01*
X100620000Y-51920000D02*
X100620000Y-50540000D01*
X100620000Y-53190000D02*
X100620000Y-58380000D01*
X100620000Y-53190000D02*
X103380000Y-53190000D01*
X100620000Y-58380000D02*
X103380000Y-58380000D01*
X103380000Y-53190000D02*
X103380000Y-58380000D01*
%TO.C,C21*%
X113384420Y-50290000D02*
X113665580Y-50290000D01*
X113384420Y-51310000D02*
X113665580Y-51310000D01*
%TO.C,C12*%
X107259420Y-69690000D02*
X107540580Y-69690000D01*
X107259420Y-70710000D02*
X107540580Y-70710000D01*
%TO.C,C20*%
X111690000Y-59384420D02*
X111690000Y-59665580D01*
X112710000Y-59384420D02*
X112710000Y-59665580D01*
%TO.C,C6*%
X116490000Y-60840580D02*
X116490000Y-60559420D01*
X117510000Y-60840580D02*
X117510000Y-60559420D01*
%TO.C,R4*%
X120362742Y-79977500D02*
X120837258Y-79977500D01*
X120362742Y-81022500D02*
X120837258Y-81022500D01*
%TO.C,R2*%
X117977500Y-60462742D02*
X117977500Y-60937258D01*
X119022500Y-60462742D02*
X119022500Y-60937258D01*
%TO.C,C19*%
X126611252Y-79190000D02*
X125188748Y-79190000D01*
X126611252Y-81010000D02*
X125188748Y-81010000D01*
%TO.C,MP2331H1*%
X119550000Y-81440000D02*
X118500000Y-81440000D01*
X119550000Y-83760000D02*
X118250000Y-83760000D01*
X118140000Y-81440000D02*
X117860000Y-81440000D01*
X118140000Y-81160000D01*
X118140000Y-81440000D01*
G36*
X118140000Y-81440000D02*
G01*
X117860000Y-81440000D01*
X118140000Y-81160000D01*
X118140000Y-81440000D01*
G37*
%TO.C,SW1*%
X120120000Y-51890000D02*
X120120000Y-58350000D01*
X120120000Y-51890000D02*
X120150000Y-51890000D01*
X120120000Y-58350000D02*
X120150000Y-58350000D01*
X124650000Y-51890000D02*
X122050000Y-51890000D01*
X124650000Y-58350000D02*
X122050000Y-58350000D01*
X126550000Y-51890000D02*
X126580000Y-51890000D01*
X126580000Y-51890000D02*
X126580000Y-58350000D01*
X126580000Y-58350000D02*
X126550000Y-58350000D01*
%TO.C,J10*%
X100620000Y-68540000D02*
X102000000Y-68540000D01*
X100620000Y-69920000D02*
X100620000Y-68540000D01*
X100620000Y-71190000D02*
X100620000Y-76380000D01*
X100620000Y-71190000D02*
X103380000Y-71190000D01*
X100620000Y-76380000D02*
X103380000Y-76380000D01*
X103380000Y-71190000D02*
X103380000Y-76380000D01*
%TO.C,C1*%
X114365580Y-64490000D02*
X114084420Y-64490000D01*
X114365580Y-65510000D02*
X114084420Y-65510000D01*
%TO.C,C10*%
X107259420Y-63690000D02*
X107540580Y-63690000D01*
X107259420Y-64710000D02*
X107540580Y-64710000D01*
%TO.C,J8*%
X105620000Y-50620000D02*
X107000000Y-50620000D01*
X105620000Y-52000000D02*
X105620000Y-50620000D01*
X105620000Y-53270000D02*
X105620000Y-61000000D01*
X105620000Y-53270000D02*
X108380000Y-53270000D01*
X105620000Y-61000000D02*
X108380000Y-61000000D01*
X108380000Y-53270000D02*
X108380000Y-61000000D01*
%TO.C,C15*%
X111859420Y-68890000D02*
X112140580Y-68890000D01*
X111859420Y-69910000D02*
X112140580Y-69910000D01*
%TO.C,C8*%
X112140580Y-70390000D02*
X111859420Y-70390000D01*
X112140580Y-71410000D02*
X111859420Y-71410000D01*
%TO.C,C2*%
X113890000Y-84336252D02*
X113890000Y-82913748D01*
X115710000Y-84336252D02*
X115710000Y-82913748D01*
%TO.C,R3*%
X122037742Y-83027500D02*
X122512258Y-83027500D01*
X122037742Y-84072500D02*
X122512258Y-84072500D01*
%TO.C,D2*%
X127865000Y-62327500D02*
X127865000Y-64612500D01*
X129335000Y-62327500D02*
X127865000Y-62327500D01*
X129335000Y-64612500D02*
X129335000Y-62327500D01*
%TO.C,R17*%
X119677500Y-73637258D02*
X119677500Y-73162742D01*
X120722500Y-73637258D02*
X120722500Y-73162742D01*
%TO.C,U1*%
X116290000Y-63790000D02*
X116765000Y-63790000D01*
X116290000Y-64265000D02*
X116290000Y-63790000D01*
X116290000Y-71010000D02*
X116290000Y-70535000D01*
X116765000Y-71010000D02*
X116290000Y-71010000D01*
X123035000Y-63790000D02*
X123510000Y-63790000D01*
X123510000Y-63790000D02*
X123510000Y-64265000D01*
X123510000Y-70535000D02*
X123510000Y-71010000D01*
X123510000Y-71010000D02*
X123035000Y-71010000D01*
X115760000Y-64650000D02*
X115430000Y-64890000D01*
X115430000Y-64410000D01*
X115760000Y-64650000D01*
G36*
X115760000Y-64650000D02*
G01*
X115430000Y-64890000D01*
X115430000Y-64410000D01*
X115760000Y-64650000D01*
G37*
%TO.C,C24*%
X111490000Y-82913748D02*
X111490000Y-84336252D01*
X113310000Y-82913748D02*
X113310000Y-84336252D01*
%TO.C,R8*%
X109777500Y-77137742D02*
X109777500Y-77612258D01*
X110822500Y-77137742D02*
X110822500Y-77612258D01*
%TO.C,Y1*%
X105690000Y-69360000D02*
X109110000Y-69360000D01*
X109110000Y-69360000D02*
X109110000Y-65240000D01*
%TO.C,R15*%
X121777500Y-61462742D02*
X121777500Y-61937258D01*
X122822500Y-61462742D02*
X122822500Y-61937258D01*
%TO.C,L1*%
X125640000Y-81540000D02*
X129860000Y-81540000D01*
X129860000Y-85760000D02*
X125640000Y-85760000D01*
%TO.C,C7*%
X122134420Y-81540000D02*
X122415580Y-81540000D01*
X122134420Y-82560000D02*
X122415580Y-82560000D01*
D12*
%TO.C,U4*%
X115875000Y-52915000D02*
X115875000Y-52475000D01*
X115875000Y-54475000D02*
X115875000Y-53835000D01*
X115875000Y-54475000D02*
X116025000Y-54475000D01*
X118300000Y-54450000D02*
X118450000Y-54450000D01*
X118425000Y-52275000D02*
X118575000Y-52275000D01*
X118575000Y-52915000D02*
X118575000Y-52275000D01*
X118575000Y-54475000D02*
X118575000Y-53835000D01*
X115875000Y-52275000D02*
X115515000Y-52275000D01*
X115875000Y-51915000D01*
X115875000Y-52275000D01*
G36*
X115875000Y-52275000D02*
G01*
X115515000Y-52275000D01*
X115875000Y-51915000D01*
X115875000Y-52275000D01*
G37*
D11*
%TO.C,R12*%
X114037258Y-74677500D02*
X113562742Y-74677500D01*
X114037258Y-75722500D02*
X113562742Y-75722500D01*
%TO.C,R1*%
X116277500Y-81037742D02*
X116277500Y-81512258D01*
X117322500Y-81037742D02*
X117322500Y-81512258D01*
%TO.C,R14*%
X128077500Y-66575242D02*
X128077500Y-67049758D01*
X129122500Y-66575242D02*
X129122500Y-67049758D01*
%TO.C,C13*%
X120790000Y-78415580D02*
X120790000Y-78134420D01*
X121810000Y-78415580D02*
X121810000Y-78134420D01*
%TO.C,R7*%
X122277500Y-78037742D02*
X122277500Y-78512258D01*
X123322500Y-78037742D02*
X123322500Y-78512258D01*
%TO.C,J6*%
X132620000Y-72080000D02*
X134000000Y-72080000D01*
X132620000Y-73460000D02*
X132620000Y-72080000D01*
X132620000Y-74730000D02*
X132620000Y-79920000D01*
X132620000Y-74730000D02*
X135380000Y-74730000D01*
X132620000Y-79920000D02*
X135380000Y-79920000D01*
X135380000Y-74730000D02*
X135380000Y-79920000D01*
%TO.C,R5*%
X119277500Y-78037742D02*
X119277500Y-78512258D01*
X120322500Y-78037742D02*
X120322500Y-78512258D01*
%TO.C,C5*%
X117830000Y-79965580D02*
X117830000Y-79684420D01*
X118850000Y-79965580D02*
X118850000Y-79684420D01*
%TO.C,C11*%
X123990000Y-82865580D02*
X123990000Y-82584420D01*
X125010000Y-82865580D02*
X125010000Y-82584420D01*
%TO.C,R6*%
X113162742Y-67377500D02*
X113637258Y-67377500D01*
X113162742Y-68422500D02*
X113637258Y-68422500D01*
%TO.C,C2A1*%
X132413748Y-83740000D02*
X133836252Y-83740000D01*
X132413748Y-85560000D02*
X133836252Y-85560000D01*
%TO.C,J9*%
X100620000Y-59540000D02*
X102000000Y-59540000D01*
X100620000Y-60920000D02*
X100620000Y-59540000D01*
X100620000Y-62190000D02*
X100620000Y-67380000D01*
X100620000Y-62190000D02*
X103380000Y-62190000D01*
X100620000Y-67380000D02*
X103380000Y-67380000D01*
X103380000Y-62190000D02*
X103380000Y-67380000D01*
%TO.C,J1*%
X106600000Y-80050000D02*
X106600000Y-84950000D01*
X106600000Y-82400000D02*
X107100000Y-82400000D01*
X106600000Y-82500000D02*
X107100000Y-82500000D01*
X106600000Y-84950000D02*
X110100000Y-84950000D01*
X107100000Y-82400000D02*
X107100000Y-82600000D01*
X107100000Y-82600000D02*
X106600000Y-82600000D01*
X108100000Y-79440000D02*
X108100000Y-80050000D01*
X108100000Y-85560000D02*
X108100000Y-84950000D01*
X109400000Y-79440000D02*
X109400000Y-80050000D01*
X109400000Y-85560000D02*
X109400000Y-84950000D01*
X110100000Y-80050000D02*
X106600000Y-80050000D01*
X110100000Y-82000000D02*
X110100000Y-80050000D01*
X110100000Y-83000000D02*
X110710000Y-83000000D01*
X110100000Y-84950000D02*
X110100000Y-83000000D01*
X110710000Y-81200000D02*
X110910000Y-81200000D01*
X110710000Y-82000000D02*
X110100000Y-82000000D01*
X110810000Y-81200000D02*
X110810000Y-80900000D01*
X110910000Y-80900000D02*
X110710000Y-80900000D01*
X110910000Y-81200000D02*
X110910000Y-80900000D01*
X111010000Y-79140000D02*
X109760000Y-79140000D01*
X111010000Y-80390000D02*
X111010000Y-79140000D01*
X110710000Y-79440000D02*
X105990000Y-79440000D01*
X105990000Y-85560000D01*
X110710000Y-85560000D01*
X110710000Y-79440000D01*
%TO.C,D1*%
X129465000Y-62302500D02*
X129465000Y-64587500D01*
X130935000Y-62302500D02*
X129465000Y-62302500D01*
X130935000Y-64587500D02*
X130935000Y-62302500D01*
%TO.C,C9*%
X121190000Y-73259420D02*
X121190000Y-73540580D01*
X122210000Y-73259420D02*
X122210000Y-73540580D01*
%TO.C,C18*%
X114390000Y-55084420D02*
X114390000Y-55365580D01*
X115410000Y-55084420D02*
X115410000Y-55365580D01*
%TO.C,C16*%
X129940580Y-79790000D02*
X129659420Y-79790000D01*
X129940580Y-80810000D02*
X129659420Y-80810000D01*
%TO.C,J5*%
X132620000Y-50540000D02*
X134000000Y-50540000D01*
X132620000Y-51920000D02*
X132620000Y-50540000D01*
X132620000Y-53190000D02*
X132620000Y-58380000D01*
X132620000Y-53190000D02*
X135380000Y-53190000D01*
X132620000Y-58380000D02*
X135380000Y-58380000D01*
X135380000Y-53190000D02*
X135380000Y-58380000D01*
%TO.C,R13*%
X129677500Y-66587742D02*
X129677500Y-67062258D01*
X130722500Y-66587742D02*
X130722500Y-67062258D01*
%TO.C,C4*%
X125059420Y-62990000D02*
X125340580Y-62990000D01*
X125059420Y-64010000D02*
X125340580Y-64010000D01*
%TO.C,R16*%
X120267500Y-61462742D02*
X120267500Y-61937258D01*
X121312500Y-61462742D02*
X121312500Y-61937258D01*
%TO.C,J7*%
X132620000Y-60000000D02*
X134000000Y-60000000D01*
X132620000Y-61380000D02*
X132620000Y-60000000D01*
X132620000Y-62650000D02*
X132620000Y-70380000D01*
X132620000Y-62650000D02*
X135380000Y-62650000D01*
X132620000Y-70380000D02*
X135380000Y-70380000D01*
X135380000Y-62650000D02*
X135380000Y-70380000D01*
%TO.C,R11*%
X113562742Y-76277500D02*
X114037258Y-76277500D01*
X113562742Y-77322500D02*
X114037258Y-77322500D01*
%TO.C,U2*%
X124290000Y-72590000D02*
X125550000Y-72590000D01*
X124290000Y-76350000D02*
X124290000Y-72590000D01*
X131110000Y-72590000D02*
X129850000Y-72590000D01*
X131110000Y-76350000D02*
X131110000Y-72590000D01*
X124390000Y-77630000D02*
X124060000Y-77870000D01*
X124060000Y-77390000D01*
X124390000Y-77630000D01*
G36*
X124390000Y-77630000D02*
G01*
X124060000Y-77870000D01*
X124060000Y-77390000D01*
X124390000Y-77630000D01*
G37*
%TO.C,U3*%
X109300000Y-53065000D02*
X109300000Y-52840000D01*
X109300000Y-56900000D02*
X109300000Y-56375000D01*
X109300000Y-56900000D02*
X109825000Y-56900000D01*
X109825000Y-52600000D02*
X109600000Y-52600000D01*
X113600000Y-52600000D02*
X113075000Y-52600000D01*
X113600000Y-52600000D02*
X113600000Y-53125000D01*
X113600000Y-56900000D02*
X113075000Y-56900000D01*
X113600000Y-56900000D02*
X113600000Y-56375000D01*
X109300000Y-52600000D02*
X109060000Y-52270000D01*
X109540000Y-52270000D01*
X109300000Y-52600000D01*
G36*
X109300000Y-52600000D02*
G01*
X109060000Y-52270000D01*
X109540000Y-52270000D01*
X109300000Y-52600000D01*
G37*
%TO.C,C17*%
X108990000Y-59065580D02*
X108990000Y-58784420D01*
X110010000Y-59065580D02*
X110010000Y-58784420D01*
%TO.C,C3*%
X122690000Y-73259420D02*
X122690000Y-73540580D01*
X123710000Y-73259420D02*
X123710000Y-73540580D01*
%TO.C,C23*%
X115890000Y-56059420D02*
X115890000Y-56340580D01*
X116910000Y-56059420D02*
X116910000Y-56340580D01*
%TD*%
M02*
