%TF.GenerationSoftware,KiCad,Pcbnew,9.0.9-1.fc43*%
%TF.CreationDate,2026-05-26T22:42:04+05:30*%
%TF.ProjectId,MetalBird,4d657461-6c42-4697-9264-2e6b69636164,rev?*%
%TF.SameCoordinates,Original*%
%TF.FileFunction,Copper,L2,Bot*%
%TF.FilePolarity,Positive*%
%FSLAX46Y46*%
G04 Gerber Fmt 4.6, Leading zero omitted, Abs format (unit mm)*
G04 Created by KiCad (PCBNEW 9.0.9-1.fc43) date 2026-05-26 22:42:04*
%MOMM*%
%LPD*%
G01*
G04 APERTURE LIST*
G04 Aperture macros list*
%AMRoundRect*
0 Rectangle with rounded corners*
0 $1 Rounding radius*
0 $2 $3 $4 $5 $6 $7 $8 $9 X,Y pos of 4 corners*
0 Add a 4 corners polygon primitive as box body*
4,1,4,$2,$3,$4,$5,$6,$7,$8,$9,$2,$3,0*
0 Add four circle primitives for the rounded corners*
1,1,$1+$1,$2,$3*
1,1,$1+$1,$4,$5*
1,1,$1+$1,$6,$7*
1,1,$1+$1,$8,$9*
0 Add four rect primitives between the rounded corners*
20,1,$1+$1,$2,$3,$4,$5,0*
20,1,$1+$1,$4,$5,$6,$7,0*
20,1,$1+$1,$6,$7,$8,$9,0*
20,1,$1+$1,$8,$9,$2,$3,0*%
G04 Aperture macros list end*
%TA.AperFunction,ComponentPad*%
%ADD10R,1.700000X1.700000*%
%TD*%
%TA.AperFunction,ComponentPad*%
%ADD11C,1.700000*%
%TD*%
%TA.AperFunction,ComponentPad*%
%ADD12RoundRect,0.250000X-0.625000X0.350000X-0.625000X-0.350000X0.625000X-0.350000X0.625000X0.350000X0*%
%TD*%
%TA.AperFunction,ComponentPad*%
%ADD13O,1.750000X1.200000*%
%TD*%
%TA.AperFunction,ViaPad*%
%ADD14C,0.600000*%
%TD*%
%TA.AperFunction,Conductor*%
%ADD15C,1.000000*%
%TD*%
%TA.AperFunction,Conductor*%
%ADD16C,0.200000*%
%TD*%
%TA.AperFunction,Conductor*%
%ADD17C,0.500000*%
%TD*%
G04 APERTURE END LIST*
D10*
%TO.P,J3,1,Pin_1*%
%TO.N,GND*%
X102000000Y-78920000D03*
D11*
%TO.P,J3,2,Pin_2*%
%TO.N,5V*%
X102000000Y-81460000D03*
%TO.P,J3,3,Pin_3*%
%TO.N,Net-(J3-Pin_3)*%
X102000000Y-84000000D03*
%TD*%
D10*
%TO.P,J2,1,Pin_1*%
%TO.N,3.3V*%
X129400000Y-51900000D03*
D11*
%TO.P,J2,2,Pin_2*%
%TO.N,SWDIO*%
X129400000Y-54440000D03*
%TO.P,J2,3,Pin_3*%
%TO.N,SWDCLK*%
X129400000Y-56980000D03*
%TO.P,J2,4,Pin_4*%
%TO.N,GND*%
X129400000Y-59520000D03*
%TD*%
D10*
%TO.P,J4,1,Pin_1*%
%TO.N,GND*%
X102000000Y-51920000D03*
D11*
%TO.P,J4,2,Pin_2*%
%TO.N,5V*%
X102000000Y-54460000D03*
%TO.P,J4,3,Pin_3*%
%TO.N,Net-(J4-Pin_3)*%
X102000000Y-57000000D03*
%TD*%
D10*
%TO.P,J10,1,Pin_1*%
%TO.N,5V*%
X102000000Y-69920000D03*
D11*
%TO.P,J10,2,Pin_2*%
%TO.N,GND*%
X102000000Y-72460000D03*
%TO.P,J10,3,Pin_3*%
%TO.N,Video*%
X102000000Y-75000000D03*
%TD*%
D10*
%TO.P,J8,1,Pin_1*%
%TO.N,5V*%
X107000000Y-52000000D03*
D11*
%TO.P,J8,2,Pin_2*%
%TO.N,GND*%
X107000000Y-54540000D03*
%TO.P,J8,3,Pin_3*%
%TO.N,USART1_TX*%
X107000000Y-57080000D03*
%TO.P,J8,4,Pin_4*%
%TO.N,USART1_RX*%
X107000000Y-59620000D03*
%TD*%
D10*
%TO.P,J6,1,Pin_1*%
%TO.N,GND*%
X134000000Y-73460000D03*
D11*
%TO.P,J6,2,Pin_2*%
%TO.N,5V*%
X134000000Y-76000000D03*
%TO.P,J6,3,Pin_3*%
%TO.N,Net-(J6-Pin_3)*%
X134000000Y-78540000D03*
%TD*%
D10*
%TO.P,J9,1,Pin_1*%
%TO.N,5V*%
X102000000Y-60920000D03*
D11*
%TO.P,J9,2,Pin_2*%
%TO.N,GND*%
X102000000Y-63460000D03*
%TO.P,J9,3,Pin_3*%
%TO.N,Video*%
X102000000Y-66000000D03*
%TD*%
D12*
%TO.P,J1,1,Pin_1*%
%TO.N,Net-(J1-Pin_1)*%
X108900000Y-81500000D03*
D13*
%TO.P,J1,2,Pin_2*%
%TO.N,GND*%
X108900000Y-83500000D03*
%TD*%
D10*
%TO.P,J5,1,Pin_1*%
%TO.N,GND*%
X134000000Y-51920000D03*
D11*
%TO.P,J5,2,Pin_2*%
%TO.N,5V*%
X134000000Y-54460000D03*
%TO.P,J5,3,Pin_3*%
%TO.N,Net-(J5-Pin_3)*%
X134000000Y-57000000D03*
%TD*%
D10*
%TO.P,J7,1,Pin_1*%
%TO.N,5V*%
X134000000Y-61380000D03*
D11*
%TO.P,J7,2,Pin_2*%
%TO.N,GND*%
X134000000Y-63920000D03*
%TO.P,J7,3,Pin_3*%
%TO.N,USART2_TX*%
X134000000Y-66460000D03*
%TO.P,J7,4,Pin_4*%
%TO.N,USART2_RX*%
X134000000Y-69000000D03*
%TD*%
D14*
%TO.N,GND*%
X111200000Y-78900000D03*
X119300000Y-57800000D03*
X128800000Y-79200000D03*
X125600000Y-59700000D03*
X113700000Y-79500000D03*
X113700000Y-76000000D03*
X106600000Y-63400000D03*
X117900000Y-77800000D03*
X105500000Y-82000000D03*
X112800000Y-64900000D03*
X108200000Y-53400000D03*
X111000000Y-57800000D03*
X117500000Y-58800000D03*
X119800000Y-76400000D03*
X119900000Y-67400000D03*
X117400000Y-53400000D03*
X125400000Y-63300000D03*
X130900000Y-63500000D03*
X112700000Y-61500000D03*
X123100000Y-80600000D03*
X112300000Y-57700000D03*
X113100000Y-72300000D03*
X115500000Y-53500000D03*
X114500000Y-53500000D03*
X123700000Y-55200000D03*
X124300000Y-77700000D03*
X124600000Y-74300000D03*
X124300000Y-64600000D03*
X109500000Y-61000000D03*
X106200000Y-73500000D03*
X115400000Y-55000000D03*
X134600000Y-80700000D03*
%TO.N,5V*%
X104600000Y-84800000D03*
X126900000Y-76000000D03*
X128600000Y-76000000D03*
X129100000Y-84800000D03*
%TO.N,Net-(U1-PH0)*%
X112700000Y-66200000D03*
X114400000Y-66700000D03*
%TO.N,Net-(MP2331H1-SW)*%
X124400000Y-82300000D03*
X116800000Y-83200000D03*
%TO.N,Net-(U1-PH1)*%
X111600000Y-68300000D03*
X115400000Y-67300000D03*
%TO.N,Net-(U1-PA1)*%
X115200000Y-69900000D03*
X114600000Y-73300000D03*
%TO.N,SWDIO*%
X124300000Y-65500000D03*
%TO.N,SWDCLK*%
X123200000Y-63300000D03*
X128000000Y-58800000D03*
X125400000Y-62500000D03*
%TO.N,Net-(J3-Pin_3)*%
X124400000Y-68400000D03*
%TO.N,Net-(J4-Pin_3)*%
X105300000Y-70700000D03*
X111800000Y-75300000D03*
X105300000Y-63600000D03*
X110800000Y-74300000D03*
X125100000Y-71800000D03*
%TO.N,Net-(J5-Pin_3)*%
X131000000Y-58700000D03*
X130300000Y-61800000D03*
X124400000Y-67000000D03*
%TO.N,Net-(J6-Pin_3)*%
X124800000Y-66200000D03*
X130300000Y-71000000D03*
X130200000Y-73500000D03*
X131000000Y-76400000D03*
X126400000Y-66800000D03*
%TO.N,USART2_RX*%
X117100000Y-71900000D03*
X133900000Y-71100000D03*
X132600000Y-73200000D03*
%TO.N,USART2_TX*%
X118700000Y-73400000D03*
X131000000Y-66700000D03*
X128500000Y-74300000D03*
%TO.N,USART1_TX*%
X119800000Y-62500000D03*
%TO.N,USART1_RX*%
X119100000Y-60700000D03*
%TO.N,Video*%
X103800000Y-70400000D03*
X103800000Y-72800000D03*
%TO.N,Net-(MP2331H1-EN)*%
X120500000Y-82900000D03*
X116800000Y-79200000D03*
%TO.N,Net-(SW1-B)*%
X121100000Y-59700000D03*
X115400000Y-68200000D03*
%TO.N,Net-(U1-PB13)*%
X129100000Y-68600000D03*
X124600000Y-69900000D03*
%TO.N,Net-(U1-PB14)*%
X128200000Y-67600000D03*
X124800000Y-69100000D03*
%TO.N,SDA*%
X117500000Y-51200000D03*
X122700000Y-57600000D03*
X110400000Y-51100000D03*
X122400000Y-61800000D03*
X122700000Y-52500000D03*
%TO.N,INT*%
X114000000Y-58200000D03*
X115700000Y-58200000D03*
%TO.N,SCL*%
X111000000Y-51800000D03*
X121800000Y-57600000D03*
X121800000Y-52600000D03*
X118200000Y-52100000D03*
X119800000Y-72000000D03*
%TD*%
D15*
%TO.N,GND*%
X104400000Y-54320000D02*
X102000000Y-51920000D01*
D16*
X124300000Y-64600000D02*
X125400000Y-63500000D01*
D15*
X117400000Y-55200000D02*
X115600000Y-55200000D01*
X130100000Y-75300000D02*
X132160000Y-75300000D01*
D16*
X111100000Y-57700000D02*
X111000000Y-57800000D01*
D15*
X105500000Y-74200000D02*
X106200000Y-73500000D01*
X129800000Y-75600000D02*
X130100000Y-75300000D01*
X105500000Y-78900000D02*
X105500000Y-75100000D01*
X130900000Y-63500000D02*
X131500000Y-62900000D01*
X112800000Y-64900000D02*
X112800000Y-61600000D01*
D17*
X132000000Y-56600000D02*
X132000000Y-53920000D01*
D15*
X104870000Y-66330000D02*
X102000000Y-63460000D01*
D17*
X112800000Y-61600000D02*
X112700000Y-61500000D01*
D15*
X106600000Y-64600000D02*
X106600000Y-63400000D01*
D17*
X129400000Y-59520000D02*
X129400000Y-59200000D01*
D15*
X115500000Y-54900000D02*
X115400000Y-55000000D01*
X104400000Y-59400000D02*
X104400000Y-54320000D01*
D16*
X112400000Y-57600000D02*
X112300000Y-57700000D01*
D15*
X102020000Y-78900000D02*
X102000000Y-78920000D01*
X106600000Y-61600000D02*
X104400000Y-59400000D01*
D17*
X113700000Y-76000000D02*
X115550000Y-77850000D01*
D15*
X104870000Y-66330000D02*
X106600000Y-64600000D01*
X119300000Y-57800000D02*
X118500000Y-57800000D01*
X119800000Y-76400000D02*
X121100000Y-77700000D01*
X134000000Y-73000000D02*
X132000000Y-71000000D01*
X121100000Y-77700000D02*
X124300000Y-77700000D01*
X110000000Y-61500000D02*
X109500000Y-61000000D01*
X121900000Y-55200000D02*
X117400000Y-55200000D01*
X105500000Y-75100000D02*
X105500000Y-74200000D01*
X130220000Y-59520000D02*
X129400000Y-59520000D01*
X129800000Y-78200000D02*
X129800000Y-75600000D01*
X132160000Y-75300000D02*
X134000000Y-73460000D01*
D16*
X114200000Y-57600000D02*
X112400000Y-57600000D01*
D15*
X131500000Y-62900000D02*
X131500000Y-60800000D01*
X131880000Y-63920000D02*
X134000000Y-63920000D01*
X124300000Y-77700000D02*
X124300000Y-79400000D01*
D17*
X129400000Y-59200000D02*
X132000000Y-56600000D01*
D15*
X132000000Y-71000000D02*
X132000000Y-69400000D01*
X104620000Y-54540000D02*
X107000000Y-54540000D01*
X130300000Y-80700000D02*
X128800000Y-79200000D01*
X119300000Y-57800000D02*
X121900000Y-55200000D01*
X125600000Y-59700000D02*
X126200000Y-60300000D01*
X107725000Y-69185000D02*
X104870000Y-66330000D01*
X134600000Y-80700000D02*
X130300000Y-80700000D01*
X107725000Y-71575000D02*
X107725000Y-69185000D01*
X104640000Y-75100000D02*
X102000000Y-72460000D01*
X108900000Y-83500000D02*
X109900000Y-83500000D01*
X117400000Y-53400000D02*
X117400000Y-55200000D01*
X128800000Y-79200000D02*
X129800000Y-78200000D01*
X131320000Y-63920000D02*
X130900000Y-63500000D01*
X128620000Y-60300000D02*
X129400000Y-59520000D01*
D16*
X108200000Y-53400000D02*
X108140000Y-53400000D01*
D15*
X106600000Y-63400000D02*
X106600000Y-61600000D01*
X131500000Y-60800000D02*
X130220000Y-59520000D01*
X112800000Y-64900000D02*
X117400000Y-64900000D01*
X134000000Y-73460000D02*
X134000000Y-73000000D01*
X109900000Y-83500000D02*
X115550000Y-77850000D01*
D16*
X125400000Y-63500000D02*
X125400000Y-63300000D01*
D15*
X104400000Y-54320000D02*
X104620000Y-54540000D01*
X117900000Y-77800000D02*
X117000000Y-76900000D01*
X124300000Y-79400000D02*
X123100000Y-80600000D01*
X117000000Y-76900000D02*
X117000000Y-76400000D01*
X105500000Y-75100000D02*
X104640000Y-75100000D01*
X115500000Y-53500000D02*
X114600000Y-53500000D01*
D17*
X133580000Y-63500000D02*
X134000000Y-63920000D01*
D15*
X115500000Y-53500000D02*
X115500000Y-54900000D01*
D16*
X112300000Y-57700000D02*
X111100000Y-57700000D01*
D15*
X117400000Y-64900000D02*
X119900000Y-67400000D01*
X105500000Y-78900000D02*
X102020000Y-78900000D01*
X112700000Y-61500000D02*
X110000000Y-61500000D01*
D16*
X115600000Y-53400000D02*
X115500000Y-53500000D01*
X114500000Y-57300000D02*
X114200000Y-57600000D01*
D15*
X112500000Y-64600000D02*
X112800000Y-64900000D01*
X115550000Y-77850000D02*
X117000000Y-76400000D01*
X124300000Y-77700000D02*
X127300000Y-77700000D01*
X105500000Y-82000000D02*
X105500000Y-78900000D01*
X123700000Y-55200000D02*
X121900000Y-55200000D01*
X134000000Y-63920000D02*
X131320000Y-63920000D01*
X117000000Y-76400000D02*
X119800000Y-76400000D01*
X127300000Y-77700000D02*
X128800000Y-79200000D01*
X107000000Y-54540000D02*
X107210000Y-54540000D01*
D17*
X106600000Y-63400000D02*
X106600000Y-62700000D01*
D15*
X106600000Y-64600000D02*
X112500000Y-64600000D01*
X115600000Y-55200000D02*
X115400000Y-55000000D01*
X129200000Y-66600000D02*
X131880000Y-63920000D01*
X126200000Y-60300000D02*
X128620000Y-60300000D01*
X132000000Y-69400000D02*
X129200000Y-66600000D01*
D16*
X114500000Y-53500000D02*
X114500000Y-57300000D01*
D17*
X132000000Y-53920000D02*
X134000000Y-51920000D01*
D15*
X107210000Y-54540000D02*
X108200000Y-53550000D01*
X118500000Y-57800000D02*
X117500000Y-58800000D01*
D17*
%TO.N,5V*%
X126900000Y-76000000D02*
X128600000Y-76000000D01*
X129100000Y-84800000D02*
X104600000Y-84800000D01*
D16*
%TO.N,Net-(U1-PH0)*%
X113900000Y-66200000D02*
X114400000Y-66700000D01*
X112700000Y-66200000D02*
X113900000Y-66200000D01*
D17*
%TO.N,Net-(MP2331H1-SW)*%
X122400000Y-82300000D02*
X120800000Y-83900000D01*
X120800000Y-83900000D02*
X117500000Y-83900000D01*
X124400000Y-82300000D02*
X122400000Y-82300000D01*
X117500000Y-83900000D02*
X116800000Y-83200000D01*
D16*
%TO.N,Net-(U1-PH1)*%
X114400000Y-68300000D02*
X115400000Y-67300000D01*
X111600000Y-68300000D02*
X114400000Y-68300000D01*
%TO.N,Net-(U1-PA1)*%
X114600000Y-70500000D02*
X115200000Y-69900000D01*
X114600000Y-73300000D02*
X114600000Y-70500000D01*
%TO.N,SWDIO*%
X124100000Y-58600000D02*
X124100000Y-60351471D01*
X129400000Y-54440000D02*
X128260000Y-54440000D01*
X124100000Y-60351471D02*
X126000000Y-62251471D01*
X128260000Y-54440000D02*
X124100000Y-58600000D01*
X126000000Y-62251471D02*
X126000000Y-63800000D01*
X126000000Y-63800000D02*
X124300000Y-65500000D01*
%TO.N,SWDCLK*%
X124000000Y-62500000D02*
X123200000Y-63300000D01*
X125400000Y-62500000D02*
X124000000Y-62500000D01*
X129400000Y-56980000D02*
X129400000Y-57400000D01*
X129400000Y-57400000D02*
X128000000Y-58800000D01*
%TO.N,Net-(J3-Pin_3)*%
X107400000Y-81500000D02*
X104900000Y-84000000D01*
X115600000Y-73300000D02*
X115600000Y-71900000D01*
X124400000Y-68400000D02*
X123400000Y-69400000D01*
X120100000Y-73200000D02*
X121800000Y-73200000D01*
X121800000Y-73200000D02*
X123400000Y-71600000D01*
X107400000Y-78600000D02*
X107400000Y-81500000D01*
X118200000Y-71300000D02*
X120100000Y-73200000D01*
X115600000Y-71900000D02*
X116200000Y-71300000D01*
X123400000Y-69400000D02*
X123400000Y-71600000D01*
X114300000Y-74600000D02*
X115600000Y-73300000D01*
X104900000Y-84000000D02*
X102000000Y-84000000D01*
X116200000Y-71300000D02*
X118200000Y-71300000D01*
X111400000Y-74600000D02*
X114300000Y-74600000D01*
X111400000Y-74600000D02*
X107400000Y-78600000D01*
%TO.N,Net-(J4-Pin_3)*%
X126400000Y-73300000D02*
X125100000Y-72000000D01*
X126200000Y-74300000D02*
X127500000Y-74300000D01*
X110400000Y-73900000D02*
X108500000Y-73900000D01*
X129100000Y-74000000D02*
X128400000Y-73300000D01*
X103500000Y-61800000D02*
X103500000Y-60200000D01*
X124000000Y-73000000D02*
X124900000Y-73000000D01*
X128800000Y-74900000D02*
X129100000Y-74600000D01*
X105200000Y-70600000D02*
X105300000Y-70700000D01*
X102000000Y-58700000D02*
X102000000Y-57000000D01*
X105300000Y-63600000D02*
X103500000Y-61800000D01*
X125100000Y-72000000D02*
X125100000Y-71800000D01*
X128400000Y-73300000D02*
X126400000Y-73300000D01*
X108500000Y-73900000D02*
X105300000Y-70700000D01*
X111800000Y-75300000D02*
X114300000Y-75300000D01*
X103500000Y-60200000D02*
X102000000Y-58700000D01*
X115100000Y-74500000D02*
X122500000Y-74500000D01*
X124900000Y-73000000D02*
X126200000Y-74300000D01*
X127500000Y-74300000D02*
X128100000Y-74900000D01*
X110800000Y-74300000D02*
X110400000Y-73900000D01*
X128100000Y-74900000D02*
X128800000Y-74900000D01*
X122500000Y-74500000D02*
X124000000Y-73000000D01*
X129100000Y-74600000D02*
X129100000Y-74000000D01*
X114300000Y-75300000D02*
X115100000Y-74500000D01*
%TO.N,Net-(J5-Pin_3)*%
X127000000Y-65100000D02*
X127000000Y-67100000D01*
X125100000Y-67000000D02*
X124400000Y-67000000D01*
X127000000Y-67100000D02*
X126300000Y-67800000D01*
X131000000Y-58700000D02*
X132000000Y-58700000D01*
X133700000Y-57000000D02*
X134000000Y-57000000D01*
X126300000Y-67800000D02*
X125900000Y-67800000D01*
X132000000Y-58700000D02*
X133700000Y-57000000D01*
X125900000Y-67800000D02*
X125100000Y-67000000D01*
X130300000Y-61800000D02*
X127000000Y-65100000D01*
%TO.N,Net-(J6-Pin_3)*%
X130200000Y-73500000D02*
X130200000Y-71100000D01*
X125800000Y-66200000D02*
X124800000Y-66200000D01*
X130200000Y-71100000D02*
X130300000Y-71000000D01*
X134000000Y-78540000D02*
X133140000Y-78540000D01*
X126400000Y-66800000D02*
X125800000Y-66200000D01*
X133140000Y-78540000D02*
X131000000Y-76400000D01*
%TO.N,USART2_RX*%
X125300000Y-70300000D02*
X121900000Y-73700000D01*
X130700000Y-70300000D02*
X125300000Y-70300000D01*
X118200000Y-71900000D02*
X117100000Y-71900000D01*
X131000000Y-70600000D02*
X130700000Y-70300000D01*
X132600000Y-73200000D02*
X131000000Y-71600000D01*
X134000000Y-71000000D02*
X133900000Y-71100000D01*
X120000000Y-73700000D02*
X118200000Y-71900000D01*
X134000000Y-69000000D02*
X134000000Y-71000000D01*
X121900000Y-73700000D02*
X120000000Y-73700000D01*
X131000000Y-71600000D02*
X131000000Y-70600000D01*
%TO.N,USART2_TX*%
X119400000Y-74100000D02*
X118700000Y-73400000D01*
X131000000Y-66700000D02*
X133400000Y-66700000D01*
X123900000Y-72500000D02*
X122300000Y-74100000D01*
X122300000Y-74100000D02*
X119400000Y-74100000D01*
X126200000Y-73700000D02*
X125000000Y-72500000D01*
X125000000Y-72500000D02*
X123900000Y-72500000D01*
X127900000Y-73700000D02*
X126200000Y-73700000D01*
X133400000Y-66700000D02*
X133640000Y-66460000D01*
X133640000Y-66460000D02*
X134000000Y-66460000D01*
X128500000Y-74300000D02*
X127900000Y-73700000D01*
%TO.N,USART1_TX*%
X113900000Y-59500000D02*
X109420000Y-59500000D01*
X119300000Y-60000000D02*
X114400000Y-60000000D01*
X119800000Y-60500000D02*
X119800000Y-62500000D01*
X119800000Y-60500000D02*
X119300000Y-60000000D01*
X107000000Y-57080000D02*
X109420000Y-59500000D01*
X114400000Y-60000000D02*
X113900000Y-59500000D01*
%TO.N,USART1_RX*%
X118900000Y-60500000D02*
X114200000Y-60500000D01*
X114200000Y-60500000D02*
X113600000Y-59900000D01*
X119100000Y-60700000D02*
X118900000Y-60500000D01*
X113600000Y-59900000D02*
X107280000Y-59900000D01*
X107280000Y-59900000D02*
X107000000Y-59620000D01*
D17*
%TO.N,Video*%
X103800000Y-70400000D02*
X103800000Y-72800000D01*
D16*
%TO.N,Net-(MP2331H1-EN)*%
X116800000Y-79200000D02*
X120500000Y-82900000D01*
%TO.N,Net-(SW1-B)*%
X115400000Y-69100000D02*
X115400000Y-68200000D01*
X121100000Y-69500000D02*
X120500000Y-70100000D01*
X116400000Y-70100000D02*
X115400000Y-69100000D01*
X121100000Y-59700000D02*
X121100000Y-69500000D01*
X120500000Y-70100000D02*
X116400000Y-70100000D01*
%TO.N,Net-(U1-PB13)*%
X129100000Y-68600000D02*
X127300000Y-68600000D01*
X126000000Y-69900000D02*
X124600000Y-69900000D01*
X127300000Y-68600000D02*
X126000000Y-69900000D01*
%TO.N,Net-(U1-PB14)*%
X127600000Y-67600000D02*
X125800000Y-69400000D01*
X128200000Y-67600000D02*
X127600000Y-67600000D01*
X125100000Y-69400000D02*
X124800000Y-69100000D01*
X125800000Y-69400000D02*
X125100000Y-69400000D01*
%TO.N,SDA*%
X121400000Y-51200000D02*
X122700000Y-52500000D01*
X110400000Y-51100000D02*
X117400000Y-51100000D01*
X117400000Y-51100000D02*
X117500000Y-51200000D01*
X122700000Y-61500000D02*
X122400000Y-61800000D01*
X122700000Y-57600000D02*
X122700000Y-61500000D01*
X117500000Y-51200000D02*
X121400000Y-51200000D01*
%TO.N,INT*%
X114000000Y-58200000D02*
X115700000Y-58200000D01*
%TO.N,SCL*%
X121300000Y-52100000D02*
X121800000Y-52600000D01*
X121800000Y-57600000D02*
X121800000Y-70000000D01*
X117900000Y-51800000D02*
X118200000Y-52100000D01*
X111000000Y-51800000D02*
X117900000Y-51800000D01*
X121800000Y-70000000D02*
X119800000Y-72000000D01*
X118200000Y-52100000D02*
X121300000Y-52100000D01*
%TD*%
%TA.AperFunction,Conductor*%
%TO.N,GND*%
G36*
X107606384Y-82245362D02*
G01*
X107662318Y-82287234D01*
X107668590Y-82296448D01*
X107682288Y-82318656D01*
X107806344Y-82442712D01*
X107870981Y-82482580D01*
X107917705Y-82534526D01*
X107928928Y-82603489D01*
X107901085Y-82667571D01*
X107893566Y-82675799D01*
X107785964Y-82783401D01*
X107684195Y-82923475D01*
X107605591Y-83077744D01*
X107552085Y-83242415D01*
X107550884Y-83249999D01*
X107550885Y-83250000D01*
X108619670Y-83250000D01*
X108599925Y-83269745D01*
X108550556Y-83355255D01*
X108525000Y-83450630D01*
X108525000Y-83549370D01*
X108550556Y-83644745D01*
X108599925Y-83730255D01*
X108619670Y-83750000D01*
X107550885Y-83750000D01*
X107552085Y-83757584D01*
X107594195Y-83887182D01*
X107596190Y-83957023D01*
X107560110Y-84016856D01*
X107497409Y-84047684D01*
X107476264Y-84049500D01*
X105999097Y-84049500D01*
X105932058Y-84029815D01*
X105886303Y-83977011D01*
X105876359Y-83907853D01*
X105905384Y-83844297D01*
X105911416Y-83837819D01*
X106298605Y-83450630D01*
X107475372Y-82273861D01*
X107536693Y-82240378D01*
X107606384Y-82245362D01*
G37*
%TD.AperFunction*%
%TA.AperFunction,Conductor*%
G36*
X124887273Y-63120185D02*
G01*
X124889125Y-63121398D01*
X125020814Y-63209390D01*
X125020827Y-63209397D01*
X125159912Y-63267007D01*
X125166503Y-63269737D01*
X125276987Y-63291713D01*
X125299691Y-63296230D01*
X125327814Y-63310940D01*
X125356703Y-63324134D01*
X125358560Y-63327023D01*
X125361602Y-63328615D01*
X125377308Y-63356197D01*
X125394477Y-63382912D01*
X125395137Y-63387506D01*
X125396176Y-63389330D01*
X125399500Y-63417847D01*
X125399500Y-63499903D01*
X125379815Y-63566942D01*
X125363181Y-63587584D01*
X124285339Y-64665425D01*
X124224016Y-64698910D01*
X124221850Y-64699361D01*
X124066508Y-64730261D01*
X124066498Y-64730264D01*
X123920827Y-64790602D01*
X123920819Y-64790607D01*
X123789711Y-64878210D01*
X123789707Y-64878213D01*
X123678213Y-64989707D01*
X123678210Y-64989711D01*
X123590609Y-65120814D01*
X123590602Y-65120827D01*
X123530264Y-65266498D01*
X123530261Y-65266510D01*
X123499500Y-65421153D01*
X123499500Y-65578846D01*
X123530261Y-65733489D01*
X123530264Y-65733501D01*
X123590602Y-65879172D01*
X123590609Y-65879185D01*
X123678210Y-66010288D01*
X123678213Y-66010292D01*
X123789710Y-66121789D01*
X123878042Y-66180810D01*
X123922847Y-66234422D01*
X123931554Y-66303747D01*
X123901400Y-66366774D01*
X123893983Y-66373868D01*
X123894018Y-66373903D01*
X123778213Y-66489707D01*
X123778210Y-66489711D01*
X123690609Y-66620814D01*
X123690602Y-66620827D01*
X123630264Y-66766498D01*
X123630261Y-66766510D01*
X123599500Y-66921153D01*
X123599500Y-67078846D01*
X123630261Y-67233489D01*
X123630264Y-67233501D01*
X123690602Y-67379172D01*
X123690609Y-67379185D01*
X123778210Y-67510288D01*
X123778213Y-67510292D01*
X123880240Y-67612319D01*
X123913725Y-67673642D01*
X123908741Y-67743334D01*
X123880240Y-67787681D01*
X123778213Y-67889707D01*
X123778210Y-67889711D01*
X123690609Y-68020814D01*
X123690602Y-68020827D01*
X123630264Y-68166498D01*
X123630261Y-68166508D01*
X123599362Y-68321848D01*
X123566977Y-68383759D01*
X123565426Y-68385337D01*
X123031286Y-68919478D01*
X122919481Y-69031282D01*
X122919479Y-69031285D01*
X122874385Y-69109392D01*
X122874384Y-69109393D01*
X122840423Y-69168214D01*
X122840423Y-69168215D01*
X122799499Y-69320943D01*
X122799499Y-69320945D01*
X122799499Y-69489046D01*
X122799500Y-69489059D01*
X122799500Y-71299902D01*
X122779815Y-71366941D01*
X122763181Y-71387583D01*
X121587584Y-72563181D01*
X121526261Y-72596666D01*
X121499903Y-72599500D01*
X120594168Y-72599500D01*
X120527129Y-72579815D01*
X120481374Y-72527011D01*
X120471430Y-72457853D01*
X120491067Y-72406608D01*
X120509389Y-72379187D01*
X120509390Y-72379184D01*
X120509394Y-72379179D01*
X120514061Y-72367913D01*
X120523067Y-72346166D01*
X120569737Y-72233497D01*
X120600500Y-72078842D01*
X120600638Y-72078150D01*
X120633023Y-72016239D01*
X120634519Y-72014715D01*
X122158506Y-70490727D01*
X122158511Y-70490724D01*
X122168714Y-70480520D01*
X122168716Y-70480520D01*
X122280520Y-70368716D01*
X122314716Y-70309487D01*
X122332214Y-70279180D01*
X122332214Y-70279179D01*
X122355477Y-70238886D01*
X122359577Y-70231785D01*
X122400500Y-70079057D01*
X122400500Y-69920943D01*
X122400500Y-63931941D01*
X122420185Y-63864902D01*
X122472989Y-63819147D01*
X122542147Y-63809203D01*
X122605703Y-63838228D01*
X122612181Y-63844260D01*
X122689707Y-63921786D01*
X122689711Y-63921789D01*
X122820814Y-64009390D01*
X122820827Y-64009397D01*
X122874880Y-64031786D01*
X122966503Y-64069737D01*
X123121153Y-64100499D01*
X123121156Y-64100500D01*
X123121158Y-64100500D01*
X123278844Y-64100500D01*
X123278845Y-64100499D01*
X123433497Y-64069737D01*
X123579179Y-64009394D01*
X123710289Y-63921789D01*
X123821789Y-63810289D01*
X123909394Y-63679179D01*
X123969737Y-63533497D01*
X123995937Y-63401782D01*
X124000638Y-63378150D01*
X124033023Y-63316239D01*
X124034518Y-63314716D01*
X124212416Y-63136819D01*
X124273739Y-63103334D01*
X124300097Y-63100500D01*
X124820234Y-63100500D01*
X124887273Y-63120185D01*
G37*
%TD.AperFunction*%
%TA.AperFunction,Conductor*%
G36*
X136442539Y-49520185D02*
G01*
X136488294Y-49572989D01*
X136499500Y-49624500D01*
X136499500Y-86375500D01*
X136479815Y-86442539D01*
X136427011Y-86488294D01*
X136375500Y-86499500D01*
X99624500Y-86499500D01*
X99557461Y-86479815D01*
X99511706Y-86427011D01*
X99500500Y-86375500D01*
X99500500Y-69022135D01*
X100649500Y-69022135D01*
X100649500Y-70817870D01*
X100649501Y-70817876D01*
X100655908Y-70877483D01*
X100706202Y-71012328D01*
X100706206Y-71012335D01*
X100792452Y-71127544D01*
X100792455Y-71127547D01*
X100907664Y-71213793D01*
X100907671Y-71213797D01*
X100938277Y-71225212D01*
X101042517Y-71264091D01*
X101102127Y-71270500D01*
X101112685Y-71270499D01*
X101179723Y-71290179D01*
X101200372Y-71306818D01*
X101870591Y-71977037D01*
X101807007Y-71994075D01*
X101692993Y-72059901D01*
X101599901Y-72152993D01*
X101534075Y-72267007D01*
X101517037Y-72330591D01*
X100884728Y-71698282D01*
X100884727Y-71698282D01*
X100845380Y-71752439D01*
X100748904Y-71941782D01*
X100683242Y-72143869D01*
X100683242Y-72143872D01*
X100650000Y-72353753D01*
X100650000Y-72566246D01*
X100683242Y-72776127D01*
X100683242Y-72776130D01*
X100748904Y-72978217D01*
X100845375Y-73167550D01*
X100884728Y-73221716D01*
X101517037Y-72589408D01*
X101534075Y-72652993D01*
X101599901Y-72767007D01*
X101692993Y-72860099D01*
X101807007Y-72925925D01*
X101870590Y-72942962D01*
X101238282Y-73575269D01*
X101238282Y-73575270D01*
X101292452Y-73614626D01*
X101292451Y-73614626D01*
X101301495Y-73619234D01*
X101352292Y-73667208D01*
X101369087Y-73735029D01*
X101346550Y-73801164D01*
X101301499Y-73840202D01*
X101292182Y-73844949D01*
X101120213Y-73969890D01*
X100969890Y-74120213D01*
X100844951Y-74292179D01*
X100748444Y-74481585D01*
X100682753Y-74683760D01*
X100655077Y-74858501D01*
X100649500Y-74893713D01*
X100649500Y-75106287D01*
X100659407Y-75168834D01*
X100678942Y-75292179D01*
X100682754Y-75316243D01*
X100739117Y-75489711D01*
X100748444Y-75518414D01*
X100844951Y-75707820D01*
X100969890Y-75879786D01*
X101120213Y-76030109D01*
X101292179Y-76155048D01*
X101292181Y-76155049D01*
X101292184Y-76155051D01*
X101481588Y-76251557D01*
X101683757Y-76317246D01*
X101893713Y-76350500D01*
X101893714Y-76350500D01*
X102106286Y-76350500D01*
X102106287Y-76350500D01*
X102316243Y-76317246D01*
X102518412Y-76251557D01*
X102707816Y-76155051D01*
X102729789Y-76139086D01*
X102879786Y-76030109D01*
X102879788Y-76030106D01*
X102879792Y-76030104D01*
X103030104Y-75879792D01*
X103030106Y-75879788D01*
X103030109Y-75879786D01*
X103155048Y-75707820D01*
X103155047Y-75707820D01*
X103155051Y-75707816D01*
X103251557Y-75518412D01*
X103317246Y-75316243D01*
X103350500Y-75106287D01*
X103350500Y-74893713D01*
X103317246Y-74683757D01*
X103251557Y-74481588D01*
X103155051Y-74292184D01*
X103155049Y-74292181D01*
X103155048Y-74292179D01*
X103030109Y-74120213D01*
X102879786Y-73969890D01*
X102707817Y-73844949D01*
X102698504Y-73840204D01*
X102647707Y-73792230D01*
X102630912Y-73724409D01*
X102653449Y-73658274D01*
X102698507Y-73619232D01*
X102707555Y-73614622D01*
X102761716Y-73575270D01*
X102761717Y-73575270D01*
X102129408Y-72942962D01*
X102192993Y-72925925D01*
X102307007Y-72860099D01*
X102400099Y-72767007D01*
X102465925Y-72652993D01*
X102482962Y-72589408D01*
X103117960Y-73224407D01*
X103133381Y-73243197D01*
X103178210Y-73310288D01*
X103178213Y-73310292D01*
X103289707Y-73421786D01*
X103289711Y-73421789D01*
X103420814Y-73509390D01*
X103420827Y-73509397D01*
X103566498Y-73569735D01*
X103566503Y-73569737D01*
X103721153Y-73600499D01*
X103721156Y-73600500D01*
X103721158Y-73600500D01*
X103878844Y-73600500D01*
X103878845Y-73600499D01*
X104033497Y-73569737D01*
X104179179Y-73509394D01*
X104310289Y-73421789D01*
X104421789Y-73310289D01*
X104509394Y-73179179D01*
X104569737Y-73033497D01*
X104600500Y-72878842D01*
X104600500Y-72721158D01*
X104600500Y-72721155D01*
X104600499Y-72721153D01*
X104569739Y-72566511D01*
X104569738Y-72566508D01*
X104569737Y-72566503D01*
X104559937Y-72542844D01*
X104550500Y-72495396D01*
X104550500Y-71381941D01*
X104570185Y-71314902D01*
X104622989Y-71269147D01*
X104692147Y-71259203D01*
X104755703Y-71288228D01*
X104762181Y-71294260D01*
X104789707Y-71321786D01*
X104789711Y-71321789D01*
X104920814Y-71409390D01*
X104920827Y-71409397D01*
X105041409Y-71459343D01*
X105066503Y-71469737D01*
X105131147Y-71482595D01*
X105221849Y-71500638D01*
X105283760Y-71533023D01*
X105285339Y-71534574D01*
X108015139Y-74264374D01*
X108015149Y-74264385D01*
X108019479Y-74268715D01*
X108019480Y-74268716D01*
X108131284Y-74380520D01*
X108131286Y-74380521D01*
X108131290Y-74380524D01*
X108195114Y-74417372D01*
X108268216Y-74459577D01*
X108380019Y-74489534D01*
X108420942Y-74500500D01*
X108420943Y-74500500D01*
X109933741Y-74500500D01*
X110000780Y-74520185D01*
X110046535Y-74572989D01*
X110048302Y-74577048D01*
X110090602Y-74679172D01*
X110090609Y-74679185D01*
X110178211Y-74810289D01*
X110180053Y-74812534D01*
X110180650Y-74813939D01*
X110181595Y-74815354D01*
X110181326Y-74815533D01*
X110207367Y-74876843D01*
X110195577Y-74945711D01*
X110171882Y-74978881D01*
X107031286Y-78119478D01*
X106919481Y-78231282D01*
X106919475Y-78231290D01*
X106875064Y-78308214D01*
X106875064Y-78308215D01*
X106840423Y-78368215D01*
X106799499Y-78520943D01*
X106799499Y-78520945D01*
X106799499Y-78689046D01*
X106799500Y-78689059D01*
X106799500Y-81199903D01*
X106779815Y-81266942D01*
X106763181Y-81287584D01*
X104687584Y-83363181D01*
X104626261Y-83396666D01*
X104599903Y-83399500D01*
X103285719Y-83399500D01*
X103218680Y-83379815D01*
X103175235Y-83331795D01*
X103155052Y-83292185D01*
X103155051Y-83292184D01*
X103030109Y-83120213D01*
X102879786Y-82969890D01*
X102707820Y-82844951D01*
X102706882Y-82844473D01*
X102699054Y-82840485D01*
X102648259Y-82792512D01*
X102631463Y-82724692D01*
X102653999Y-82658556D01*
X102699054Y-82619515D01*
X102707816Y-82615051D01*
X102820061Y-82533501D01*
X102879786Y-82490109D01*
X102879788Y-82490106D01*
X102879792Y-82490104D01*
X103030104Y-82339792D01*
X103030106Y-82339788D01*
X103030109Y-82339786D01*
X103155048Y-82167820D01*
X103155047Y-82167820D01*
X103155051Y-82167816D01*
X103251557Y-81978412D01*
X103317246Y-81776243D01*
X103350500Y-81566287D01*
X103350500Y-81353713D01*
X103317246Y-81143757D01*
X103251557Y-80941588D01*
X103155051Y-80752184D01*
X103155049Y-80752181D01*
X103155048Y-80752179D01*
X103030109Y-80580213D01*
X102916181Y-80466285D01*
X102882696Y-80404962D01*
X102887680Y-80335270D01*
X102929552Y-80279337D01*
X102960529Y-80262422D01*
X103092086Y-80213354D01*
X103092093Y-80213350D01*
X103207187Y-80127190D01*
X103207190Y-80127187D01*
X103293350Y-80012093D01*
X103293354Y-80012086D01*
X103343596Y-79877379D01*
X103343598Y-79877372D01*
X103349999Y-79817844D01*
X103350000Y-79817827D01*
X103350000Y-79170000D01*
X102433012Y-79170000D01*
X102465925Y-79112993D01*
X102500000Y-78985826D01*
X102500000Y-78854174D01*
X102465925Y-78727007D01*
X102433012Y-78670000D01*
X103350000Y-78670000D01*
X103350000Y-78022172D01*
X103349999Y-78022155D01*
X103343598Y-77962627D01*
X103343596Y-77962620D01*
X103293354Y-77827913D01*
X103293350Y-77827906D01*
X103207190Y-77712812D01*
X103207187Y-77712809D01*
X103092093Y-77626649D01*
X103092086Y-77626645D01*
X102957379Y-77576403D01*
X102957372Y-77576401D01*
X102897844Y-77570000D01*
X102250000Y-77570000D01*
X102250000Y-78486988D01*
X102192993Y-78454075D01*
X102065826Y-78420000D01*
X101934174Y-78420000D01*
X101807007Y-78454075D01*
X101750000Y-78486988D01*
X101750000Y-77570000D01*
X101102155Y-77570000D01*
X101042627Y-77576401D01*
X101042620Y-77576403D01*
X100907913Y-77626645D01*
X100907906Y-77626649D01*
X100792812Y-77712809D01*
X100792809Y-77712812D01*
X100706649Y-77827906D01*
X100706645Y-77827913D01*
X100656403Y-77962620D01*
X100656401Y-77962627D01*
X100650000Y-78022155D01*
X100650000Y-78670000D01*
X101566988Y-78670000D01*
X101534075Y-78727007D01*
X101500000Y-78854174D01*
X101500000Y-78985826D01*
X101534075Y-79112993D01*
X101566988Y-79170000D01*
X100650000Y-79170000D01*
X100650000Y-79817844D01*
X100656401Y-79877372D01*
X100656403Y-79877379D01*
X100706645Y-80012086D01*
X100706649Y-80012093D01*
X100792809Y-80127187D01*
X100792812Y-80127190D01*
X100907906Y-80213350D01*
X100907913Y-80213354D01*
X101039470Y-80262422D01*
X101095404Y-80304293D01*
X101119821Y-80369758D01*
X101104969Y-80438031D01*
X101083819Y-80466285D01*
X100969889Y-80580215D01*
X100844951Y-80752179D01*
X100748444Y-80941585D01*
X100682753Y-81143760D01*
X100649500Y-81353713D01*
X100649500Y-81566286D01*
X100673378Y-81717049D01*
X100682754Y-81776243D01*
X100729732Y-81920827D01*
X100748444Y-81978414D01*
X100844951Y-82167820D01*
X100969890Y-82339786D01*
X101120213Y-82490109D01*
X101292182Y-82615050D01*
X101300946Y-82619516D01*
X101351742Y-82667491D01*
X101368536Y-82735312D01*
X101345998Y-82801447D01*
X101300946Y-82840484D01*
X101292182Y-82844949D01*
X101120213Y-82969890D01*
X100969890Y-83120213D01*
X100844951Y-83292179D01*
X100748444Y-83481585D01*
X100682753Y-83683760D01*
X100649500Y-83893713D01*
X100649500Y-84106286D01*
X100678551Y-84289711D01*
X100682754Y-84316243D01*
X100716731Y-84420814D01*
X100748444Y-84518414D01*
X100844951Y-84707820D01*
X100969890Y-84879786D01*
X101120213Y-85030109D01*
X101292179Y-85155048D01*
X101292181Y-85155049D01*
X101292184Y-85155051D01*
X101481588Y-85251557D01*
X101683757Y-85317246D01*
X101893713Y-85350500D01*
X101893714Y-85350500D01*
X102106286Y-85350500D01*
X102106287Y-85350500D01*
X102316243Y-85317246D01*
X102518412Y-85251557D01*
X102707816Y-85155051D01*
X102729789Y-85139086D01*
X102879786Y-85030109D01*
X102879788Y-85030106D01*
X102879792Y-85030104D01*
X103030104Y-84879792D01*
X103030106Y-84879788D01*
X103030109Y-84879786D01*
X103142929Y-84724500D01*
X103155051Y-84707816D01*
X103155349Y-84707230D01*
X103175235Y-84668205D01*
X103223209Y-84617409D01*
X103285719Y-84600500D01*
X103675500Y-84600500D01*
X103742539Y-84620185D01*
X103788294Y-84672989D01*
X103799500Y-84724500D01*
X103799500Y-84878846D01*
X103830261Y-85033489D01*
X103830264Y-85033501D01*
X103890602Y-85179172D01*
X103890609Y-85179185D01*
X103978210Y-85310288D01*
X103978213Y-85310292D01*
X104089707Y-85421786D01*
X104089711Y-85421789D01*
X104220814Y-85509390D01*
X104220827Y-85509397D01*
X104320060Y-85550500D01*
X104366503Y-85569737D01*
X104521153Y-85600499D01*
X104521156Y-85600500D01*
X104521158Y-85600500D01*
X104678844Y-85600500D01*
X104678845Y-85600499D01*
X104755152Y-85585320D01*
X104833488Y-85569739D01*
X104833489Y-85569738D01*
X104833497Y-85569737D01*
X104857155Y-85559937D01*
X104904604Y-85550500D01*
X128795396Y-85550500D01*
X128842844Y-85559937D01*
X128866503Y-85569737D01*
X128866508Y-85569738D01*
X128866511Y-85569739D01*
X129021153Y-85600499D01*
X129021156Y-85600500D01*
X129021158Y-85600500D01*
X129178844Y-85600500D01*
X129178845Y-85600499D01*
X129333497Y-85569737D01*
X129479179Y-85509394D01*
X129610289Y-85421789D01*
X129721789Y-85310289D01*
X129809394Y-85179179D01*
X129869737Y-85033497D01*
X129900500Y-84878842D01*
X129900500Y-84721158D01*
X129900500Y-84721155D01*
X129900499Y-84721153D01*
X129897846Y-84707814D01*
X129869737Y-84566503D01*
X129849817Y-84518412D01*
X129809397Y-84420827D01*
X129809390Y-84420814D01*
X129721789Y-84289711D01*
X129721786Y-84289707D01*
X129610292Y-84178213D01*
X129610288Y-84178210D01*
X129479185Y-84090609D01*
X129479172Y-84090602D01*
X129333501Y-84030264D01*
X129333489Y-84030261D01*
X129178845Y-83999500D01*
X129178842Y-83999500D01*
X129021158Y-83999500D01*
X129021155Y-83999500D01*
X128866511Y-84030260D01*
X128866506Y-84030262D01*
X128866504Y-84030262D01*
X128866503Y-84030263D01*
X128842844Y-84040062D01*
X128795396Y-84049500D01*
X122011230Y-84049500D01*
X121944191Y-84029815D01*
X121898436Y-83977011D01*
X121888492Y-83907853D01*
X121917517Y-83844297D01*
X121923549Y-83837819D01*
X122674549Y-83086819D01*
X122735872Y-83053334D01*
X122762230Y-83050500D01*
X124095396Y-83050500D01*
X124142844Y-83059937D01*
X124166503Y-83069737D01*
X124166508Y-83069738D01*
X124166511Y-83069739D01*
X124321153Y-83100499D01*
X124321156Y-83100500D01*
X124321158Y-83100500D01*
X124478844Y-83100500D01*
X124478845Y-83100499D01*
X124633497Y-83069737D01*
X124779179Y-83009394D01*
X124910289Y-82921789D01*
X125021789Y-82810289D01*
X125109394Y-82679179D01*
X125169737Y-82533497D01*
X125200500Y-82378842D01*
X125200500Y-82221158D01*
X125200500Y-82221155D01*
X125200499Y-82221153D01*
X125189890Y-82167820D01*
X125169737Y-82066503D01*
X125169735Y-82066498D01*
X125109397Y-81920827D01*
X125109390Y-81920814D01*
X125021789Y-81789711D01*
X125021786Y-81789707D01*
X124910292Y-81678213D01*
X124910288Y-81678210D01*
X124779185Y-81590609D01*
X124779172Y-81590602D01*
X124633501Y-81530264D01*
X124633489Y-81530261D01*
X124478845Y-81499500D01*
X124478842Y-81499500D01*
X124321158Y-81499500D01*
X124321155Y-81499500D01*
X124166511Y-81530260D01*
X124166506Y-81530262D01*
X124166504Y-81530262D01*
X124166503Y-81530263D01*
X124142844Y-81540062D01*
X124095396Y-81549500D01*
X122326076Y-81549500D01*
X122297242Y-81555234D01*
X122297243Y-81555235D01*
X122181093Y-81578339D01*
X122181083Y-81578342D01*
X122101081Y-81611479D01*
X122101082Y-81611480D01*
X122044502Y-81634917D01*
X121995270Y-81667811D01*
X121995271Y-81667812D01*
X121921581Y-81717049D01*
X121921578Y-81717052D01*
X121273036Y-82365595D01*
X121211713Y-82399080D01*
X121142021Y-82394096D01*
X121097674Y-82365595D01*
X121010292Y-82278213D01*
X121010288Y-82278210D01*
X120879185Y-82190609D01*
X120879172Y-82190602D01*
X120733501Y-82130264D01*
X120733491Y-82130261D01*
X120578149Y-82099361D01*
X120516238Y-82066976D01*
X120514660Y-82065425D01*
X117634574Y-79185339D01*
X117601089Y-79124016D01*
X117600638Y-79121849D01*
X117575755Y-78996757D01*
X117569737Y-78966503D01*
X117542231Y-78900096D01*
X117509397Y-78820827D01*
X117509390Y-78820814D01*
X117421789Y-78689711D01*
X117421786Y-78689707D01*
X117310292Y-78578213D01*
X117310288Y-78578210D01*
X117179185Y-78490609D01*
X117179172Y-78490602D01*
X117033501Y-78430264D01*
X117033489Y-78430261D01*
X116878845Y-78399500D01*
X116878842Y-78399500D01*
X116721158Y-78399500D01*
X116721155Y-78399500D01*
X116566510Y-78430261D01*
X116566498Y-78430264D01*
X116420827Y-78490602D01*
X116420814Y-78490609D01*
X116289711Y-78578210D01*
X116289707Y-78578213D01*
X116178213Y-78689707D01*
X116178210Y-78689711D01*
X116090609Y-78820814D01*
X116090602Y-78820827D01*
X116030264Y-78966498D01*
X116030261Y-78966510D01*
X115999500Y-79121153D01*
X115999500Y-79278846D01*
X116030261Y-79433489D01*
X116030264Y-79433501D01*
X116090602Y-79579172D01*
X116090609Y-79579185D01*
X116178210Y-79710288D01*
X116178213Y-79710292D01*
X116289707Y-79821786D01*
X116289711Y-79821789D01*
X116420814Y-79909390D01*
X116420827Y-79909397D01*
X116566498Y-79969735D01*
X116566503Y-79969737D01*
X116631147Y-79982595D01*
X116721849Y-80000638D01*
X116783760Y-80033023D01*
X116785339Y-80034574D01*
X119665425Y-82914660D01*
X119674486Y-82931254D01*
X119687619Y-82944864D01*
X119698026Y-82974364D01*
X119698910Y-82975983D01*
X119699361Y-82978148D01*
X119703968Y-83001307D01*
X119697742Y-83070899D01*
X119654879Y-83126076D01*
X119588990Y-83149322D01*
X119582351Y-83149500D01*
X117862229Y-83149500D01*
X117795190Y-83129815D01*
X117774548Y-83113181D01*
X117546072Y-82884705D01*
X117519191Y-82844473D01*
X117509397Y-82820828D01*
X117509396Y-82820826D01*
X117509394Y-82820821D01*
X117452259Y-82735312D01*
X117421789Y-82689710D01*
X117310292Y-82578213D01*
X117310288Y-82578210D01*
X117179185Y-82490609D01*
X117179172Y-82490602D01*
X117033501Y-82430264D01*
X117033489Y-82430261D01*
X116878845Y-82399500D01*
X116878842Y-82399500D01*
X116721158Y-82399500D01*
X116721155Y-82399500D01*
X116566510Y-82430261D01*
X116566498Y-82430264D01*
X116420827Y-82490602D01*
X116420814Y-82490609D01*
X116289711Y-82578210D01*
X116289707Y-82578213D01*
X116178213Y-82689707D01*
X116178210Y-82689711D01*
X116090609Y-82820814D01*
X116090602Y-82820827D01*
X116030264Y-82966498D01*
X116030261Y-82966510D01*
X115999500Y-83121153D01*
X115999500Y-83278846D01*
X116030261Y-83433489D01*
X116030264Y-83433501D01*
X116090602Y-83579172D01*
X116090609Y-83579185D01*
X116178210Y-83710288D01*
X116178213Y-83710292D01*
X116289708Y-83821787D01*
X116290621Y-83822397D01*
X116290991Y-83822839D01*
X116294419Y-83825653D01*
X116293885Y-83826303D01*
X116335427Y-83876010D01*
X116344134Y-83945334D01*
X116313980Y-84008362D01*
X116254537Y-84045082D01*
X116221731Y-84049500D01*
X110323736Y-84049500D01*
X110256697Y-84029815D01*
X110210942Y-83977011D01*
X110200998Y-83907853D01*
X110205805Y-83887182D01*
X110247914Y-83757584D01*
X110249115Y-83750000D01*
X109180330Y-83750000D01*
X109200075Y-83730255D01*
X109249444Y-83644745D01*
X109275000Y-83549370D01*
X109275000Y-83450630D01*
X109249444Y-83355255D01*
X109200075Y-83269745D01*
X109180330Y-83250000D01*
X110249115Y-83250000D01*
X110249115Y-83249999D01*
X110247914Y-83242415D01*
X110194408Y-83077744D01*
X110115804Y-82923475D01*
X110014032Y-82783397D01*
X109906434Y-82675799D01*
X109872949Y-82614476D01*
X109877933Y-82544784D01*
X109919805Y-82488851D01*
X109928995Y-82482594D01*
X109993656Y-82442712D01*
X110117712Y-82318656D01*
X110209814Y-82169334D01*
X110264999Y-82002797D01*
X110275500Y-81900009D01*
X110275499Y-81099992D01*
X110264999Y-80997203D01*
X110209814Y-80830666D01*
X110117712Y-80681344D01*
X109993656Y-80557288D01*
X109844334Y-80465186D01*
X109677797Y-80410001D01*
X109677795Y-80410000D01*
X109575010Y-80399500D01*
X108224998Y-80399500D01*
X108224980Y-80399501D01*
X108137101Y-80408479D01*
X108068408Y-80395709D01*
X108017524Y-80347828D01*
X108000500Y-80285121D01*
X108000500Y-78900096D01*
X108020185Y-78833057D01*
X108036814Y-78812420D01*
X111020898Y-75828335D01*
X111082219Y-75794852D01*
X111151911Y-75799836D01*
X111196258Y-75828337D01*
X111289707Y-75921786D01*
X111289711Y-75921789D01*
X111420814Y-76009390D01*
X111420827Y-76009397D01*
X111566498Y-76069735D01*
X111566503Y-76069737D01*
X111721153Y-76100499D01*
X111721156Y-76100500D01*
X111721158Y-76100500D01*
X111878844Y-76100500D01*
X111878845Y-76100499D01*
X112033497Y-76069737D01*
X112151592Y-76020821D01*
X112179172Y-76009397D01*
X112179172Y-76009396D01*
X112179179Y-76009394D01*
X112179185Y-76009390D01*
X112310875Y-75921398D01*
X112377553Y-75900520D01*
X112379766Y-75900500D01*
X114213331Y-75900500D01*
X114213347Y-75900501D01*
X114220943Y-75900501D01*
X114379054Y-75900501D01*
X114379057Y-75900501D01*
X114531785Y-75859577D01*
X114594211Y-75823535D01*
X114668716Y-75780520D01*
X114780520Y-75668716D01*
X114780520Y-75668714D01*
X114790724Y-75658511D01*
X114790727Y-75658506D01*
X115312416Y-75136819D01*
X115373739Y-75103334D01*
X115400097Y-75100500D01*
X122413331Y-75100500D01*
X122413347Y-75100501D01*
X122420943Y-75100501D01*
X122579054Y-75100501D01*
X122579057Y-75100501D01*
X122731785Y-75059577D01*
X122818704Y-75009394D01*
X122868716Y-74980520D01*
X122980520Y-74868716D01*
X122980520Y-74868714D01*
X122990724Y-74858511D01*
X122990727Y-74858506D01*
X124212416Y-73636819D01*
X124273739Y-73603334D01*
X124300097Y-73600500D01*
X124599903Y-73600500D01*
X124666942Y-73620185D01*
X124687583Y-73636818D01*
X125831284Y-74780520D01*
X125831286Y-74780521D01*
X125831290Y-74780524D01*
X125941743Y-74844293D01*
X125968216Y-74859577D01*
X126120943Y-74900501D01*
X126120945Y-74900501D01*
X126286654Y-74900501D01*
X126286670Y-74900500D01*
X127199903Y-74900500D01*
X127266942Y-74920185D01*
X127287584Y-74936819D01*
X127388584Y-75037819D01*
X127399196Y-75057255D01*
X127413697Y-75073989D01*
X127415613Y-75087320D01*
X127422069Y-75099142D01*
X127420489Y-75121228D01*
X127423641Y-75143147D01*
X127418045Y-75155398D01*
X127417085Y-75168834D01*
X127403814Y-75186560D01*
X127394616Y-75206703D01*
X127383284Y-75213985D01*
X127375213Y-75224767D01*
X127354467Y-75232504D01*
X127335838Y-75244477D01*
X127313919Y-75247628D01*
X127309749Y-75249184D01*
X127300903Y-75249500D01*
X127204604Y-75249500D01*
X127157155Y-75240062D01*
X127133497Y-75230263D01*
X127133493Y-75230262D01*
X127133488Y-75230260D01*
X126978845Y-75199500D01*
X126978842Y-75199500D01*
X126821158Y-75199500D01*
X126821155Y-75199500D01*
X126666510Y-75230261D01*
X126666498Y-75230264D01*
X126520827Y-75290602D01*
X126520814Y-75290609D01*
X126389711Y-75378210D01*
X126389707Y-75378213D01*
X126278213Y-75489707D01*
X126278210Y-75489711D01*
X126190609Y-75620814D01*
X126190602Y-75620827D01*
X126130264Y-75766498D01*
X126130261Y-75766510D01*
X126099500Y-75921153D01*
X126099500Y-76078846D01*
X126130261Y-76233489D01*
X126130264Y-76233501D01*
X126190602Y-76379172D01*
X126190609Y-76379185D01*
X126278210Y-76510288D01*
X126278213Y-76510292D01*
X126389707Y-76621786D01*
X126389711Y-76621789D01*
X126520814Y-76709390D01*
X126520827Y-76709397D01*
X126620060Y-76750500D01*
X126666503Y-76769737D01*
X126821153Y-76800499D01*
X126821156Y-76800500D01*
X126821158Y-76800500D01*
X126978844Y-76800500D01*
X126978845Y-76800499D01*
X127085999Y-76779185D01*
X127133488Y-76769739D01*
X127133489Y-76769738D01*
X127133497Y-76769737D01*
X127157155Y-76759937D01*
X127204604Y-76750500D01*
X128295396Y-76750500D01*
X128342844Y-76759937D01*
X128366503Y-76769737D01*
X128366508Y-76769738D01*
X128366511Y-76769739D01*
X128521153Y-76800499D01*
X128521156Y-76800500D01*
X128521158Y-76800500D01*
X128678844Y-76800500D01*
X128678845Y-76800499D01*
X128833497Y-76769737D01*
X128979179Y-76709394D01*
X129110289Y-76621789D01*
X129221789Y-76510289D01*
X129309394Y-76379179D01*
X129369737Y-76233497D01*
X129400500Y-76078842D01*
X129400500Y-75921158D01*
X129400500Y-75921155D01*
X129400499Y-75921153D01*
X129392272Y-75879792D01*
X129369737Y-75766503D01*
X129329233Y-75668716D01*
X129309397Y-75620827D01*
X129309390Y-75620814D01*
X129221792Y-75489715D01*
X129219947Y-75487467D01*
X129219348Y-75486058D01*
X129218405Y-75484646D01*
X129218498Y-75484583D01*
X129216532Y-75483111D01*
X129205252Y-75452871D01*
X129192632Y-75423158D01*
X129193115Y-75420332D01*
X129192114Y-75417647D01*
X129198973Y-75386111D01*
X129204421Y-75354290D01*
X129206541Y-75351321D01*
X129206965Y-75349374D01*
X129228104Y-75321133D01*
X129228107Y-75321128D01*
X129280520Y-75268716D01*
X129280521Y-75268713D01*
X129458506Y-75090728D01*
X129458511Y-75090724D01*
X129468714Y-75080520D01*
X129468716Y-75080520D01*
X129580520Y-74968716D01*
X129633781Y-74876465D01*
X129659577Y-74831785D01*
X129700500Y-74679057D01*
X129700500Y-74520943D01*
X129700500Y-74345134D01*
X129720185Y-74278095D01*
X129772989Y-74232340D01*
X129842147Y-74222396D01*
X129871950Y-74230572D01*
X129966503Y-74269737D01*
X130079326Y-74292179D01*
X130121153Y-74300499D01*
X130121156Y-74300500D01*
X130121158Y-74300500D01*
X130278844Y-74300500D01*
X130278845Y-74300499D01*
X130433497Y-74269737D01*
X130579179Y-74209394D01*
X130710289Y-74121789D01*
X130821789Y-74010289D01*
X130909394Y-73879179D01*
X130969737Y-73733497D01*
X131000500Y-73578842D01*
X131000500Y-73421158D01*
X131000500Y-73421155D01*
X131000499Y-73421153D01*
X131000166Y-73419480D01*
X130969737Y-73266503D01*
X130961552Y-73246742D01*
X130909397Y-73120827D01*
X130909390Y-73120814D01*
X130821398Y-72989125D01*
X130800520Y-72922447D01*
X130800500Y-72920234D01*
X130800500Y-72549097D01*
X130820185Y-72482058D01*
X130872989Y-72436303D01*
X130942147Y-72426359D01*
X131005703Y-72455384D01*
X131012181Y-72461416D01*
X131765425Y-73214660D01*
X131798910Y-73275983D01*
X131799361Y-73278149D01*
X131830261Y-73433491D01*
X131830264Y-73433501D01*
X131890602Y-73579172D01*
X131890609Y-73579185D01*
X131978210Y-73710288D01*
X131978213Y-73710292D01*
X132089707Y-73821786D01*
X132089711Y-73821789D01*
X132220814Y-73909390D01*
X132220827Y-73909397D01*
X132366498Y-73969735D01*
X132366503Y-73969737D01*
X132516131Y-73999500D01*
X132521153Y-74000499D01*
X132521156Y-74000500D01*
X132526000Y-74000500D01*
X132593039Y-74020185D01*
X132638794Y-74072989D01*
X132650000Y-74124500D01*
X132650000Y-74357844D01*
X132656401Y-74417372D01*
X132656403Y-74417379D01*
X132706645Y-74552086D01*
X132706649Y-74552093D01*
X132792809Y-74667187D01*
X132792812Y-74667190D01*
X132907906Y-74753350D01*
X132907913Y-74753354D01*
X133039470Y-74802422D01*
X133095404Y-74844293D01*
X133119821Y-74909758D01*
X133104969Y-74978031D01*
X133083819Y-75006285D01*
X132969889Y-75120215D01*
X132844951Y-75292179D01*
X132748444Y-75481585D01*
X132682753Y-75683760D01*
X132649500Y-75893713D01*
X132649500Y-76106286D01*
X132672508Y-76251557D01*
X132682754Y-76316243D01*
X132745803Y-76510288D01*
X132748444Y-76518414D01*
X132844951Y-76707820D01*
X132969890Y-76879786D01*
X133120213Y-77030109D01*
X133292182Y-77155050D01*
X133300946Y-77159516D01*
X133351742Y-77207491D01*
X133368536Y-77275312D01*
X133345998Y-77341447D01*
X133300946Y-77380484D01*
X133292182Y-77384949D01*
X133116267Y-77512759D01*
X133115604Y-77511846D01*
X133056716Y-77538226D01*
X132987632Y-77527781D01*
X132952279Y-77503044D01*
X131834574Y-76385339D01*
X131801089Y-76324016D01*
X131800638Y-76321849D01*
X131769738Y-76166510D01*
X131769737Y-76166503D01*
X131769735Y-76166498D01*
X131709397Y-76020827D01*
X131709390Y-76020814D01*
X131621789Y-75889711D01*
X131621786Y-75889707D01*
X131510292Y-75778213D01*
X131510288Y-75778210D01*
X131379185Y-75690609D01*
X131379172Y-75690602D01*
X131233501Y-75630264D01*
X131233489Y-75630261D01*
X131078845Y-75599500D01*
X131078842Y-75599500D01*
X130921158Y-75599500D01*
X130921155Y-75599500D01*
X130766510Y-75630261D01*
X130766498Y-75630264D01*
X130620827Y-75690602D01*
X130620814Y-75690609D01*
X130489711Y-75778210D01*
X130489707Y-75778213D01*
X130378213Y-75889707D01*
X130378210Y-75889711D01*
X130290609Y-76020814D01*
X130290602Y-76020827D01*
X130230264Y-76166498D01*
X130230261Y-76166510D01*
X130199500Y-76321153D01*
X130199500Y-76478846D01*
X130230261Y-76633489D01*
X130230264Y-76633501D01*
X130290602Y-76779172D01*
X130290609Y-76779185D01*
X130378210Y-76910288D01*
X130378213Y-76910292D01*
X130489707Y-77021786D01*
X130489711Y-77021789D01*
X130620814Y-77109390D01*
X130620827Y-77109397D01*
X130741822Y-77159514D01*
X130766503Y-77169737D01*
X130831147Y-77182595D01*
X130921849Y-77200638D01*
X130983760Y-77233023D01*
X130985339Y-77234574D01*
X132659478Y-78908713D01*
X132659480Y-78908716D01*
X132698161Y-78947397D01*
X132698167Y-78947408D01*
X132728409Y-78996757D01*
X132748442Y-79058412D01*
X132844951Y-79247820D01*
X132969890Y-79419786D01*
X133120213Y-79570109D01*
X133292179Y-79695048D01*
X133292181Y-79695049D01*
X133292184Y-79695051D01*
X133481588Y-79791557D01*
X133683757Y-79857246D01*
X133893713Y-79890500D01*
X133893714Y-79890500D01*
X134106286Y-79890500D01*
X134106287Y-79890500D01*
X134316243Y-79857246D01*
X134518412Y-79791557D01*
X134707816Y-79695051D01*
X134729789Y-79679086D01*
X134879786Y-79570109D01*
X134879788Y-79570106D01*
X134879792Y-79570104D01*
X135030104Y-79419792D01*
X135030106Y-79419788D01*
X135030109Y-79419786D01*
X135155048Y-79247820D01*
X135155047Y-79247820D01*
X135155051Y-79247816D01*
X135251557Y-79058412D01*
X135317246Y-78856243D01*
X135350500Y-78646287D01*
X135350500Y-78433713D01*
X135317246Y-78223757D01*
X135251557Y-78021588D01*
X135155051Y-77832184D01*
X135155049Y-77832181D01*
X135155048Y-77832179D01*
X135030109Y-77660213D01*
X134879786Y-77509890D01*
X134707820Y-77384951D01*
X134707115Y-77384591D01*
X134699054Y-77380485D01*
X134648259Y-77332512D01*
X134631463Y-77264692D01*
X134653999Y-77198556D01*
X134699054Y-77159515D01*
X134707816Y-77155051D01*
X134770658Y-77109394D01*
X134879786Y-77030109D01*
X134879788Y-77030106D01*
X134879792Y-77030104D01*
X135030104Y-76879792D01*
X135030106Y-76879788D01*
X135030109Y-76879786D01*
X135153902Y-76709397D01*
X135155051Y-76707816D01*
X135251557Y-76518412D01*
X135317246Y-76316243D01*
X135350500Y-76106287D01*
X135350500Y-75893713D01*
X135317246Y-75683757D01*
X135251557Y-75481588D01*
X135155051Y-75292184D01*
X135155049Y-75292181D01*
X135155048Y-75292179D01*
X135030109Y-75120213D01*
X134916181Y-75006285D01*
X134882696Y-74944962D01*
X134887680Y-74875270D01*
X134929552Y-74819337D01*
X134960529Y-74802422D01*
X135092086Y-74753354D01*
X135092093Y-74753350D01*
X135207187Y-74667190D01*
X135207190Y-74667187D01*
X135293350Y-74552093D01*
X135293354Y-74552086D01*
X135343596Y-74417379D01*
X135343598Y-74417372D01*
X135349999Y-74357844D01*
X135350000Y-74357827D01*
X135350000Y-73710000D01*
X134433012Y-73710000D01*
X134465925Y-73652993D01*
X134500000Y-73525826D01*
X134500000Y-73394174D01*
X134465925Y-73267007D01*
X134433012Y-73210000D01*
X135350000Y-73210000D01*
X135350000Y-72562172D01*
X135349999Y-72562155D01*
X135343598Y-72502627D01*
X135343596Y-72502620D01*
X135293354Y-72367913D01*
X135293350Y-72367906D01*
X135207190Y-72252812D01*
X135207187Y-72252809D01*
X135092093Y-72166649D01*
X135092086Y-72166645D01*
X134957379Y-72116403D01*
X134957372Y-72116401D01*
X134897844Y-72110000D01*
X134176841Y-72110000D01*
X134109802Y-72090315D01*
X134064047Y-72037511D01*
X134054103Y-71968353D01*
X134083128Y-71904797D01*
X134129389Y-71871439D01*
X134279172Y-71809397D01*
X134279172Y-71809396D01*
X134279179Y-71809394D01*
X134410289Y-71721789D01*
X134521789Y-71610289D01*
X134609394Y-71479179D01*
X134669737Y-71333497D01*
X134700500Y-71178842D01*
X134700500Y-71021158D01*
X134700500Y-71021155D01*
X134700499Y-71021153D01*
X134698744Y-71012328D01*
X134669737Y-70866503D01*
X134663256Y-70850856D01*
X134609939Y-70722136D01*
X134600500Y-70674684D01*
X134600500Y-70285718D01*
X134620185Y-70218679D01*
X134668207Y-70175233D01*
X134707815Y-70155052D01*
X134707815Y-70155051D01*
X134707816Y-70155051D01*
X134813579Y-70078210D01*
X134879786Y-70030109D01*
X134879788Y-70030106D01*
X134879792Y-70030104D01*
X135030104Y-69879792D01*
X135030106Y-69879788D01*
X135030109Y-69879786D01*
X135155048Y-69707820D01*
X135155047Y-69707820D01*
X135155051Y-69707816D01*
X135251557Y-69518412D01*
X135317246Y-69316243D01*
X135350500Y-69106287D01*
X135350500Y-68893713D01*
X135317246Y-68683757D01*
X135251557Y-68481588D01*
X135155051Y-68292184D01*
X135155049Y-68292181D01*
X135155048Y-68292179D01*
X135030109Y-68120213D01*
X134879786Y-67969890D01*
X134707820Y-67844951D01*
X134707115Y-67844591D01*
X134699054Y-67840485D01*
X134648259Y-67792512D01*
X134631463Y-67724692D01*
X134653999Y-67658556D01*
X134699054Y-67619515D01*
X134707816Y-67615051D01*
X134820061Y-67533501D01*
X134879786Y-67490109D01*
X134879788Y-67490106D01*
X134879792Y-67490104D01*
X135030104Y-67339792D01*
X135030106Y-67339788D01*
X135030109Y-67339786D01*
X135155048Y-67167820D01*
X135155047Y-67167820D01*
X135155051Y-67167816D01*
X135251557Y-66978412D01*
X135317246Y-66776243D01*
X135350500Y-66566287D01*
X135350500Y-66353713D01*
X135317246Y-66143757D01*
X135251557Y-65941588D01*
X135155051Y-65752184D01*
X135155049Y-65752181D01*
X135155048Y-65752179D01*
X135030109Y-65580213D01*
X134879786Y-65429890D01*
X134707817Y-65304949D01*
X134698504Y-65300204D01*
X134647707Y-65252230D01*
X134630912Y-65184409D01*
X134653449Y-65118274D01*
X134698507Y-65079232D01*
X134707555Y-65074622D01*
X134761716Y-65035270D01*
X134761717Y-65035270D01*
X134129408Y-64402962D01*
X134192993Y-64385925D01*
X134307007Y-64320099D01*
X134400099Y-64227007D01*
X134465925Y-64112993D01*
X134482962Y-64049408D01*
X135115270Y-64681717D01*
X135115270Y-64681716D01*
X135154622Y-64627554D01*
X135251095Y-64438217D01*
X135316757Y-64236130D01*
X135316757Y-64236127D01*
X135350000Y-64026246D01*
X135350000Y-63813753D01*
X135316757Y-63603872D01*
X135316757Y-63603869D01*
X135251095Y-63401782D01*
X135154624Y-63212449D01*
X135115270Y-63158282D01*
X135115269Y-63158282D01*
X134482962Y-63790590D01*
X134465925Y-63727007D01*
X134400099Y-63612993D01*
X134307007Y-63519901D01*
X134192993Y-63454075D01*
X134129409Y-63437037D01*
X134799627Y-62766818D01*
X134860950Y-62733333D01*
X134887307Y-62730499D01*
X134897872Y-62730499D01*
X134957483Y-62724091D01*
X135092331Y-62673796D01*
X135207546Y-62587546D01*
X135293796Y-62472331D01*
X135344091Y-62337483D01*
X135350500Y-62277873D01*
X135350499Y-60482128D01*
X135344091Y-60422517D01*
X135308771Y-60327820D01*
X135293797Y-60287671D01*
X135293793Y-60287664D01*
X135207547Y-60172455D01*
X135207544Y-60172452D01*
X135092335Y-60086206D01*
X135092328Y-60086202D01*
X134957482Y-60035908D01*
X134957483Y-60035908D01*
X134897883Y-60029501D01*
X134897881Y-60029500D01*
X134897873Y-60029500D01*
X134897864Y-60029500D01*
X133102129Y-60029500D01*
X133102123Y-60029501D01*
X133042516Y-60035908D01*
X132907671Y-60086202D01*
X132907664Y-60086206D01*
X132792455Y-60172452D01*
X132792452Y-60172455D01*
X132706206Y-60287664D01*
X132706202Y-60287671D01*
X132655908Y-60422517D01*
X132649501Y-60482116D01*
X132649501Y-60482123D01*
X132649500Y-60482135D01*
X132649500Y-62277870D01*
X132649501Y-62277876D01*
X132655908Y-62337483D01*
X132706202Y-62472328D01*
X132706206Y-62472335D01*
X132792452Y-62587544D01*
X132792455Y-62587547D01*
X132907664Y-62673793D01*
X132907671Y-62673797D01*
X132919506Y-62678211D01*
X133042517Y-62724091D01*
X133102127Y-62730500D01*
X133112685Y-62730499D01*
X133179723Y-62750179D01*
X133200372Y-62766818D01*
X133870591Y-63437037D01*
X133807007Y-63454075D01*
X133692993Y-63519901D01*
X133599901Y-63612993D01*
X133534075Y-63727007D01*
X133517037Y-63790591D01*
X132884728Y-63158282D01*
X132884727Y-63158282D01*
X132845380Y-63212439D01*
X132748904Y-63401782D01*
X132683242Y-63603869D01*
X132683242Y-63603872D01*
X132650000Y-63813753D01*
X132650000Y-64026246D01*
X132683242Y-64236127D01*
X132683242Y-64236130D01*
X132748904Y-64438217D01*
X132845375Y-64627550D01*
X132884728Y-64681716D01*
X133517037Y-64049408D01*
X133534075Y-64112993D01*
X133599901Y-64227007D01*
X133692993Y-64320099D01*
X133807007Y-64385925D01*
X133870590Y-64402962D01*
X133238282Y-65035269D01*
X133238282Y-65035270D01*
X133292452Y-65074626D01*
X133292451Y-65074626D01*
X133301495Y-65079234D01*
X133352292Y-65127208D01*
X133369087Y-65195029D01*
X133346550Y-65261164D01*
X133301499Y-65300202D01*
X133292182Y-65304949D01*
X133120213Y-65429890D01*
X132969890Y-65580213D01*
X132844951Y-65752179D01*
X132748444Y-65941583D01*
X132724974Y-66013819D01*
X132685536Y-66071494D01*
X132621177Y-66098692D01*
X132607043Y-66099500D01*
X131579766Y-66099500D01*
X131512727Y-66079815D01*
X131510875Y-66078602D01*
X131379185Y-65990609D01*
X131379172Y-65990602D01*
X131233501Y-65930264D01*
X131233489Y-65930261D01*
X131078845Y-65899500D01*
X131078842Y-65899500D01*
X130921158Y-65899500D01*
X130921155Y-65899500D01*
X130766510Y-65930261D01*
X130766498Y-65930264D01*
X130620827Y-65990602D01*
X130620814Y-65990609D01*
X130489711Y-66078210D01*
X130489707Y-66078213D01*
X130378213Y-66189707D01*
X130378210Y-66189711D01*
X130290609Y-66320814D01*
X130290602Y-66320827D01*
X130230264Y-66466498D01*
X130230261Y-66466510D01*
X130199500Y-66621153D01*
X130199500Y-66778846D01*
X130230261Y-66933489D01*
X130230264Y-66933501D01*
X130290602Y-67079172D01*
X130290609Y-67079185D01*
X130378210Y-67210288D01*
X130378213Y-67210292D01*
X130489707Y-67321786D01*
X130489711Y-67321789D01*
X130620814Y-67409390D01*
X130620827Y-67409397D01*
X130766498Y-67469735D01*
X130766503Y-67469737D01*
X130916131Y-67499500D01*
X130921153Y-67500499D01*
X130921156Y-67500500D01*
X130921158Y-67500500D01*
X131078844Y-67500500D01*
X131078845Y-67500499D01*
X131233497Y-67469737D01*
X131379179Y-67409394D01*
X131424399Y-67379179D01*
X131510875Y-67321398D01*
X131577553Y-67300520D01*
X131579766Y-67300500D01*
X132879242Y-67300500D01*
X132946281Y-67320185D01*
X132966923Y-67336819D01*
X133120213Y-67490109D01*
X133292182Y-67615050D01*
X133300946Y-67619516D01*
X133351742Y-67667491D01*
X133368536Y-67735312D01*
X133345998Y-67801447D01*
X133300946Y-67840484D01*
X133292182Y-67844949D01*
X133120213Y-67969890D01*
X132969890Y-68120213D01*
X132844951Y-68292179D01*
X132748444Y-68481585D01*
X132748443Y-68481587D01*
X132748443Y-68481588D01*
X132735587Y-68521155D01*
X132682753Y-68683760D01*
X132649500Y-68893713D01*
X132649500Y-69106286D01*
X132681669Y-69309397D01*
X132682754Y-69316243D01*
X132741377Y-69496666D01*
X132748444Y-69518414D01*
X132844951Y-69707820D01*
X132969890Y-69879786D01*
X133120213Y-70030109D01*
X133292184Y-70155051D01*
X133292184Y-70155052D01*
X133331793Y-70175233D01*
X133342856Y-70185681D01*
X133356703Y-70192005D01*
X133367744Y-70209185D01*
X133382590Y-70223206D01*
X133386831Y-70238886D01*
X133394477Y-70250783D01*
X133399500Y-70285718D01*
X133399500Y-70417059D01*
X133379815Y-70484098D01*
X133363181Y-70504740D01*
X133278213Y-70589707D01*
X133278210Y-70589711D01*
X133190609Y-70720814D01*
X133190602Y-70720827D01*
X133130264Y-70866498D01*
X133130261Y-70866510D01*
X133099500Y-71021153D01*
X133099500Y-71178846D01*
X133130261Y-71333489D01*
X133130264Y-71333501D01*
X133190602Y-71479172D01*
X133190609Y-71479185D01*
X133278210Y-71610288D01*
X133278213Y-71610292D01*
X133389707Y-71721786D01*
X133389711Y-71721789D01*
X133520814Y-71809390D01*
X133520827Y-71809397D01*
X133670611Y-71871439D01*
X133725015Y-71915280D01*
X133747080Y-71981574D01*
X133729801Y-72049273D01*
X133678664Y-72096884D01*
X133623159Y-72110000D01*
X133102155Y-72110000D01*
X133042627Y-72116401D01*
X133042620Y-72116403D01*
X132907913Y-72166645D01*
X132907906Y-72166649D01*
X132792812Y-72252809D01*
X132792809Y-72252812D01*
X132754089Y-72304536D01*
X132698155Y-72346407D01*
X132628464Y-72351391D01*
X132567142Y-72317906D01*
X131636819Y-71387583D01*
X131603334Y-71326260D01*
X131600500Y-71299902D01*
X131600500Y-70520945D01*
X131600500Y-70520943D01*
X131573705Y-70420943D01*
X131559577Y-70368215D01*
X131514769Y-70290606D01*
X131480520Y-70231284D01*
X131368716Y-70119480D01*
X131368715Y-70119479D01*
X131364385Y-70115149D01*
X131364374Y-70115139D01*
X131187590Y-69938355D01*
X131187588Y-69938352D01*
X131068717Y-69819481D01*
X131068709Y-69819475D01*
X130979923Y-69768215D01*
X130979922Y-69768215D01*
X130931785Y-69740423D01*
X130779057Y-69699499D01*
X130620943Y-69699499D01*
X130613347Y-69699499D01*
X130613331Y-69699500D01*
X127349097Y-69699500D01*
X127282058Y-69679815D01*
X127236303Y-69627011D01*
X127226359Y-69557853D01*
X127255384Y-69494297D01*
X127261416Y-69487819D01*
X127348736Y-69400500D01*
X127512417Y-69236819D01*
X127573740Y-69203334D01*
X127600098Y-69200500D01*
X128520234Y-69200500D01*
X128587273Y-69220185D01*
X128589125Y-69221398D01*
X128720814Y-69309390D01*
X128720827Y-69309397D01*
X128866498Y-69369735D01*
X128866503Y-69369737D01*
X129021153Y-69400499D01*
X129021156Y-69400500D01*
X129021158Y-69400500D01*
X129178844Y-69400500D01*
X129178845Y-69400499D01*
X129333497Y-69369737D01*
X129479179Y-69309394D01*
X129610289Y-69221789D01*
X129721789Y-69110289D01*
X129809394Y-68979179D01*
X129869737Y-68833497D01*
X129900500Y-68678842D01*
X129900500Y-68521158D01*
X129900500Y-68521155D01*
X129900499Y-68521153D01*
X129886156Y-68449046D01*
X129869737Y-68366503D01*
X129858168Y-68338572D01*
X129809397Y-68220827D01*
X129809390Y-68220814D01*
X129721789Y-68089711D01*
X129721786Y-68089707D01*
X129610292Y-67978213D01*
X129610288Y-67978210D01*
X129479185Y-67890609D01*
X129479172Y-67890602D01*
X129333501Y-67830264D01*
X129333489Y-67830261D01*
X129178845Y-67799500D01*
X129178842Y-67799500D01*
X129124500Y-67799500D01*
X129057461Y-67779815D01*
X129011706Y-67727011D01*
X129000500Y-67675500D01*
X129000500Y-67521155D01*
X129000499Y-67521153D01*
X128990271Y-67469735D01*
X128969737Y-67366503D01*
X128969735Y-67366498D01*
X128909397Y-67220827D01*
X128909390Y-67220814D01*
X128821789Y-67089711D01*
X128821786Y-67089707D01*
X128710292Y-66978213D01*
X128710288Y-66978210D01*
X128579185Y-66890609D01*
X128579172Y-66890602D01*
X128433501Y-66830264D01*
X128433489Y-66830261D01*
X128278845Y-66799500D01*
X128278842Y-66799500D01*
X128121158Y-66799500D01*
X128121155Y-66799500D01*
X127966510Y-66830261D01*
X127966498Y-66830264D01*
X127820827Y-66890602D01*
X127820816Y-66890608D01*
X127793390Y-66908934D01*
X127726712Y-66929811D01*
X127659332Y-66911326D01*
X127612643Y-66859346D01*
X127600500Y-66805831D01*
X127600500Y-65400097D01*
X127620185Y-65333058D01*
X127636819Y-65312416D01*
X128971018Y-63978217D01*
X130314664Y-62634571D01*
X130375985Y-62601088D01*
X130378152Y-62600637D01*
X130378841Y-62600500D01*
X130378842Y-62600500D01*
X130533497Y-62569737D01*
X130679179Y-62509394D01*
X130810289Y-62421789D01*
X130921789Y-62310289D01*
X131009394Y-62179179D01*
X131069737Y-62033497D01*
X131100500Y-61878842D01*
X131100500Y-61721158D01*
X131100500Y-61721155D01*
X131100499Y-61721153D01*
X131072234Y-61579056D01*
X131069737Y-61566503D01*
X131063425Y-61551265D01*
X131009397Y-61420827D01*
X131009390Y-61420814D01*
X130921789Y-61289711D01*
X130921786Y-61289707D01*
X130810292Y-61178213D01*
X130810288Y-61178210D01*
X130679185Y-61090609D01*
X130679172Y-61090602D01*
X130533501Y-61030264D01*
X130533489Y-61030261D01*
X130378845Y-60999500D01*
X130378842Y-60999500D01*
X130221158Y-60999500D01*
X130221155Y-60999500D01*
X130066510Y-61030261D01*
X130066498Y-61030264D01*
X129920827Y-61090602D01*
X129920814Y-61090609D01*
X129789711Y-61178210D01*
X129789707Y-61178213D01*
X129678213Y-61289707D01*
X129678210Y-61289711D01*
X129590609Y-61420814D01*
X129590602Y-61420827D01*
X129530264Y-61566498D01*
X129530261Y-61566508D01*
X129499362Y-61721848D01*
X129466977Y-61783759D01*
X129465426Y-61785337D01*
X126631286Y-64619478D01*
X126519481Y-64731282D01*
X126519479Y-64731284D01*
X126509573Y-64748443D01*
X126485231Y-64790606D01*
X126440423Y-64868215D01*
X126399499Y-65020943D01*
X126399499Y-65020945D01*
X126399499Y-65189046D01*
X126399500Y-65189059D01*
X126399500Y-65650902D01*
X126379815Y-65717941D01*
X126327011Y-65763696D01*
X126257853Y-65773640D01*
X126206869Y-65754177D01*
X126196566Y-65747330D01*
X126168716Y-65719480D01*
X126064960Y-65659577D01*
X126061585Y-65657628D01*
X126061580Y-65657625D01*
X126031783Y-65640422D01*
X125975881Y-65625443D01*
X125879057Y-65599499D01*
X125720943Y-65599499D01*
X125713347Y-65599499D01*
X125713331Y-65599500D01*
X125379766Y-65599500D01*
X125312727Y-65579815D01*
X125310876Y-65578603D01*
X125292490Y-65566318D01*
X125247684Y-65512706D01*
X125238977Y-65443381D01*
X125269131Y-65380353D01*
X125273680Y-65375553D01*
X126358506Y-64290728D01*
X126358511Y-64290724D01*
X126368714Y-64280520D01*
X126368716Y-64280520D01*
X126480520Y-64168716D01*
X126537665Y-64069737D01*
X126559577Y-64031785D01*
X126600500Y-63879057D01*
X126600500Y-63720943D01*
X126600500Y-62340531D01*
X126600501Y-62340518D01*
X126600501Y-62172415D01*
X126600501Y-62172414D01*
X126559577Y-62019687D01*
X126559458Y-62019481D01*
X126480524Y-61882761D01*
X126480518Y-61882753D01*
X124736819Y-60139054D01*
X124703334Y-60077731D01*
X124700500Y-60051373D01*
X124700500Y-58900096D01*
X124720185Y-58833057D01*
X124736814Y-58812420D01*
X128211988Y-55337245D01*
X128273311Y-55303761D01*
X128343003Y-55308745D01*
X128387350Y-55337246D01*
X128520213Y-55470109D01*
X128692182Y-55595050D01*
X128700946Y-55599516D01*
X128751742Y-55647491D01*
X128768536Y-55715312D01*
X128745998Y-55781447D01*
X128700946Y-55820484D01*
X128692182Y-55824949D01*
X128520213Y-55949890D01*
X128369890Y-56100213D01*
X128244951Y-56272179D01*
X128148444Y-56461585D01*
X128082753Y-56663760D01*
X128049500Y-56873713D01*
X128049500Y-57086286D01*
X128065338Y-57186287D01*
X128082754Y-57296243D01*
X128148443Y-57498412D01*
X128206156Y-57611681D01*
X128210124Y-57619467D01*
X128223020Y-57688136D01*
X128196744Y-57752876D01*
X128187320Y-57763443D01*
X127985339Y-57965425D01*
X127924016Y-57998910D01*
X127921850Y-57999361D01*
X127766508Y-58030261D01*
X127766498Y-58030264D01*
X127620827Y-58090602D01*
X127620814Y-58090609D01*
X127489711Y-58178210D01*
X127489707Y-58178213D01*
X127378213Y-58289707D01*
X127378210Y-58289711D01*
X127290609Y-58420814D01*
X127290602Y-58420827D01*
X127230264Y-58566498D01*
X127230261Y-58566510D01*
X127199500Y-58721153D01*
X127199500Y-58878846D01*
X127230261Y-59033489D01*
X127230264Y-59033501D01*
X127290602Y-59179172D01*
X127290609Y-59179185D01*
X127378210Y-59310288D01*
X127378213Y-59310292D01*
X127489707Y-59421786D01*
X127489711Y-59421789D01*
X127620814Y-59509390D01*
X127620827Y-59509397D01*
X127765168Y-59569184D01*
X127766503Y-59569737D01*
X127921153Y-59600499D01*
X127921156Y-59600500D01*
X127940017Y-59600500D01*
X128007056Y-59620185D01*
X128052811Y-59672989D01*
X128062490Y-59705102D01*
X128083242Y-59836127D01*
X128083242Y-59836130D01*
X128148904Y-60038217D01*
X128245375Y-60227550D01*
X128284728Y-60281716D01*
X128917036Y-59649407D01*
X128934075Y-59712993D01*
X128999901Y-59827007D01*
X129092993Y-59920099D01*
X129207007Y-59985925D01*
X129270590Y-60002962D01*
X128638282Y-60635269D01*
X128638282Y-60635270D01*
X128692449Y-60674624D01*
X128881782Y-60771095D01*
X129083870Y-60836757D01*
X129293754Y-60870000D01*
X129506246Y-60870000D01*
X129716127Y-60836757D01*
X129716130Y-60836757D01*
X129918217Y-60771095D01*
X130107554Y-60674622D01*
X130161716Y-60635270D01*
X130161717Y-60635270D01*
X130092934Y-60566487D01*
X129529408Y-60002962D01*
X129592993Y-59985925D01*
X129707007Y-59920099D01*
X129800099Y-59827007D01*
X129865925Y-59712993D01*
X129882962Y-59649409D01*
X130515270Y-60281717D01*
X130515270Y-60281716D01*
X130554622Y-60227554D01*
X130651095Y-60038217D01*
X130716757Y-59836130D01*
X130716757Y-59836127D01*
X130750000Y-59626246D01*
X130750000Y-59617549D01*
X130769685Y-59550510D01*
X130822489Y-59504755D01*
X130891647Y-59494811D01*
X130898192Y-59495932D01*
X130921156Y-59500500D01*
X130921158Y-59500500D01*
X131078844Y-59500500D01*
X131078845Y-59500499D01*
X131233497Y-59469737D01*
X131379179Y-59409394D01*
X131389643Y-59402402D01*
X131510875Y-59321398D01*
X131577553Y-59300520D01*
X131579766Y-59300500D01*
X131913331Y-59300500D01*
X131913347Y-59300501D01*
X131920943Y-59300501D01*
X132079054Y-59300501D01*
X132079057Y-59300501D01*
X132231785Y-59259577D01*
X132281904Y-59230639D01*
X132368716Y-59180520D01*
X132480520Y-59068716D01*
X132480520Y-59068714D01*
X132490728Y-59058507D01*
X132490730Y-59058504D01*
X133296051Y-58253182D01*
X133357372Y-58219699D01*
X133427064Y-58224683D01*
X133440024Y-58230380D01*
X133481582Y-58251554D01*
X133481588Y-58251557D01*
X133683757Y-58317246D01*
X133893713Y-58350500D01*
X133893714Y-58350500D01*
X134106286Y-58350500D01*
X134106287Y-58350500D01*
X134316243Y-58317246D01*
X134518412Y-58251557D01*
X134707816Y-58155051D01*
X134756776Y-58119480D01*
X134879786Y-58030109D01*
X134879788Y-58030106D01*
X134879792Y-58030104D01*
X135030104Y-57879792D01*
X135030106Y-57879788D01*
X135030109Y-57879786D01*
X135155048Y-57707820D01*
X135155047Y-57707820D01*
X135155051Y-57707816D01*
X135251557Y-57518412D01*
X135317246Y-57316243D01*
X135350500Y-57106287D01*
X135350500Y-56893713D01*
X135317246Y-56683757D01*
X135251557Y-56481588D01*
X135155051Y-56292184D01*
X135155049Y-56292181D01*
X135155048Y-56292179D01*
X135030109Y-56120213D01*
X134879786Y-55969890D01*
X134707820Y-55844951D01*
X134707115Y-55844591D01*
X134699054Y-55840485D01*
X134648259Y-55792512D01*
X134631463Y-55724692D01*
X134653999Y-55658556D01*
X134699054Y-55619515D01*
X134707816Y-55615051D01*
X134735348Y-55595048D01*
X134879786Y-55490109D01*
X134879788Y-55490106D01*
X134879792Y-55490104D01*
X135030104Y-55339792D01*
X135030106Y-55339788D01*
X135030109Y-55339786D01*
X135155048Y-55167820D01*
X135155047Y-55167820D01*
X135155051Y-55167816D01*
X135251557Y-54978412D01*
X135317246Y-54776243D01*
X135350500Y-54566287D01*
X135350500Y-54353713D01*
X135317246Y-54143757D01*
X135251557Y-53941588D01*
X135155051Y-53752184D01*
X135155049Y-53752181D01*
X135155048Y-53752179D01*
X135030109Y-53580213D01*
X134916181Y-53466285D01*
X134882696Y-53404962D01*
X134887680Y-53335270D01*
X134929552Y-53279337D01*
X134960529Y-53262422D01*
X135092086Y-53213354D01*
X135092093Y-53213350D01*
X135207187Y-53127190D01*
X135207190Y-53127187D01*
X135293350Y-53012093D01*
X135293354Y-53012086D01*
X135343596Y-52877379D01*
X135343598Y-52877372D01*
X135349999Y-52817844D01*
X135350000Y-52817827D01*
X135350000Y-52170000D01*
X134433012Y-52170000D01*
X134465925Y-52112993D01*
X134500000Y-51985826D01*
X134500000Y-51854174D01*
X134465925Y-51727007D01*
X134433012Y-51670000D01*
X135350000Y-51670000D01*
X135350000Y-51022172D01*
X135349999Y-51022155D01*
X135343598Y-50962627D01*
X135343596Y-50962620D01*
X135293354Y-50827913D01*
X135293350Y-50827906D01*
X135207190Y-50712812D01*
X135207187Y-50712809D01*
X135092093Y-50626649D01*
X135092086Y-50626645D01*
X134957379Y-50576403D01*
X134957372Y-50576401D01*
X134897844Y-50570000D01*
X134250000Y-50570000D01*
X134250000Y-51486988D01*
X134192993Y-51454075D01*
X134065826Y-51420000D01*
X133934174Y-51420000D01*
X133807007Y-51454075D01*
X133750000Y-51486988D01*
X133750000Y-50570000D01*
X133102155Y-50570000D01*
X133042627Y-50576401D01*
X133042620Y-50576403D01*
X132907913Y-50626645D01*
X132907906Y-50626649D01*
X132792812Y-50712809D01*
X132792809Y-50712812D01*
X132706649Y-50827906D01*
X132706645Y-50827913D01*
X132656403Y-50962620D01*
X132656401Y-50962627D01*
X132650000Y-51022155D01*
X132650000Y-51670000D01*
X133566988Y-51670000D01*
X133534075Y-51727007D01*
X133500000Y-51854174D01*
X133500000Y-51985826D01*
X133534075Y-52112993D01*
X133566988Y-52170000D01*
X132650000Y-52170000D01*
X132650000Y-52817844D01*
X132656401Y-52877372D01*
X132656403Y-52877379D01*
X132706645Y-53012086D01*
X132706649Y-53012093D01*
X132792809Y-53127187D01*
X132792812Y-53127190D01*
X132907906Y-53213350D01*
X132907913Y-53213354D01*
X133039470Y-53262422D01*
X133095404Y-53304293D01*
X133119821Y-53369758D01*
X133104969Y-53438031D01*
X133083819Y-53466285D01*
X132969889Y-53580215D01*
X132844951Y-53752179D01*
X132748444Y-53941585D01*
X132682753Y-54143760D01*
X132649500Y-54353713D01*
X132649500Y-54566286D01*
X132679585Y-54756239D01*
X132682754Y-54776243D01*
X132741945Y-54958414D01*
X132748444Y-54978414D01*
X132844951Y-55167820D01*
X132969890Y-55339786D01*
X133120213Y-55490109D01*
X133292182Y-55615050D01*
X133300946Y-55619516D01*
X133351742Y-55667491D01*
X133368536Y-55735312D01*
X133345998Y-55801447D01*
X133300946Y-55840484D01*
X133292182Y-55844949D01*
X133120213Y-55969890D01*
X132969890Y-56120213D01*
X132844951Y-56292179D01*
X132748444Y-56481585D01*
X132682753Y-56683760D01*
X132649500Y-56893713D01*
X132649500Y-57106289D01*
X132652602Y-57125878D01*
X132643645Y-57195171D01*
X132617809Y-57232954D01*
X131787584Y-58063181D01*
X131760656Y-58077884D01*
X131734838Y-58094477D01*
X131728637Y-58095368D01*
X131726261Y-58096666D01*
X131699903Y-58099500D01*
X131579766Y-58099500D01*
X131512727Y-58079815D01*
X131510875Y-58078602D01*
X131379185Y-57990609D01*
X131379172Y-57990602D01*
X131233501Y-57930264D01*
X131233489Y-57930261D01*
X131078845Y-57899500D01*
X131078842Y-57899500D01*
X130921158Y-57899500D01*
X130921155Y-57899500D01*
X130766510Y-57930261D01*
X130766498Y-57930264D01*
X130618245Y-57991672D01*
X130548776Y-57999141D01*
X130486297Y-57967865D01*
X130450645Y-57907776D01*
X130453139Y-57837951D01*
X130470475Y-57804226D01*
X130540520Y-57707816D01*
X130555051Y-57687816D01*
X130651557Y-57498412D01*
X130717246Y-57296243D01*
X130750500Y-57086287D01*
X130750500Y-56873713D01*
X130717246Y-56663757D01*
X130651557Y-56461588D01*
X130555051Y-56272184D01*
X130555049Y-56272181D01*
X130555048Y-56272179D01*
X130430109Y-56100213D01*
X130279786Y-55949890D01*
X130107820Y-55824951D01*
X130107115Y-55824591D01*
X130099054Y-55820485D01*
X130048259Y-55772512D01*
X130031463Y-55704692D01*
X130053999Y-55638556D01*
X130099054Y-55599515D01*
X130107816Y-55595051D01*
X130129789Y-55579086D01*
X130279786Y-55470109D01*
X130279788Y-55470106D01*
X130279792Y-55470104D01*
X130430104Y-55319792D01*
X130430106Y-55319788D01*
X130430109Y-55319786D01*
X130555048Y-55147820D01*
X130555047Y-55147820D01*
X130555051Y-55147816D01*
X130651557Y-54958412D01*
X130717246Y-54756243D01*
X130750500Y-54546287D01*
X130750500Y-54333713D01*
X130717246Y-54123757D01*
X130651557Y-53921588D01*
X130555051Y-53732184D01*
X130555049Y-53732181D01*
X130555048Y-53732179D01*
X130430109Y-53560213D01*
X130316569Y-53446673D01*
X130283084Y-53385350D01*
X130288068Y-53315658D01*
X130329940Y-53259725D01*
X130360915Y-53242810D01*
X130492331Y-53193796D01*
X130607546Y-53107546D01*
X130693796Y-52992331D01*
X130744091Y-52857483D01*
X130750500Y-52797873D01*
X130750499Y-51002128D01*
X130744091Y-50942517D01*
X130731094Y-50907671D01*
X130693797Y-50807671D01*
X130693793Y-50807664D01*
X130607547Y-50692455D01*
X130607544Y-50692452D01*
X130492335Y-50606206D01*
X130492328Y-50606202D01*
X130357482Y-50555908D01*
X130357483Y-50555908D01*
X130297883Y-50549501D01*
X130297881Y-50549500D01*
X130297873Y-50549500D01*
X130297864Y-50549500D01*
X128502129Y-50549500D01*
X128502123Y-50549501D01*
X128442516Y-50555908D01*
X128307671Y-50606202D01*
X128307664Y-50606206D01*
X128192455Y-50692452D01*
X128192452Y-50692455D01*
X128106206Y-50807664D01*
X128106202Y-50807671D01*
X128055908Y-50942517D01*
X128049501Y-51002116D01*
X128049501Y-51002123D01*
X128049500Y-51002135D01*
X128049500Y-52797870D01*
X128049501Y-52797876D01*
X128055908Y-52857483D01*
X128106202Y-52992328D01*
X128106206Y-52992335D01*
X128192452Y-53107544D01*
X128192455Y-53107547D01*
X128307664Y-53193793D01*
X128307671Y-53193797D01*
X128439082Y-53242810D01*
X128495016Y-53284681D01*
X128519433Y-53350145D01*
X128504582Y-53418418D01*
X128483431Y-53446673D01*
X128369889Y-53560215D01*
X128244949Y-53732182D01*
X128216806Y-53787415D01*
X128168831Y-53838211D01*
X128138417Y-53850893D01*
X128028220Y-53880421D01*
X128028209Y-53880426D01*
X127891290Y-53959475D01*
X127891282Y-53959481D01*
X123619481Y-58231282D01*
X123619479Y-58231285D01*
X123585747Y-58289711D01*
X123581397Y-58297246D01*
X123569850Y-58317246D01*
X123540421Y-58368217D01*
X123539062Y-58371500D01*
X123537172Y-58373844D01*
X123536359Y-58375254D01*
X123536139Y-58375127D01*
X123495222Y-58425905D01*
X123428928Y-58447971D01*
X123361229Y-58430693D01*
X123313617Y-58379557D01*
X123300500Y-58324050D01*
X123300500Y-58179765D01*
X123307698Y-58155248D01*
X123310966Y-58129905D01*
X123317378Y-58122282D01*
X123320185Y-58112726D01*
X123321398Y-58110874D01*
X123321913Y-58110104D01*
X123409394Y-57979179D01*
X123469737Y-57833497D01*
X123500500Y-57678842D01*
X123500500Y-57521158D01*
X123500500Y-57521155D01*
X123500499Y-57521153D01*
X123495976Y-57498414D01*
X123469737Y-57366503D01*
X123414420Y-57232954D01*
X123409397Y-57220827D01*
X123409390Y-57220814D01*
X123321789Y-57089711D01*
X123321786Y-57089707D01*
X123210292Y-56978213D01*
X123210288Y-56978210D01*
X123079185Y-56890609D01*
X123079172Y-56890602D01*
X122933501Y-56830264D01*
X122933489Y-56830261D01*
X122778845Y-56799500D01*
X122778842Y-56799500D01*
X122621158Y-56799500D01*
X122621155Y-56799500D01*
X122466510Y-56830261D01*
X122466498Y-56830264D01*
X122320822Y-56890604D01*
X122320820Y-56890605D01*
X122318885Y-56891899D01*
X122317717Y-56892264D01*
X122315451Y-56893476D01*
X122315221Y-56893045D01*
X122252206Y-56912773D01*
X122184827Y-56894285D01*
X122181115Y-56891899D01*
X122179179Y-56890605D01*
X122179177Y-56890604D01*
X122033501Y-56830264D01*
X122033489Y-56830261D01*
X121878845Y-56799500D01*
X121878842Y-56799500D01*
X121721158Y-56799500D01*
X121721155Y-56799500D01*
X121566510Y-56830261D01*
X121566498Y-56830264D01*
X121420827Y-56890602D01*
X121420814Y-56890609D01*
X121289711Y-56978210D01*
X121289707Y-56978213D01*
X121178213Y-57089707D01*
X121178210Y-57089711D01*
X121090609Y-57220814D01*
X121090602Y-57220827D01*
X121030264Y-57366498D01*
X121030261Y-57366510D01*
X120999500Y-57521153D01*
X120999500Y-57678846D01*
X121030261Y-57833489D01*
X121030264Y-57833501D01*
X121090602Y-57979172D01*
X121090609Y-57979185D01*
X121178602Y-58110874D01*
X121199480Y-58177551D01*
X121199500Y-58179765D01*
X121199500Y-58775500D01*
X121179815Y-58842539D01*
X121127011Y-58888294D01*
X121075500Y-58899500D01*
X121021155Y-58899500D01*
X120866510Y-58930261D01*
X120866498Y-58930264D01*
X120720827Y-58990602D01*
X120720814Y-58990609D01*
X120589711Y-59078210D01*
X120589707Y-59078213D01*
X120478213Y-59189707D01*
X120478210Y-59189711D01*
X120390609Y-59320814D01*
X120390602Y-59320827D01*
X120330264Y-59466498D01*
X120330261Y-59466510D01*
X120299500Y-59621153D01*
X120299500Y-59778846D01*
X120311977Y-59841571D01*
X120305750Y-59911162D01*
X120262887Y-59966340D01*
X120196997Y-59989584D01*
X120129000Y-59973516D01*
X120102679Y-59953443D01*
X119668717Y-59519481D01*
X119668716Y-59519480D01*
X119576956Y-59466503D01*
X119576955Y-59466502D01*
X119531783Y-59440422D01*
X119462243Y-59421789D01*
X119379057Y-59399499D01*
X119220943Y-59399499D01*
X119213347Y-59399499D01*
X119213331Y-59399500D01*
X114700098Y-59399500D01*
X114633059Y-59379815D01*
X114612417Y-59363181D01*
X114353677Y-59104441D01*
X114343548Y-59085892D01*
X114329442Y-59070153D01*
X114327138Y-59055840D01*
X114320192Y-59043118D01*
X114321699Y-59022036D01*
X114318342Y-59001170D01*
X114324141Y-58987886D01*
X114325176Y-58973426D01*
X114337843Y-58956505D01*
X114346299Y-58937138D01*
X114361702Y-58924632D01*
X114367048Y-58917493D01*
X114372581Y-58913582D01*
X114378346Y-58909738D01*
X114379179Y-58909394D01*
X114510289Y-58821789D01*
X114510290Y-58821787D01*
X114510989Y-58821322D01*
X114544509Y-58810866D01*
X114577553Y-58800520D01*
X114577684Y-58800518D01*
X114577690Y-58800517D01*
X114577696Y-58800518D01*
X114579766Y-58800500D01*
X115120234Y-58800500D01*
X115187273Y-58820185D01*
X115189125Y-58821398D01*
X115320814Y-58909390D01*
X115320827Y-58909397D01*
X115466498Y-58969735D01*
X115466503Y-58969737D01*
X115621153Y-59000499D01*
X115621156Y-59000500D01*
X115621158Y-59000500D01*
X115778844Y-59000500D01*
X115778845Y-59000499D01*
X115933497Y-58969737D01*
X116072443Y-58912184D01*
X116079172Y-58909397D01*
X116079172Y-58909396D01*
X116079179Y-58909394D01*
X116210289Y-58821789D01*
X116321789Y-58710289D01*
X116409394Y-58579179D01*
X116469737Y-58433497D01*
X116500500Y-58278842D01*
X116500500Y-58121158D01*
X116500500Y-58121155D01*
X116500499Y-58121153D01*
X116491892Y-58077884D01*
X116469737Y-57966503D01*
X116469735Y-57966498D01*
X116409397Y-57820827D01*
X116409390Y-57820814D01*
X116321789Y-57689711D01*
X116321786Y-57689707D01*
X116210292Y-57578213D01*
X116210288Y-57578210D01*
X116079185Y-57490609D01*
X116079172Y-57490602D01*
X115933501Y-57430264D01*
X115933489Y-57430261D01*
X115778845Y-57399500D01*
X115778842Y-57399500D01*
X115621158Y-57399500D01*
X115621155Y-57399500D01*
X115466510Y-57430261D01*
X115466498Y-57430264D01*
X115320827Y-57490602D01*
X115320814Y-57490609D01*
X115189125Y-57578602D01*
X115122447Y-57599480D01*
X115120234Y-57599500D01*
X114579766Y-57599500D01*
X114512727Y-57579815D01*
X114510875Y-57578602D01*
X114379185Y-57490609D01*
X114379172Y-57490602D01*
X114233501Y-57430264D01*
X114233492Y-57430261D01*
X114199807Y-57423561D01*
X114137897Y-57391175D01*
X114103323Y-57330459D01*
X114100000Y-57301944D01*
X114100000Y-52524500D01*
X114119685Y-52457461D01*
X114172489Y-52411706D01*
X114224000Y-52400500D01*
X117375162Y-52400500D01*
X117442201Y-52420185D01*
X117487956Y-52472989D01*
X117489715Y-52477029D01*
X117490606Y-52479179D01*
X117490607Y-52479180D01*
X117490609Y-52479185D01*
X117578210Y-52610288D01*
X117578213Y-52610292D01*
X117689707Y-52721786D01*
X117689711Y-52721789D01*
X117820814Y-52809390D01*
X117820827Y-52809397D01*
X117936919Y-52857483D01*
X117966503Y-52869737D01*
X118108002Y-52897883D01*
X118121153Y-52900499D01*
X118121156Y-52900500D01*
X118121158Y-52900500D01*
X118278844Y-52900500D01*
X118278845Y-52900499D01*
X118433497Y-52869737D01*
X118579179Y-52809394D01*
X118592776Y-52800309D01*
X118710875Y-52721398D01*
X118777553Y-52700520D01*
X118779766Y-52700500D01*
X120902044Y-52700500D01*
X120969083Y-52720185D01*
X121014838Y-52772989D01*
X121023661Y-52800309D01*
X121030261Y-52833489D01*
X121030264Y-52833501D01*
X121090602Y-52979172D01*
X121090609Y-52979185D01*
X121178210Y-53110288D01*
X121178213Y-53110292D01*
X121289707Y-53221786D01*
X121289711Y-53221789D01*
X121420814Y-53309390D01*
X121420827Y-53309397D01*
X121566498Y-53369735D01*
X121566503Y-53369737D01*
X121721153Y-53400499D01*
X121721156Y-53400500D01*
X121721158Y-53400500D01*
X121878844Y-53400500D01*
X121878845Y-53400499D01*
X122033497Y-53369737D01*
X122179179Y-53309394D01*
X122202528Y-53293793D01*
X122270662Y-53248267D01*
X122337339Y-53227389D01*
X122387004Y-53236807D01*
X122466503Y-53269737D01*
X122587440Y-53293793D01*
X122621153Y-53300499D01*
X122621156Y-53300500D01*
X122621158Y-53300500D01*
X122778844Y-53300500D01*
X122778845Y-53300499D01*
X122933497Y-53269737D01*
X123079179Y-53209394D01*
X123210289Y-53121789D01*
X123321789Y-53010289D01*
X123409394Y-52879179D01*
X123410143Y-52877372D01*
X123443068Y-52797883D01*
X123469737Y-52733497D01*
X123500500Y-52578842D01*
X123500500Y-52421158D01*
X123500500Y-52421155D01*
X123500499Y-52421153D01*
X123469738Y-52266510D01*
X123469737Y-52266503D01*
X123469735Y-52266498D01*
X123409397Y-52120827D01*
X123409390Y-52120814D01*
X123321789Y-51989711D01*
X123321786Y-51989707D01*
X123210292Y-51878213D01*
X123210288Y-51878210D01*
X123079185Y-51790609D01*
X123079172Y-51790602D01*
X122933501Y-51730264D01*
X122933491Y-51730261D01*
X122778151Y-51699362D01*
X122716241Y-51666977D01*
X122714662Y-51665426D01*
X121887590Y-50838355D01*
X121887588Y-50838352D01*
X121768717Y-50719481D01*
X121768709Y-50719475D01*
X121647509Y-50649501D01*
X121647506Y-50649500D01*
X121631785Y-50640423D01*
X121479057Y-50599499D01*
X121320943Y-50599499D01*
X121313347Y-50599499D01*
X121313331Y-50599500D01*
X118079766Y-50599500D01*
X118012727Y-50579815D01*
X118010875Y-50578602D01*
X117879185Y-50490609D01*
X117879172Y-50490602D01*
X117733501Y-50430264D01*
X117733489Y-50430261D01*
X117578845Y-50399500D01*
X117578842Y-50399500D01*
X117421158Y-50399500D01*
X117421155Y-50399500D01*
X117266510Y-50430261D01*
X117266498Y-50430264D01*
X117122136Y-50490061D01*
X117074684Y-50499500D01*
X110979766Y-50499500D01*
X110912727Y-50479815D01*
X110910875Y-50478602D01*
X110779185Y-50390609D01*
X110779172Y-50390602D01*
X110633501Y-50330264D01*
X110633489Y-50330261D01*
X110478845Y-50299500D01*
X110478842Y-50299500D01*
X110321158Y-50299500D01*
X110321155Y-50299500D01*
X110166510Y-50330261D01*
X110166498Y-50330264D01*
X110020827Y-50390602D01*
X110020814Y-50390609D01*
X109889711Y-50478210D01*
X109889707Y-50478213D01*
X109778213Y-50589707D01*
X109778210Y-50589711D01*
X109690609Y-50720814D01*
X109690602Y-50720827D01*
X109630264Y-50866498D01*
X109630261Y-50866510D01*
X109599500Y-51021153D01*
X109599500Y-51178846D01*
X109630261Y-51333489D01*
X109630264Y-51333501D01*
X109690602Y-51479172D01*
X109690609Y-51479185D01*
X109778210Y-51610288D01*
X109778213Y-51610292D01*
X109889707Y-51721786D01*
X109889711Y-51721789D01*
X110020814Y-51809390D01*
X110020823Y-51809395D01*
X110139255Y-51858451D01*
X110145426Y-51863424D01*
X110153139Y-51865245D01*
X110172242Y-51885033D01*
X110193658Y-51902292D01*
X110197395Y-51911090D01*
X110201666Y-51915514D01*
X110213414Y-51948795D01*
X110214009Y-51951783D01*
X110207796Y-52021376D01*
X110164945Y-52076562D01*
X110099060Y-52099821D01*
X110092397Y-52100000D01*
X108800000Y-52100000D01*
X108800000Y-57400000D01*
X113368559Y-57400000D01*
X113435598Y-57419685D01*
X113481353Y-57472489D01*
X113491297Y-57541647D01*
X113462272Y-57605203D01*
X113456240Y-57611681D01*
X113378213Y-57689707D01*
X113378210Y-57689711D01*
X113290609Y-57820814D01*
X113290602Y-57820827D01*
X113230264Y-57966498D01*
X113230261Y-57966510D01*
X113199500Y-58121153D01*
X113199500Y-58278846D01*
X113230261Y-58433489D01*
X113230264Y-58433501D01*
X113290602Y-58579172D01*
X113290609Y-58579185D01*
X113375752Y-58706609D01*
X113396630Y-58773286D01*
X113378146Y-58840666D01*
X113326167Y-58887357D01*
X113272650Y-58899500D01*
X109720097Y-58899500D01*
X109653058Y-58879815D01*
X109632416Y-58863181D01*
X108333757Y-57564522D01*
X108300272Y-57503199D01*
X108303507Y-57438523D01*
X108317246Y-57396243D01*
X108350500Y-57186287D01*
X108350500Y-56973713D01*
X108317246Y-56763757D01*
X108251557Y-56561588D01*
X108155051Y-56372184D01*
X108155049Y-56372181D01*
X108155048Y-56372179D01*
X108030109Y-56200213D01*
X107879786Y-56049890D01*
X107707817Y-55924949D01*
X107698504Y-55920204D01*
X107647707Y-55872230D01*
X107630912Y-55804409D01*
X107653449Y-55738274D01*
X107698507Y-55699232D01*
X107707555Y-55694622D01*
X107761716Y-55655270D01*
X107761717Y-55655270D01*
X107129408Y-55022962D01*
X107192993Y-55005925D01*
X107307007Y-54940099D01*
X107400099Y-54847007D01*
X107465925Y-54732993D01*
X107482962Y-54669409D01*
X108115270Y-55301717D01*
X108115270Y-55301716D01*
X108154622Y-55247554D01*
X108251095Y-55058217D01*
X108316757Y-54856130D01*
X108316757Y-54856127D01*
X108350000Y-54646246D01*
X108350000Y-54433753D01*
X108316757Y-54223872D01*
X108316757Y-54223869D01*
X108251095Y-54021782D01*
X108154624Y-53832449D01*
X108115270Y-53778282D01*
X108115269Y-53778282D01*
X107482962Y-54410590D01*
X107465925Y-54347007D01*
X107400099Y-54232993D01*
X107307007Y-54139901D01*
X107192993Y-54074075D01*
X107129409Y-54057037D01*
X107799627Y-53386818D01*
X107860950Y-53353333D01*
X107887307Y-53350499D01*
X107897872Y-53350499D01*
X107957483Y-53344091D01*
X108092331Y-53293796D01*
X108207546Y-53207546D01*
X108293796Y-53092331D01*
X108344091Y-52957483D01*
X108350500Y-52897873D01*
X108350499Y-51102128D01*
X108344091Y-51042517D01*
X108336496Y-51022155D01*
X108293797Y-50907671D01*
X108293793Y-50907664D01*
X108207547Y-50792455D01*
X108207544Y-50792452D01*
X108092335Y-50706206D01*
X108092328Y-50706202D01*
X107957482Y-50655908D01*
X107957483Y-50655908D01*
X107897883Y-50649501D01*
X107897881Y-50649500D01*
X107897873Y-50649500D01*
X107897864Y-50649500D01*
X106102129Y-50649500D01*
X106102123Y-50649501D01*
X106042516Y-50655908D01*
X105907671Y-50706202D01*
X105907664Y-50706206D01*
X105792455Y-50792452D01*
X105792452Y-50792455D01*
X105706206Y-50907664D01*
X105706202Y-50907671D01*
X105655908Y-51042517D01*
X105649501Y-51102116D01*
X105649501Y-51102123D01*
X105649500Y-51102135D01*
X105649500Y-52897870D01*
X105649501Y-52897876D01*
X105655908Y-52957483D01*
X105706202Y-53092328D01*
X105706206Y-53092335D01*
X105792452Y-53207544D01*
X105792455Y-53207547D01*
X105907664Y-53293793D01*
X105907671Y-53293797D01*
X105925643Y-53300500D01*
X106042517Y-53344091D01*
X106102127Y-53350500D01*
X106112685Y-53350499D01*
X106179723Y-53370179D01*
X106200372Y-53386818D01*
X106870591Y-54057037D01*
X106807007Y-54074075D01*
X106692993Y-54139901D01*
X106599901Y-54232993D01*
X106534075Y-54347007D01*
X106517037Y-54410591D01*
X105884728Y-53778282D01*
X105884727Y-53778282D01*
X105845380Y-53832439D01*
X105748904Y-54021782D01*
X105683242Y-54223869D01*
X105683242Y-54223872D01*
X105650000Y-54433753D01*
X105650000Y-54646246D01*
X105683242Y-54856127D01*
X105683242Y-54856130D01*
X105748904Y-55058217D01*
X105845375Y-55247550D01*
X105884728Y-55301716D01*
X106517037Y-54669408D01*
X106534075Y-54732993D01*
X106599901Y-54847007D01*
X106692993Y-54940099D01*
X106807007Y-55005925D01*
X106870590Y-55022962D01*
X106238282Y-55655269D01*
X106238282Y-55655270D01*
X106292452Y-55694626D01*
X106292451Y-55694626D01*
X106301495Y-55699234D01*
X106352292Y-55747208D01*
X106369087Y-55815029D01*
X106346550Y-55881164D01*
X106301499Y-55920202D01*
X106292182Y-55924949D01*
X106120213Y-56049890D01*
X105969890Y-56200213D01*
X105844951Y-56372179D01*
X105748444Y-56561585D01*
X105682753Y-56763760D01*
X105649500Y-56973713D01*
X105649500Y-57186286D01*
X105682753Y-57396239D01*
X105682753Y-57396241D01*
X105682754Y-57396243D01*
X105742400Y-57579815D01*
X105748444Y-57598414D01*
X105844951Y-57787820D01*
X105969890Y-57959786D01*
X106120213Y-58110109D01*
X106292182Y-58235050D01*
X106300946Y-58239516D01*
X106351742Y-58287491D01*
X106368536Y-58355312D01*
X106345998Y-58421447D01*
X106300946Y-58460484D01*
X106292182Y-58464949D01*
X106120213Y-58589890D01*
X105969890Y-58740213D01*
X105844951Y-58912179D01*
X105748444Y-59101585D01*
X105682753Y-59303760D01*
X105649500Y-59513713D01*
X105649500Y-59726286D01*
X105678781Y-59911162D01*
X105682754Y-59936243D01*
X105728726Y-60077731D01*
X105748444Y-60138414D01*
X105844951Y-60327820D01*
X105969890Y-60499786D01*
X106120213Y-60650109D01*
X106292179Y-60775048D01*
X106292181Y-60775049D01*
X106292184Y-60775051D01*
X106481588Y-60871557D01*
X106683757Y-60937246D01*
X106893713Y-60970500D01*
X106893714Y-60970500D01*
X107106286Y-60970500D01*
X107106287Y-60970500D01*
X107316243Y-60937246D01*
X107518412Y-60871557D01*
X107707816Y-60775051D01*
X107783329Y-60720188D01*
X107879786Y-60650109D01*
X107879788Y-60650106D01*
X107879792Y-60650104D01*
X107993077Y-60536819D01*
X108054400Y-60503334D01*
X108080758Y-60500500D01*
X113299903Y-60500500D01*
X113366942Y-60520185D01*
X113387584Y-60536819D01*
X113715139Y-60864374D01*
X113715149Y-60864385D01*
X113831285Y-60980521D01*
X113864159Y-60999500D01*
X113897139Y-61018541D01*
X113968215Y-61059577D01*
X114120943Y-61100500D01*
X114279057Y-61100500D01*
X118338573Y-61100500D01*
X118405612Y-61120185D01*
X118441675Y-61155610D01*
X118478207Y-61210284D01*
X118478213Y-61210292D01*
X118589707Y-61321786D01*
X118589711Y-61321789D01*
X118720814Y-61409390D01*
X118720827Y-61409397D01*
X118866498Y-61469735D01*
X118866503Y-61469737D01*
X119000496Y-61496390D01*
X119021153Y-61500499D01*
X119021156Y-61500500D01*
X119075500Y-61500500D01*
X119142539Y-61520185D01*
X119188294Y-61572989D01*
X119199500Y-61624500D01*
X119199500Y-61920234D01*
X119179815Y-61987273D01*
X119178602Y-61989125D01*
X119090609Y-62120814D01*
X119090602Y-62120827D01*
X119030264Y-62266498D01*
X119030261Y-62266510D01*
X118999500Y-62421153D01*
X118999500Y-62578846D01*
X119030261Y-62733489D01*
X119030264Y-62733501D01*
X119090602Y-62879172D01*
X119090609Y-62879185D01*
X119178210Y-63010288D01*
X119178213Y-63010292D01*
X119289707Y-63121786D01*
X119289711Y-63121789D01*
X119420814Y-63209390D01*
X119420827Y-63209397D01*
X119559912Y-63267007D01*
X119566503Y-63269737D01*
X119721153Y-63300499D01*
X119721156Y-63300500D01*
X119721158Y-63300500D01*
X119878844Y-63300500D01*
X119878845Y-63300499D01*
X120033497Y-63269737D01*
X120151592Y-63220821D01*
X120179172Y-63209397D01*
X120179172Y-63209396D01*
X120179179Y-63209394D01*
X120232400Y-63173833D01*
X120306609Y-63124248D01*
X120373286Y-63103370D01*
X120440666Y-63121854D01*
X120487357Y-63173833D01*
X120499500Y-63227350D01*
X120499500Y-69199903D01*
X120490855Y-69229343D01*
X120484332Y-69259330D01*
X120480577Y-69264345D01*
X120479815Y-69266942D01*
X120463181Y-69287584D01*
X120287584Y-69463181D01*
X120226261Y-69496666D01*
X120199903Y-69499500D01*
X116700098Y-69499500D01*
X116633059Y-69479815D01*
X116612417Y-69463181D01*
X116036819Y-68887583D01*
X116003334Y-68826260D01*
X116000500Y-68799902D01*
X116000500Y-68779765D01*
X116020185Y-68712726D01*
X116021398Y-68710874D01*
X116042799Y-68678846D01*
X116109394Y-68579179D01*
X116110749Y-68575909D01*
X116169735Y-68433501D01*
X116169737Y-68433497D01*
X116200500Y-68278842D01*
X116200500Y-68121158D01*
X116200500Y-68121155D01*
X116200499Y-68121153D01*
X116180543Y-68020827D01*
X116169737Y-67966503D01*
X116137929Y-67889711D01*
X116109397Y-67820827D01*
X116109395Y-67820824D01*
X116109394Y-67820821D01*
X116108103Y-67818889D01*
X116107737Y-67817723D01*
X116106525Y-67815454D01*
X116106955Y-67815223D01*
X116087226Y-67752214D01*
X116105710Y-67684834D01*
X116108077Y-67681149D01*
X116109394Y-67679179D01*
X116111688Y-67673642D01*
X116126905Y-67636903D01*
X116169737Y-67533497D01*
X116200500Y-67378842D01*
X116200500Y-67221158D01*
X116200500Y-67221155D01*
X116200499Y-67221153D01*
X116189890Y-67167820D01*
X116169737Y-67066503D01*
X116142398Y-67000500D01*
X116109397Y-66920827D01*
X116109390Y-66920814D01*
X116021789Y-66789711D01*
X116021786Y-66789707D01*
X115910292Y-66678213D01*
X115910288Y-66678210D01*
X115779185Y-66590609D01*
X115779172Y-66590602D01*
X115633501Y-66530264D01*
X115633489Y-66530261D01*
X115478845Y-66499500D01*
X115478842Y-66499500D01*
X115321158Y-66499500D01*
X115293698Y-66504962D01*
X115224106Y-66498733D01*
X115168929Y-66455870D01*
X115154947Y-66430796D01*
X115109397Y-66320827D01*
X115109390Y-66320814D01*
X115021789Y-66189711D01*
X115021786Y-66189707D01*
X114910292Y-66078213D01*
X114910288Y-66078210D01*
X114779185Y-65990609D01*
X114779172Y-65990602D01*
X114633501Y-65930264D01*
X114633491Y-65930261D01*
X114478151Y-65899362D01*
X114461394Y-65890596D01*
X114442916Y-65886577D01*
X114417875Y-65867831D01*
X114416241Y-65866977D01*
X114414664Y-65865428D01*
X114414660Y-65865425D01*
X114380520Y-65831284D01*
X114268717Y-65719481D01*
X114268716Y-65719480D01*
X114164960Y-65659577D01*
X114164959Y-65659576D01*
X114131783Y-65640422D01*
X114075881Y-65625443D01*
X113979057Y-65599499D01*
X113820943Y-65599499D01*
X113813347Y-65599499D01*
X113813331Y-65599500D01*
X113279766Y-65599500D01*
X113212727Y-65579815D01*
X113210875Y-65578602D01*
X113079185Y-65490609D01*
X113079172Y-65490602D01*
X112933501Y-65430264D01*
X112933489Y-65430261D01*
X112778845Y-65399500D01*
X112778842Y-65399500D01*
X112621158Y-65399500D01*
X112621155Y-65399500D01*
X112466510Y-65430261D01*
X112466498Y-65430264D01*
X112320827Y-65490602D01*
X112320814Y-65490609D01*
X112189711Y-65578210D01*
X112189707Y-65578213D01*
X112078213Y-65689707D01*
X112078210Y-65689711D01*
X111990609Y-65820814D01*
X111990602Y-65820827D01*
X111930264Y-65966498D01*
X111930261Y-65966510D01*
X111899500Y-66121153D01*
X111899500Y-66278846D01*
X111930261Y-66433489D01*
X111930264Y-66433501D01*
X111990602Y-66579172D01*
X111990609Y-66579185D01*
X112078210Y-66710288D01*
X112078213Y-66710292D01*
X112189707Y-66821786D01*
X112189711Y-66821789D01*
X112320814Y-66909390D01*
X112320827Y-66909397D01*
X112466498Y-66969735D01*
X112466503Y-66969737D01*
X112616131Y-66999500D01*
X112621153Y-67000499D01*
X112621156Y-67000500D01*
X112621158Y-67000500D01*
X112778844Y-67000500D01*
X112778845Y-67000499D01*
X112933497Y-66969737D01*
X113051592Y-66920821D01*
X113079172Y-66909397D01*
X113079172Y-66909396D01*
X113079179Y-66909394D01*
X113107303Y-66890602D01*
X113210875Y-66821398D01*
X113228921Y-66815747D01*
X113244831Y-66805523D01*
X113275792Y-66801071D01*
X113277553Y-66800520D01*
X113279766Y-66800500D01*
X113502044Y-66800500D01*
X113569083Y-66820185D01*
X113614838Y-66872989D01*
X113623661Y-66900309D01*
X113630261Y-66933489D01*
X113630264Y-66933501D01*
X113690602Y-67079172D01*
X113690609Y-67079185D01*
X113778210Y-67210288D01*
X113778213Y-67210292D01*
X113889707Y-67321786D01*
X113889711Y-67321789D01*
X114020814Y-67409390D01*
X114020827Y-67409397D01*
X114145262Y-67460939D01*
X114199666Y-67504779D01*
X114221731Y-67571074D01*
X114204452Y-67638773D01*
X114153315Y-67686384D01*
X114097810Y-67699500D01*
X112179766Y-67699500D01*
X112112727Y-67679815D01*
X112110875Y-67678602D01*
X111979185Y-67590609D01*
X111979172Y-67590602D01*
X111833501Y-67530264D01*
X111833489Y-67530261D01*
X111678845Y-67499500D01*
X111678842Y-67499500D01*
X111521158Y-67499500D01*
X111521155Y-67499500D01*
X111366510Y-67530261D01*
X111366498Y-67530264D01*
X111220827Y-67590602D01*
X111220814Y-67590609D01*
X111089711Y-67678210D01*
X111089707Y-67678213D01*
X110978213Y-67789707D01*
X110978210Y-67789711D01*
X110890609Y-67920814D01*
X110890602Y-67920827D01*
X110830264Y-68066498D01*
X110830261Y-68066510D01*
X110799500Y-68221153D01*
X110799500Y-68378846D01*
X110830261Y-68533489D01*
X110830264Y-68533501D01*
X110890602Y-68679172D01*
X110890609Y-68679185D01*
X110978210Y-68810288D01*
X110978213Y-68810292D01*
X111089707Y-68921786D01*
X111089711Y-68921789D01*
X111220814Y-69009390D01*
X111220827Y-69009397D01*
X111366498Y-69069735D01*
X111366503Y-69069737D01*
X111521153Y-69100499D01*
X111521156Y-69100500D01*
X111521158Y-69100500D01*
X111678844Y-69100500D01*
X111678845Y-69100499D01*
X111833497Y-69069737D01*
X111979179Y-69009394D01*
X112024399Y-68979179D01*
X112110875Y-68921398D01*
X112177553Y-68900520D01*
X112179766Y-68900500D01*
X114313331Y-68900500D01*
X114313347Y-68900501D01*
X114320943Y-68900501D01*
X114479054Y-68900501D01*
X114479057Y-68900501D01*
X114631785Y-68859577D01*
X114631786Y-68859576D01*
X114639636Y-68857473D01*
X114640263Y-68859813D01*
X114660676Y-68857616D01*
X114693147Y-68852948D01*
X114695229Y-68853898D01*
X114697505Y-68853654D01*
X114726849Y-68868339D01*
X114756703Y-68881973D01*
X114757940Y-68883898D01*
X114759987Y-68884923D01*
X114776728Y-68913134D01*
X114794477Y-68940751D01*
X114794911Y-68943773D01*
X114795645Y-68945009D01*
X114799500Y-68975686D01*
X114799500Y-69013330D01*
X114799499Y-69013348D01*
X114799499Y-69138573D01*
X114779814Y-69205612D01*
X114744391Y-69241674D01*
X114689711Y-69278211D01*
X114689704Y-69278217D01*
X114578213Y-69389707D01*
X114578210Y-69389711D01*
X114490609Y-69520814D01*
X114490602Y-69520827D01*
X114430264Y-69666498D01*
X114430261Y-69666508D01*
X114399362Y-69821848D01*
X114390596Y-69838605D01*
X114386577Y-69857082D01*
X114367832Y-69882123D01*
X114366977Y-69883759D01*
X114365427Y-69885337D01*
X114312412Y-69938352D01*
X114231286Y-70019478D01*
X114231285Y-70019478D01*
X114231284Y-70019479D01*
X114119479Y-70131284D01*
X114094106Y-70175233D01*
X114080096Y-70199500D01*
X114040423Y-70268215D01*
X113999499Y-70420943D01*
X113999499Y-70420945D01*
X113999499Y-70589046D01*
X113999500Y-70589059D01*
X113999500Y-72720234D01*
X113979815Y-72787273D01*
X113978602Y-72789125D01*
X113890609Y-72920814D01*
X113890602Y-72920827D01*
X113830264Y-73066498D01*
X113830261Y-73066510D01*
X113799500Y-73221153D01*
X113799500Y-73378846D01*
X113830261Y-73533489D01*
X113830264Y-73533501D01*
X113890602Y-73679172D01*
X113890609Y-73679185D01*
X113975752Y-73806609D01*
X113996630Y-73873286D01*
X113978146Y-73940666D01*
X113926167Y-73987357D01*
X113872650Y-73999500D01*
X111624838Y-73999500D01*
X111557799Y-73979815D01*
X111512044Y-73927011D01*
X111510275Y-73922949D01*
X111509394Y-73920821D01*
X111509391Y-73920816D01*
X111509390Y-73920814D01*
X111421789Y-73789711D01*
X111421786Y-73789707D01*
X111310292Y-73678213D01*
X111310288Y-73678210D01*
X111179185Y-73590609D01*
X111179172Y-73590602D01*
X111033501Y-73530264D01*
X111033491Y-73530261D01*
X110878151Y-73499362D01*
X110829255Y-73477916D01*
X110821476Y-73472240D01*
X110768716Y-73419480D01*
X110680789Y-73368716D01*
X110675052Y-73365403D01*
X110675047Y-73365400D01*
X110650012Y-73350946D01*
X110631785Y-73340423D01*
X110479057Y-73299499D01*
X110320943Y-73299499D01*
X110313347Y-73299499D01*
X110313331Y-73299500D01*
X108800097Y-73299500D01*
X108733058Y-73279815D01*
X108712416Y-73263181D01*
X106134574Y-70685339D01*
X106101089Y-70624016D01*
X106100638Y-70621849D01*
X106080734Y-70521789D01*
X106069737Y-70466503D01*
X106055685Y-70432578D01*
X106009397Y-70320827D01*
X106009390Y-70320814D01*
X105921789Y-70189711D01*
X105921786Y-70189707D01*
X105810292Y-70078213D01*
X105810288Y-70078210D01*
X105679185Y-69990609D01*
X105679172Y-69990602D01*
X105533501Y-69930264D01*
X105533489Y-69930261D01*
X105378845Y-69899500D01*
X105378842Y-69899500D01*
X105221158Y-69899500D01*
X105221155Y-69899500D01*
X105066510Y-69930261D01*
X105066498Y-69930264D01*
X104920827Y-69990602D01*
X104920814Y-69990609D01*
X104789711Y-70078210D01*
X104789706Y-70078214D01*
X104739528Y-70128392D01*
X104678205Y-70161876D01*
X104608513Y-70156891D01*
X104552580Y-70115020D01*
X104537289Y-70088166D01*
X104509394Y-70020821D01*
X104509390Y-70020814D01*
X104421789Y-69889711D01*
X104421786Y-69889707D01*
X104310292Y-69778213D01*
X104310288Y-69778210D01*
X104179185Y-69690609D01*
X104179172Y-69690602D01*
X104033501Y-69630264D01*
X104033489Y-69630261D01*
X103878845Y-69599500D01*
X103878842Y-69599500D01*
X103721158Y-69599500D01*
X103721155Y-69599500D01*
X103566510Y-69630261D01*
X103566503Y-69630263D01*
X103521950Y-69648717D01*
X103452481Y-69656184D01*
X103390002Y-69624909D01*
X103354350Y-69564819D01*
X103350499Y-69534155D01*
X103350499Y-69022129D01*
X103350498Y-69022123D01*
X103350497Y-69022116D01*
X103344091Y-68962517D01*
X103328900Y-68921789D01*
X103293797Y-68827671D01*
X103293793Y-68827664D01*
X103207547Y-68712455D01*
X103207544Y-68712452D01*
X103092335Y-68626206D01*
X103092328Y-68626202D01*
X102957482Y-68575908D01*
X102957483Y-68575908D01*
X102897883Y-68569501D01*
X102897881Y-68569500D01*
X102897873Y-68569500D01*
X102897864Y-68569500D01*
X101102129Y-68569500D01*
X101102123Y-68569501D01*
X101042516Y-68575908D01*
X100907671Y-68626202D01*
X100907664Y-68626206D01*
X100792455Y-68712452D01*
X100792452Y-68712455D01*
X100706206Y-68827664D01*
X100706202Y-68827671D01*
X100655908Y-68962517D01*
X100650446Y-69013330D01*
X100649501Y-69022123D01*
X100649500Y-69022135D01*
X99500500Y-69022135D01*
X99500500Y-54353713D01*
X100649500Y-54353713D01*
X100649500Y-54566286D01*
X100679585Y-54756239D01*
X100682754Y-54776243D01*
X100741945Y-54958414D01*
X100748444Y-54978414D01*
X100844951Y-55167820D01*
X100969890Y-55339786D01*
X101120213Y-55490109D01*
X101292182Y-55615050D01*
X101300946Y-55619516D01*
X101351742Y-55667491D01*
X101368536Y-55735312D01*
X101345998Y-55801447D01*
X101300946Y-55840484D01*
X101292182Y-55844949D01*
X101120213Y-55969890D01*
X100969890Y-56120213D01*
X100844951Y-56292179D01*
X100748444Y-56481585D01*
X100682753Y-56683760D01*
X100649500Y-56893713D01*
X100649500Y-57106286D01*
X100679585Y-57296239D01*
X100682754Y-57316243D01*
X100741945Y-57498414D01*
X100748444Y-57518414D01*
X100844951Y-57707820D01*
X100969890Y-57879786D01*
X101120213Y-58030109D01*
X101292184Y-58155051D01*
X101292184Y-58155052D01*
X101331793Y-58175233D01*
X101382590Y-58223206D01*
X101399500Y-58285718D01*
X101399500Y-58613330D01*
X101399499Y-58613348D01*
X101399499Y-58779054D01*
X101399498Y-58779054D01*
X101440014Y-58930261D01*
X101440423Y-58931785D01*
X101462335Y-58969737D01*
X101513586Y-59058507D01*
X101519479Y-59068714D01*
X101519481Y-59068717D01*
X101638349Y-59187585D01*
X101638355Y-59187590D01*
X101808584Y-59357819D01*
X101842069Y-59419142D01*
X101837085Y-59488834D01*
X101795213Y-59544767D01*
X101729749Y-59569184D01*
X101720903Y-59569500D01*
X101102129Y-59569500D01*
X101102123Y-59569501D01*
X101042516Y-59575908D01*
X100907671Y-59626202D01*
X100907664Y-59626206D01*
X100792455Y-59712452D01*
X100792452Y-59712455D01*
X100706206Y-59827664D01*
X100706202Y-59827671D01*
X100655908Y-59962517D01*
X100649501Y-60022116D01*
X100649500Y-60022135D01*
X100649500Y-61817870D01*
X100649501Y-61817876D01*
X100655908Y-61877483D01*
X100706202Y-62012328D01*
X100706206Y-62012335D01*
X100792452Y-62127544D01*
X100792455Y-62127547D01*
X100907664Y-62213793D01*
X100907671Y-62213797D01*
X100952618Y-62230561D01*
X101042517Y-62264091D01*
X101102127Y-62270500D01*
X101112685Y-62270499D01*
X101179723Y-62290179D01*
X101200372Y-62306818D01*
X101870591Y-62977037D01*
X101807007Y-62994075D01*
X101692993Y-63059901D01*
X101599901Y-63152993D01*
X101534075Y-63267007D01*
X101517037Y-63330591D01*
X100884728Y-62698282D01*
X100884727Y-62698282D01*
X100845380Y-62752439D01*
X100748904Y-62941782D01*
X100683242Y-63143869D01*
X100683242Y-63143872D01*
X100650000Y-63353753D01*
X100650000Y-63566246D01*
X100683242Y-63776127D01*
X100683242Y-63776130D01*
X100748904Y-63978217D01*
X100845375Y-64167550D01*
X100884728Y-64221716D01*
X101517037Y-63589408D01*
X101534075Y-63652993D01*
X101599901Y-63767007D01*
X101692993Y-63860099D01*
X101807007Y-63925925D01*
X101870590Y-63942962D01*
X101238282Y-64575269D01*
X101238282Y-64575270D01*
X101292452Y-64614626D01*
X101292451Y-64614626D01*
X101301495Y-64619234D01*
X101352292Y-64667208D01*
X101369087Y-64735029D01*
X101346550Y-64801164D01*
X101301499Y-64840202D01*
X101292182Y-64844949D01*
X101120213Y-64969890D01*
X100969890Y-65120213D01*
X100844951Y-65292179D01*
X100748444Y-65481585D01*
X100682753Y-65683760D01*
X100649500Y-65893713D01*
X100649500Y-66106286D01*
X100680774Y-66303747D01*
X100682754Y-66316243D01*
X100739117Y-66489711D01*
X100748444Y-66518414D01*
X100844951Y-66707820D01*
X100969890Y-66879786D01*
X101120213Y-67030109D01*
X101292179Y-67155048D01*
X101292181Y-67155049D01*
X101292184Y-67155051D01*
X101481588Y-67251557D01*
X101683757Y-67317246D01*
X101893713Y-67350500D01*
X101893714Y-67350500D01*
X102106286Y-67350500D01*
X102106287Y-67350500D01*
X102316243Y-67317246D01*
X102518412Y-67251557D01*
X102707816Y-67155051D01*
X102729789Y-67139086D01*
X102879786Y-67030109D01*
X102879788Y-67030106D01*
X102879792Y-67030104D01*
X103030104Y-66879792D01*
X103030106Y-66879788D01*
X103030109Y-66879786D01*
X103155048Y-66707820D01*
X103155047Y-66707820D01*
X103155051Y-66707816D01*
X103251557Y-66518412D01*
X103317246Y-66316243D01*
X103350500Y-66106287D01*
X103350500Y-65893713D01*
X103317246Y-65683757D01*
X103251557Y-65481588D01*
X103155051Y-65292184D01*
X103155049Y-65292181D01*
X103155048Y-65292179D01*
X103030109Y-65120213D01*
X102879786Y-64969890D01*
X102707817Y-64844949D01*
X102698504Y-64840204D01*
X102647707Y-64792230D01*
X102630912Y-64724409D01*
X102653449Y-64658274D01*
X102698507Y-64619232D01*
X102707555Y-64614622D01*
X102761716Y-64575270D01*
X102761717Y-64575270D01*
X102129408Y-63942962D01*
X102192993Y-63925925D01*
X102307007Y-63860099D01*
X102400099Y-63767007D01*
X102465925Y-63652993D01*
X102482962Y-63589409D01*
X103115270Y-64221717D01*
X103115270Y-64221716D01*
X103154622Y-64167554D01*
X103251095Y-63978217D01*
X103316757Y-63776130D01*
X103316757Y-63776127D01*
X103350000Y-63566246D01*
X103350000Y-63353753D01*
X103316757Y-63143872D01*
X103316757Y-63143869D01*
X103251095Y-62941782D01*
X103154624Y-62752449D01*
X103115270Y-62698282D01*
X103115269Y-62698282D01*
X102482962Y-63330590D01*
X102465925Y-63267007D01*
X102400099Y-63152993D01*
X102307007Y-63059901D01*
X102192993Y-62994075D01*
X102129409Y-62977037D01*
X102799627Y-62306818D01*
X102860950Y-62273333D01*
X102864184Y-62272674D01*
X102875642Y-62270499D01*
X102897872Y-62270499D01*
X102957483Y-62264091D01*
X103007306Y-62245507D01*
X103017648Y-62243545D01*
X103042363Y-62245975D01*
X103067129Y-62244204D01*
X103076526Y-62249335D01*
X103087183Y-62250383D01*
X103106658Y-62265787D01*
X103119121Y-62272593D01*
X103119454Y-62272095D01*
X103119457Y-62272097D01*
X103121936Y-62274130D01*
X103128450Y-62277686D01*
X103128453Y-62277689D01*
X103138349Y-62287585D01*
X103138355Y-62287590D01*
X104465425Y-63614660D01*
X104498910Y-63675983D01*
X104499361Y-63678149D01*
X104530261Y-63833491D01*
X104530264Y-63833501D01*
X104590602Y-63979172D01*
X104590609Y-63979185D01*
X104678210Y-64110288D01*
X104678213Y-64110292D01*
X104789707Y-64221786D01*
X104789711Y-64221789D01*
X104920814Y-64309390D01*
X104920827Y-64309397D01*
X105066498Y-64369735D01*
X105066503Y-64369737D01*
X105221153Y-64400499D01*
X105221156Y-64400500D01*
X105221158Y-64400500D01*
X105378844Y-64400500D01*
X105378845Y-64400499D01*
X105533497Y-64369737D01*
X105679179Y-64309394D01*
X105810289Y-64221789D01*
X105921789Y-64110289D01*
X106009394Y-63979179D01*
X106009793Y-63978217D01*
X106031452Y-63925925D01*
X106069737Y-63833497D01*
X106100500Y-63678842D01*
X106100500Y-63521158D01*
X106100500Y-63521155D01*
X106100499Y-63521153D01*
X106088335Y-63460000D01*
X106069737Y-63366503D01*
X106062377Y-63348735D01*
X106009397Y-63220827D01*
X106009390Y-63220814D01*
X105921789Y-63089711D01*
X105921786Y-63089707D01*
X105810292Y-62978213D01*
X105810288Y-62978210D01*
X105679185Y-62890609D01*
X105679172Y-62890602D01*
X105533501Y-62830264D01*
X105533491Y-62830261D01*
X105378149Y-62799361D01*
X105316238Y-62766976D01*
X105314660Y-62765425D01*
X104136819Y-61587584D01*
X104103334Y-61526261D01*
X104100500Y-61499903D01*
X104100500Y-60120945D01*
X104100500Y-60120943D01*
X104059577Y-59968216D01*
X104026637Y-59911162D01*
X103980524Y-59831290D01*
X103980521Y-59831286D01*
X103980520Y-59831284D01*
X103868716Y-59719480D01*
X103868715Y-59719479D01*
X103864385Y-59715149D01*
X103864374Y-59715139D01*
X102636819Y-58487584D01*
X102622115Y-58460656D01*
X102605523Y-58434838D01*
X102604631Y-58428637D01*
X102603334Y-58426261D01*
X102600500Y-58399903D01*
X102600500Y-58285718D01*
X102620185Y-58218679D01*
X102668207Y-58175233D01*
X102707815Y-58155052D01*
X102707815Y-58155051D01*
X102707816Y-58155051D01*
X102834265Y-58063181D01*
X102879786Y-58030109D01*
X102879788Y-58030106D01*
X102879792Y-58030104D01*
X103030104Y-57879792D01*
X103030106Y-57879788D01*
X103030109Y-57879786D01*
X103155048Y-57707820D01*
X103155047Y-57707820D01*
X103155051Y-57707816D01*
X103251557Y-57518412D01*
X103317246Y-57316243D01*
X103350500Y-57106287D01*
X103350500Y-56893713D01*
X103317246Y-56683757D01*
X103251557Y-56481588D01*
X103155051Y-56292184D01*
X103155049Y-56292181D01*
X103155048Y-56292179D01*
X103030109Y-56120213D01*
X102879786Y-55969890D01*
X102707820Y-55844951D01*
X102707115Y-55844591D01*
X102699054Y-55840485D01*
X102648259Y-55792512D01*
X102631463Y-55724692D01*
X102653999Y-55658556D01*
X102699054Y-55619515D01*
X102707816Y-55615051D01*
X102735348Y-55595048D01*
X102879786Y-55490109D01*
X102879788Y-55490106D01*
X102879792Y-55490104D01*
X103030104Y-55339792D01*
X103030106Y-55339788D01*
X103030109Y-55339786D01*
X103155048Y-55167820D01*
X103155047Y-55167820D01*
X103155051Y-55167816D01*
X103251557Y-54978412D01*
X103317246Y-54776243D01*
X103350500Y-54566287D01*
X103350500Y-54353713D01*
X103317246Y-54143757D01*
X103251557Y-53941588D01*
X103155051Y-53752184D01*
X103155049Y-53752181D01*
X103155048Y-53752179D01*
X103030109Y-53580213D01*
X102916181Y-53466285D01*
X102882696Y-53404962D01*
X102887680Y-53335270D01*
X102929552Y-53279337D01*
X102960529Y-53262422D01*
X103092086Y-53213354D01*
X103092093Y-53213350D01*
X103207187Y-53127190D01*
X103207190Y-53127187D01*
X103293350Y-53012093D01*
X103293354Y-53012086D01*
X103343596Y-52877379D01*
X103343598Y-52877372D01*
X103349999Y-52817844D01*
X103350000Y-52817827D01*
X103350000Y-52170000D01*
X102433012Y-52170000D01*
X102465925Y-52112993D01*
X102500000Y-51985826D01*
X102500000Y-51854174D01*
X102465925Y-51727007D01*
X102433012Y-51670000D01*
X103350000Y-51670000D01*
X103350000Y-51022172D01*
X103349999Y-51022155D01*
X103343598Y-50962627D01*
X103343596Y-50962620D01*
X103293354Y-50827913D01*
X103293350Y-50827906D01*
X103207190Y-50712812D01*
X103207187Y-50712809D01*
X103092093Y-50626649D01*
X103092086Y-50626645D01*
X102957379Y-50576403D01*
X102957372Y-50576401D01*
X102897844Y-50570000D01*
X102250000Y-50570000D01*
X102250000Y-51486988D01*
X102192993Y-51454075D01*
X102065826Y-51420000D01*
X101934174Y-51420000D01*
X101807007Y-51454075D01*
X101750000Y-51486988D01*
X101750000Y-50570000D01*
X101102155Y-50570000D01*
X101042627Y-50576401D01*
X101042620Y-50576403D01*
X100907913Y-50626645D01*
X100907906Y-50626649D01*
X100792812Y-50712809D01*
X100792809Y-50712812D01*
X100706649Y-50827906D01*
X100706645Y-50827913D01*
X100656403Y-50962620D01*
X100656401Y-50962627D01*
X100650000Y-51022155D01*
X100650000Y-51670000D01*
X101566988Y-51670000D01*
X101534075Y-51727007D01*
X101500000Y-51854174D01*
X101500000Y-51985826D01*
X101534075Y-52112993D01*
X101566988Y-52170000D01*
X100650000Y-52170000D01*
X100650000Y-52817844D01*
X100656401Y-52877372D01*
X100656403Y-52877379D01*
X100706645Y-53012086D01*
X100706649Y-53012093D01*
X100792809Y-53127187D01*
X100792812Y-53127190D01*
X100907906Y-53213350D01*
X100907913Y-53213354D01*
X101039470Y-53262422D01*
X101095404Y-53304293D01*
X101119821Y-53369758D01*
X101104969Y-53438031D01*
X101083819Y-53466285D01*
X100969889Y-53580215D01*
X100844951Y-53752179D01*
X100748444Y-53941585D01*
X100682753Y-54143760D01*
X100649500Y-54353713D01*
X99500500Y-54353713D01*
X99500500Y-49624500D01*
X99520185Y-49557461D01*
X99572989Y-49511706D01*
X99624500Y-49500500D01*
X136375500Y-49500500D01*
X136442539Y-49520185D01*
G37*
%TD.AperFunction*%
%TD*%
M02*
